{"glyphs":{"0":{"ha":1074,"x_min":56,"x_max":1018,"o":"m 536 -137 q 330 -97 419 -137 q 179 22 240 -56 q 87 210 118 99 q 56 460 56 321 q 87 710 56 599 q 179 898 118 821 q 330 1016 240 975 q 536 1057 419 1057 q 742 1016 653 1057 q 894 898 832 975 q 987 710 956 821 q 1018 460 1018 599 q 987 210 1018 321 q 894 22 956 99 q 742 -97 832 -56 q 536 -137 653 -137 m 536 -74 q 665 54 618 -74 q 711 460 711 182 q 665 865 711 738 q 536 993 618 993 q 408 865 454 993 q 361 460 361 738 q 408 54 361 182 q 536 -74 454 -74 z "},"1":{"ha":797,"x_min":56,"x_max":615,"o":"m 308 899 l 110 790 l 56 861 l 321 1014 l 615 1014 l 615 -100 l 308 -100 l 308 899 z "},"2":{"ha":953,"x_min":56,"x_max":899,"o":"m 56 21 q 95 184 56 117 q 194 303 135 251 q 324 398 254 356 q 453 485 393 440 q 552 585 513 531 q 592 715 592 639 q 565 928 592 863 q 476 993 538 993 q 391 930 419 993 q 363 715 363 867 l 56 715 q 87 861 56 797 q 174 969 118 925 q 306 1035 229 1013 q 476 1057 383 1057 q 647 1035 569 1057 q 780 969 724 1013 q 867 861 836 925 q 899 715 899 797 q 859 547 899 614 q 760 429 819 479 q 631 340 700 379 q 501 258 561 301 q 402 158 442 214 q 363 21 363 103 l 363 -33 l 886 -33 l 886 -97 l 56 -97 l 56 21 z "},"3":{"ha":1004,"x_min":56,"x_max":963,"o":"m 349 193 q 393 -1 349 69 q 508 -72 438 -72 q 624 -1 579 -72 q 668 193 668 69 q 618 388 668 315 q 476 461 568 461 l 400 461 l 400 525 l 476 525 q 602 587 560 525 q 644 758 644 649 q 606 931 644 868 q 504 993 568 993 q 400 926 438 993 q 363 749 363 858 l 69 750 q 181 976 69 896 q 504 1057 293 1057 q 683 1038 603 1057 q 820 980 764 1018 q 907 886 876 942 q 938 758 938 831 q 924 681 938 721 q 888 604 911 640 q 831 538 864 568 q 757 493 797 508 q 834 446 797 478 q 899 373 871 414 q 945 285 928 332 q 963 193 963 239 q 844 -52 963 33 q 508 -137 725 -137 q 174 -52 292 -137 q 56 193 56 33 l 349 193 z "},"4":{"ha":1104,"x_min":68,"x_max":1049,"o":"m 68 221 l 583 1014 l 889 1014 l 889 217 l 1049 217 l 1049 153 l 889 153 l 889 -100 l 583 -100 l 583 153 l 68 153 l 68 221 m 583 217 l 583 782 l 219 217 l 583 217 z "},"5":{"ha":999,"x_min":81,"x_max":943,"o":"m 374 110 q 415 -28 381 21 q 503 -76 450 -76 q 611 10 574 -76 q 649 253 649 97 q 612 485 649 404 q 504 565 575 565 q 374 406 406 565 l 90 406 l 129 1014 l 875 1014 l 875 950 l 406 950 l 385 579 q 450 622 413 606 q 536 639 488 639 q 837 546 731 639 q 943 253 943 453 q 831 -40 943 61 q 503 -140 719 -140 q 334 -123 410 -140 q 203 -73 258 -106 q 117 6 149 -40 q 81 111 85 53 l 374 110 z "},"6":{"ha":1043,"x_min":81,"x_max":988,"o":"m 617 950 q 438 851 500 950 q 375 560 375 753 q 567 642 449 642 q 878 542 768 642 q 988 233 988 443 q 956 72 988 142 q 867 -44 925 3 q 725 -116 808 -92 q 536 -140 642 -140 q 313 -106 400 -140 q 173 -4 225 -71 q 101 159 121 63 q 81 378 81 256 q 104 646 81 528 q 186 846 128 764 q 344 971 244 928 q 599 1014 444 1014 l 867 1014 l 867 950 l 617 950 m 535 -76 q 607 -52 576 -76 q 657 14 638 -28 q 685 112 676 56 q 694 233 694 168 q 658 479 694 393 q 535 565 621 565 q 410 478 444 565 q 375 233 375 392 q 384 112 375 168 q 413 14 393 56 q 462 -52 432 -28 q 535 -76 492 -76 z "},"7":{"ha":935,"x_min":56,"x_max":872,"o":"m 190 -100 q 317 450 226 188 q 560 950 408 713 l 56 950 l 56 1014 l 872 1014 l 872 950 q 626 441 721 711 q 497 -100 531 171 l 190 -100 z "},"8":{"ha":1047,"x_min":56,"x_max":992,"o":"m 258 494 q 143 600 185 532 q 101 760 101 668 q 131 892 101 836 q 215 985 160 949 q 347 1039 269 1021 q 522 1057 425 1057 q 698 1039 619 1057 q 832 985 776 1021 q 917 892 888 949 q 947 760 947 836 q 906 597 947 668 q 789 494 864 526 q 869 452 832 479 q 933 388 906 425 q 976 301 960 350 q 992 196 992 253 q 956 51 992 114 q 858 -53 921 -11 q 710 -116 796 -94 q 522 -137 624 -137 q 335 -116 421 -137 q 188 -53 250 -94 q 90 51 125 -11 q 56 196 56 114 q 109 391 56 311 q 258 494 163 471 m 522 524 q 585 542 558 524 q 628 594 611 561 q 652 672 644 628 q 660 767 660 717 q 652 859 660 817 q 628 933 644 901 q 586 981 613 964 q 522 999 560 999 q 460 981 485 999 q 419 933 435 964 q 396 859 403 901 q 389 767 389 817 q 397 672 389 717 q 420 594 404 628 q 461 542 436 561 q 522 524 486 524 m 522 -79 q 656 -8 607 -79 q 704 189 704 63 q 690 302 704 251 q 652 390 676 353 q 594 446 628 426 q 522 465 561 465 q 452 446 485 465 q 395 390 419 426 q 357 302 371 353 q 343 189 343 251 q 391 -8 343 63 q 522 -79 439 -79 z "},"9":{"ha":1043,"x_min":56,"x_max":963,"o":"m 176 -33 l 425 -33 q 606 65 543 -33 q 668 357 668 164 q 476 275 593 275 q 165 374 275 275 q 56 683 56 472 q 87 844 56 775 q 176 961 118 914 q 318 1033 235 1008 q 507 1057 401 1057 q 730 1022 642 1057 q 870 921 818 988 q 942 758 922 854 q 963 539 963 661 q 939 271 963 389 q 857 71 915 153 q 699 -54 799 -11 q 444 -97 599 -97 l 176 -97 l 176 -33 m 508 351 q 633 438 599 351 q 668 683 668 525 q 659 804 668 747 q 631 903 650 861 q 581 969 611 944 q 508 993 551 993 q 435 969 465 993 q 386 903 406 944 q 358 804 367 861 q 349 683 349 747 q 385 438 349 525 q 508 351 422 351 z "}," ":{"ha":319,"x_min":0,"x_max":0,"o":""}," ":{"ha":319,"x_min":0,"x_max":0,"o":""},"!":{"ha":506,"x_min":88,"x_max":419,"o":"m 96 1042 l 419 1042 l 403 268 l 113 268 l 96 1042 m 253 -151 q 133 -106 178 -151 q 88 15 88 -60 q 133 136 88 90 q 253 182 178 182 q 374 136 328 182 q 419 15 419 90 q 374 -106 419 -60 q 253 -151 328 -151 z "},"\"":{"ha":576,"x_min":68,"x_max":508,"o":"m 68 1081 l 265 1081 l 265 774 l 68 774 l 68 1081 m 311 1081 l 508 1081 l 508 774 l 311 774 l 311 1081 z "},"#":{"ha":1193,"x_min":68,"x_max":1176,"o":"m 207 143 l 68 143 l 68 207 l 215 207 l 247 425 l 97 425 l 97 489 l 256 489 l 288 707 l 126 707 l 126 771 l 296 771 l 331 1014 l 618 1014 l 583 771 l 750 771 l 785 1014 l 1072 1014 l 1038 771 l 1176 771 l 1176 707 l 1029 707 l 997 489 l 1147 489 l 1147 425 l 989 425 l 957 207 l 1118 207 l 1118 143 l 949 143 l 914 -100 l 626 -100 l 661 143 l 494 143 l 460 -100 l 172 -100 l 207 143 m 710 489 l 742 707 l 575 707 l 543 489 l 710 489 m 669 207 l 701 425 l 535 425 l 503 207 l 669 207 z "},"$":{"ha":1018,"x_min":56,"x_max":963,"o":"m 446 -82 q 285 -58 357 -78 q 162 -1 213 -37 q 83 90 111 36 q 56 214 56 143 l 56 265 l 335 265 l 335 214 q 364 60 335 115 q 446 -15 393 4 l 446 456 q 301 494 369 472 q 181 549 232 515 q 99 631 129 582 q 68 753 68 681 q 99 857 68 813 q 181 933 129 901 q 301 982 232 964 q 446 1004 369 1000 l 446 1094 l 569 1094 l 569 1004 q 731 976 658 999 q 854 917 803 954 q 933 828 906 879 q 961 714 961 778 l 961 669 l 671 669 l 671 708 q 644 866 671 813 q 569 938 618 919 l 569 507 q 576 506 572 506 q 582 504 579 506 q 733 468 663 488 q 853 417 803 449 q 933 337 904 386 q 963 211 963 288 q 935 88 963 140 q 856 -1 907 35 q 731 -58 804 -37 q 569 -82 658 -78 l 569 -186 l 446 -186 l 446 -82 m 446 936 q 375 874 403 919 q 347 750 347 829 q 370 638 347 686 q 446 556 393 589 l 446 936 m 569 -15 q 653 60 622 4 q 683 217 683 115 q 659 345 683 297 q 569 421 635 393 l 569 -15 z "},"%":{"ha":1376,"x_min":69,"x_max":1307,"o":"m 69 778 q 90 892 69 840 q 147 980 110 943 q 238 1037 185 1017 q 358 1057 292 1057 q 480 1037 426 1057 q 571 980 533 1017 q 628 892 608 943 q 649 778 649 840 q 628 664 649 715 q 571 576 608 613 q 480 520 533 540 q 358 500 426 500 q 238 520 292 500 q 147 576 185 540 q 90 664 110 613 q 69 778 69 715 m 981 1017 l 1135 1017 l 382 -97 l 229 -97 l 981 1017 m 358 564 q 390 581 376 564 q 413 626 403 597 q 427 693 422 654 q 432 778 432 732 q 427 863 432 824 q 413 931 422 901 q 390 976 403 960 q 358 993 376 993 q 328 976 342 993 q 305 931 314 960 q 291 863 296 901 q 286 778 286 824 q 291 693 286 732 q 305 626 296 654 q 328 581 314 597 q 358 564 342 564 m 726 142 q 747 256 726 204 q 804 343 767 307 q 896 399 842 379 q 1017 419 950 419 q 1138 399 1085 419 q 1229 343 1192 379 q 1287 256 1267 307 q 1307 142 1307 204 q 1287 28 1307 79 q 1229 -60 1267 -24 q 1138 -117 1192 -97 q 1017 -137 1085 -137 q 896 -117 950 -137 q 804 -60 842 -97 q 747 28 767 -24 q 726 142 726 79 m 1017 -74 q 1047 -57 1033 -74 q 1071 -11 1061 -40 q 1085 57 1081 18 q 1090 142 1090 96 q 1085 226 1090 188 q 1071 294 1081 265 q 1047 339 1061 322 q 1017 356 1033 356 q 986 339 1000 356 q 963 294 972 322 q 949 226 954 265 q 944 142 944 188 q 949 57 944 96 q 963 -11 954 18 q 986 -57 972 -40 q 1017 -74 1000 -74 z "},"&":{"ha":1226,"x_min":49,"x_max":1213,"o":"m 818 318 l 899 500 l 1194 500 l 989 139 l 1213 -100 l 928 -100 l 853 -21 q 702 -109 789 -81 q 513 -137 615 -137 q 329 -115 414 -137 q 182 -51 244 -93 q 84 51 119 -10 q 49 190 49 113 q 74 296 49 246 q 142 387 99 346 q 246 459 186 428 q 375 510 306 490 q 300 574 335 539 q 240 647 265 610 q 201 722 215 685 q 188 792 188 760 q 221 911 188 861 q 309 994 254 961 q 435 1042 364 1026 q 581 1057 506 1057 q 728 1043 658 1057 q 850 999 797 1029 q 934 919 903 968 q 965 803 965 871 q 942 710 965 754 q 876 628 918 667 q 778 556 835 589 q 656 497 721 522 l 818 318 m 582 574 q 651 674 628 615 q 674 817 674 733 q 648 951 674 900 q 581 1001 622 1001 q 508 947 536 1001 q 479 808 479 892 q 511 674 479 733 q 582 574 543 614 m 465 426 q 384 322 414 383 q 354 176 354 260 q 367 80 354 125 q 403 1 381 35 q 455 -53 425 -33 q 518 -74 485 -74 q 587 -56 556 -74 q 644 -8 618 -37 q 690 56 669 21 q 724 126 710 92 l 465 426 z "},"'":{"ha":365,"x_min":68,"x_max":297,"o":"m 68 1081 l 297 1081 l 297 774 l 68 774 l 68 1081 z "},"(":{"ha":574,"x_min":117,"x_max":515,"o":"m 418 -162 q 291 -35 347 -107 q 197 117 235 36 q 138 285 158 199 q 117 460 117 372 q 138 634 117 547 q 197 801 158 721 q 291 953 235 882 q 418 1081 347 1025 l 515 1081 q 404 782 436 940 q 372 460 372 624 q 404 137 372 296 q 515 -162 436 -22 l 418 -162 z "},")":{"ha":574,"x_min":58,"x_max":457,"o":"m 58 -162 q 169 137 138 -22 q 201 460 201 296 q 169 782 201 624 q 58 1081 138 940 l 156 1081 q 283 953 226 1025 q 377 801 339 882 q 436 634 415 721 q 457 460 457 547 q 436 285 457 372 q 377 117 415 199 q 283 -35 339 36 q 156 -162 226 -107 l 58 -162 z "},"*":{"ha":768,"x_min":81,"x_max":688,"o":"m 265 756 l 81 796 l 136 967 l 311 893 l 294 1081 l 476 1081 l 457 893 l 632 967 l 688 796 l 503 756 l 629 617 l 481 511 l 383 672 l 288 511 l 138 617 l 265 756 z "},"+":{"ha":746,"x_min":69,"x_max":676,"o":"m 267 467 l 69 467 l 69 543 l 267 543 l 267 767 l 478 767 l 478 543 l 676 543 l 676 467 l 478 467 l 478 243 l 267 243 l 267 467 z "},",":{"ha":446,"x_min":68,"x_max":365,"o":"m 68 -300 q 162 -256 125 -292 q 199 -169 199 -221 q 111 -127 143 -162 q 79 -33 79 -92 q 117 68 79 29 q 217 107 154 107 q 330 54 294 107 q 365 -78 365 1 q 348 -184 365 -135 q 297 -272 331 -233 q 215 -336 264 -311 q 103 -368 165 -361 l 68 -300 z "},"-":{"ha":707,"x_min":69,"x_max":638,"o":"m 69 533 l 638 533 l 638 457 l 69 457 l 69 533 z "},".":{"ha":450,"x_min":81,"x_max":369,"o":"m 81 -46 q 119 61 81 22 q 225 100 158 100 q 331 61 292 100 q 369 -46 369 22 q 331 -151 369 -111 q 225 -190 292 -190 q 119 -151 158 -190 q 81 -46 81 -111 z "},"/":{"ha":694,"x_min":42,"x_max":653,"o":"m 360 1081 l 653 1081 l 336 -162 l 42 -162 l 360 1081 z "},":":{"ha":450,"x_min":81,"x_max":369,"o":"m 81 731 q 119 836 81 797 q 225 875 158 875 q 331 836 292 875 q 369 731 369 797 q 331 625 369 664 q 225 586 292 586 q 119 625 158 586 q 81 731 81 664 m 81 210 q 119 317 81 278 q 225 356 158 356 q 331 317 292 356 q 369 210 369 278 q 331 105 369 144 q 225 65 292 65 q 119 105 158 65 q 81 210 81 144 z "},";":{"ha":454,"x_min":75,"x_max":374,"o":"m 81 731 q 119 836 81 797 q 225 875 158 875 q 331 836 292 875 q 369 731 369 797 q 331 625 369 664 q 225 586 292 586 q 119 625 158 586 q 81 731 81 664 m 75 -44 q 169 -1 133 -36 q 206 86 206 35 q 119 128 151 93 q 88 222 88 164 q 125 324 88 285 q 225 363 163 363 q 338 310 303 363 q 374 178 374 257 q 356 72 374 121 q 306 -17 339 22 q 223 -81 272 -56 q 110 -112 174 -106 l 75 -44 z "},"<":{"ha":626,"x_min":68,"x_max":571,"o":"m 68 460 l 446 1081 l 571 1081 l 336 460 l 571 -162 l 446 -162 l 68 460 z "},"=":{"ha":704,"x_min":68,"x_max":636,"o":"m 68 633 l 636 633 l 636 569 l 68 569 l 68 633 m 68 403 l 636 403 l 636 339 l 68 339 l 68 403 z "},">":{"ha":626,"x_min":56,"x_max":558,"o":"m 290 460 l 56 1081 l 181 1081 l 558 460 l 181 -162 l 56 -162 l 290 460 z "},"?":{"ha":939,"x_min":56,"x_max":883,"o":"m 56 685 q 60 763 56 731 q 76 832 65 796 q 134 935 94 892 q 228 1005 174 978 q 349 1044 282 1032 q 493 1057 417 1057 q 649 1037 578 1057 q 773 981 721 1017 q 854 894 825 944 q 883 786 883 844 q 869 690 883 735 q 831 608 856 646 q 774 536 807 569 q 701 474 740 503 q 633 383 658 442 q 606 267 607 324 l 315 267 q 454 547 311 431 q 510 599 483 571 q 559 658 538 626 q 593 724 581 689 q 606 796 606 758 q 594 885 606 847 q 563 947 582 922 q 520 982 544 971 q 469 993 496 993 q 385 955 418 993 q 342 832 351 917 q 335 764 338 797 q 333 685 333 731 l 56 685 m 289 15 q 335 136 289 90 q 456 182 381 182 q 576 136 531 182 q 621 15 621 90 q 576 -106 621 -60 q 456 -151 531 -151 q 335 -106 381 -151 q 289 15 289 -60 z "},"@":{"ha":1336,"x_min":68,"x_max":1268,"o":"m 1083 -111 q 892 -172 989 -151 q 697 -192 794 -192 q 431 -146 547 -192 q 233 -18 314 -100 q 110 177 153 64 q 68 425 68 290 q 116 681 68 564 q 249 881 164 797 q 450 1010 335 964 q 701 1057 565 1057 q 923 1024 819 1057 q 1103 926 1026 992 q 1224 763 1181 861 q 1268 532 1268 664 q 1244 349 1268 429 q 1176 214 1219 269 q 1072 129 1132 158 q 942 100 1013 100 q 849 122 889 100 q 788 176 808 143 q 708 120 756 140 q 604 100 661 100 q 493 123 539 100 q 417 185 447 146 q 372 277 386 225 q 358 388 358 329 q 381 530 358 460 q 445 654 403 600 q 547 742 488 708 q 682 775 607 775 q 764 751 725 775 q 824 690 803 726 l 838 749 l 1003 749 l 942 425 q 931 363 936 393 q 926 308 926 332 q 933 247 926 271 q 957 224 940 224 q 1010 247 986 224 q 1052 311 1035 271 q 1079 405 1069 351 q 1089 518 1089 458 q 1062 695 1090 618 q 982 826 1033 772 q 858 907 931 879 q 700 935 786 935 q 517 896 599 935 q 376 788 435 857 q 287 626 318 719 q 256 422 256 532 q 286 219 256 310 q 375 65 317 128 q 517 -33 433 1 q 706 -67 600 -67 q 875 -46 785 -67 q 1053 11 965 -25 l 1083 -111 m 628 228 q 689 252 664 228 q 730 315 714 276 q 756 399 746 353 q 769 486 765 444 q 768 544 771 515 q 756 598 765 574 q 731 637 747 622 q 690 651 715 651 q 629 626 656 651 q 585 560 603 600 q 558 474 567 521 q 549 382 549 426 q 552 331 549 358 q 565 281 556 304 q 589 243 574 258 q 628 228 604 228 z "},"A":{"ha":1196,"x_min":42,"x_max":1154,"o":"m 425 1014 l 771 1014 l 1154 -100 l 835 -100 l 792 38 l 404 38 l 361 -100 l 42 -100 l 425 1014 m 729 242 l 599 663 l 467 242 l 729 242 m 772 101 l 749 178 l 447 178 l 424 101 l 772 101 z "},"B":{"ha":1151,"x_min":119,"x_max":1090,"o":"m 119 1014 l 733 1014 q 974 939 885 1014 q 1064 721 1064 864 q 1049 640 1064 679 q 1008 569 1035 601 q 947 511 982 536 q 872 471 913 486 q 959 438 919 460 q 1028 381 999 415 q 1074 300 1057 346 q 1090 194 1090 254 q 1067 59 1090 115 q 1000 -33 1043 3 q 896 -84 957 -68 q 760 -100 835 -100 l 119 -100 l 119 1014 m 568 490 q 659 508 622 490 q 718 558 696 526 q 749 631 740 589 q 758 721 758 672 q 749 812 758 769 q 718 885 740 854 q 659 933 696 915 q 568 950 622 950 l 425 950 l 425 490 l 568 490 m 593 -36 q 685 -22 649 -36 q 743 21 721 -8 q 774 93 765 50 q 783 194 783 136 q 774 297 783 253 q 743 369 765 340 q 685 413 721 399 q 593 426 649 426 l 425 426 l 425 -36 l 593 -36 z "},"C":{"ha":1213,"x_min":56,"x_max":1157,"o":"m 1157 244 q 1107 77 1150 149 q 993 -42 1064 6 q 828 -114 922 -90 q 621 -137 733 -137 q 381 -101 486 -137 q 203 8 275 -65 q 93 194 131 82 q 56 460 56 307 q 93 725 56 613 q 203 911 131 838 q 381 1021 275 985 q 621 1057 486 1057 q 828 1033 733 1057 q 993 962 922 1010 q 1107 842 1064 914 q 1157 675 1150 771 l 840 675 q 822 830 840 768 q 772 928 803 892 q 702 978 742 964 q 621 993 663 993 q 524 970 571 993 q 440 888 476 947 q 383 724 404 828 q 361 460 361 621 q 383 195 361 299 q 440 32 404 92 q 524 -51 476 -28 q 621 -74 571 -74 q 702 -59 663 -74 q 772 -8 742 -44 q 822 89 803 28 q 840 244 840 150 l 1157 244 z "},"D":{"ha":1214,"x_min":119,"x_max":1158,"o":"m 119 1014 l 588 1014 q 831 981 725 1014 q 1010 881 938 949 q 1121 708 1083 814 q 1158 457 1158 603 q 1121 206 1158 311 q 1010 33 1083 100 q 831 -67 938 -35 q 588 -100 725 -100 l 119 -100 l 119 1014 m 588 -49 q 688 -28 640 -49 q 773 48 736 -8 q 831 202 810 104 q 853 457 853 300 q 831 711 853 613 q 773 866 810 810 q 688 942 736 922 q 588 963 640 963 l 425 963 l 425 -49 l 588 -49 z "},"E":{"ha":1006,"x_min":119,"x_max":950,"o":"m 119 1014 l 950 1014 l 950 950 l 425 950 l 425 771 l 950 771 l 950 707 l 425 707 l 425 510 l 950 510 l 950 446 l 425 446 l 425 244 l 950 244 l 950 181 l 425 181 l 425 -36 l 950 -36 l 950 -100 l 119 -100 l 119 1014 z "},"F":{"ha":1004,"x_min":119,"x_max":950,"o":"m 119 1014 l 950 1014 l 950 950 l 425 950 l 425 497 l 924 497 l 924 433 l 425 433 l 425 -100 l 119 -100 l 119 1014 z "},"G":{"ha":1226,"x_min":56,"x_max":1172,"o":"m 613 406 l 1172 406 l 1172 349 q 1135 121 1172 214 q 1027 -29 1097 28 q 856 -112 957 -86 q 626 -137 754 -137 q 203 8 351 -137 q 56 460 56 154 q 203 911 56 765 q 626 1057 351 1057 q 837 1033 740 1057 q 1005 958 933 1008 q 1119 831 1076 908 q 1169 649 1163 754 l 854 649 q 838 824 856 754 q 787 933 819 893 q 713 990 754 974 q 626 1006 671 1006 q 525 981 574 1006 q 440 896 476 957 q 383 729 404 835 q 361 460 361 624 q 383 190 361 296 q 440 23 404 85 q 525 -62 476 -39 q 626 -86 574 -86 q 719 -69 676 -86 q 794 -6 763 -53 q 845 124 826 40 q 864 342 864 207 l 613 342 l 613 406 m 613 547 l 1172 547 l 1172 483 l 613 483 l 613 547 z "},"H":{"ha":1222,"x_min":119,"x_max":1103,"o":"m 119 1014 l 425 1014 l 425 510 l 797 510 l 797 1014 l 1103 1014 l 1103 -100 l 797 -100 l 797 446 l 425 446 l 425 -100 l 119 -100 l 119 1014 z "},"I":{"ha":544,"x_min":119,"x_max":425,"o":"m 119 1014 l 425 1014 l 425 -100 l 119 -100 l 119 1014 z "},"J":{"ha":667,"x_min":28,"x_max":549,"o":"m 28 -86 q 192 -33 143 -86 q 242 128 242 19 l 242 1014 l 549 1014 l 549 192 q 505 39 549 101 q 389 -63 461 -24 q 223 -120 317 -103 q 28 -137 129 -137 l 28 -86 z "},"K":{"ha":1050,"x_min":88,"x_max":1021,"o":"m 88 1014 l 393 1014 l 393 513 l 829 1014 l 957 1014 l 536 506 l 1021 -100 l 804 -100 l 393 417 l 393 -100 l 88 -100 l 88 1014 z "},"L":{"ha":1031,"x_min":119,"x_max":988,"o":"m 119 1014 l 425 1014 l 425 104 l 988 104 l 988 40 l 425 40 l 425 -36 l 988 -36 l 988 -100 l 119 -100 l 119 1014 z "},"M":{"ha":1394,"x_min":119,"x_max":1275,"o":"m 119 1014 l 400 1014 l 697 150 l 994 1014 l 1275 1014 l 1275 -100 l 1007 -100 l 1007 771 l 739 1 l 656 1 l 388 771 l 388 -100 l 119 -100 l 119 1014 z "},"N":{"ha":1196,"x_min":119,"x_max":1078,"o":"m 119 1014 l 425 1014 l 771 101 l 771 1014 l 1078 1014 l 1078 -100 l 771 -100 l 425 813 l 425 -100 l 119 -100 l 119 1014 z "},"O":{"ha":1253,"x_min":56,"x_max":1197,"o":"m 626 -137 q 203 8 351 -137 q 56 460 56 154 q 203 911 56 765 q 626 1057 351 1057 q 1049 911 901 1057 q 1197 460 1197 765 q 1049 8 1197 154 q 626 -137 901 -137 m 626 -74 q 727 -51 679 -74 q 811 33 775 -28 q 869 196 847 93 q 890 460 890 299 q 869 723 890 619 q 811 887 847 826 q 727 970 775 947 q 626 993 679 993 q 525 970 574 993 q 440 887 476 947 q 383 723 404 826 q 361 460 361 619 q 383 196 361 299 q 440 33 404 93 q 525 -51 476 -28 q 626 -74 574 -74 z "},"P":{"ha":1164,"x_min":119,"x_max":1090,"o":"m 119 1014 l 760 1014 q 1001 928 911 1014 q 1090 674 1090 842 q 1001 421 1090 507 q 760 335 911 335 l 425 335 l 425 -100 l 119 -100 l 119 1014 m 593 399 q 685 419 649 399 q 743 475 721 439 q 774 562 765 511 q 783 674 783 613 q 774 787 783 736 q 743 874 765 838 q 685 930 721 910 q 593 950 649 950 l 425 950 l 425 399 l 593 399 z "},"Q":{"ha":1253,"x_min":56,"x_max":1197,"o":"m 706 -135 q 667 -137 686 -137 q 626 -137 647 -137 q 203 8 351 -137 q 56 460 56 154 q 203 911 56 765 q 626 1057 351 1057 q 1049 911 901 1057 q 1197 460 1197 765 q 1142 149 1197 274 q 981 -47 1088 24 l 1142 -312 l 822 -312 l 706 -135 m 626 -86 q 727 -62 679 -86 q 811 23 775 -39 q 869 190 847 85 q 890 460 890 296 q 869 729 890 624 q 811 896 847 835 q 727 981 775 957 q 626 1006 679 1006 q 525 981 574 1006 q 440 896 476 957 q 383 729 404 835 q 361 460 361 624 q 383 190 361 296 q 440 23 404 85 q 525 -62 476 -39 q 626 -86 574 -86 z "},"R":{"ha":1164,"x_min":119,"x_max":1115,"o":"m 119 1014 l 760 1014 q 1001 934 911 1014 q 1090 693 1090 854 q 1039 497 1090 572 q 896 392 988 422 l 1115 -100 l 808 -100 l 597 372 l 425 372 l 425 -100 l 119 -100 l 119 1014 m 593 436 q 685 454 649 436 q 743 506 721 472 q 774 588 765 540 q 783 693 783 635 q 774 799 783 751 q 743 880 765 846 q 685 932 721 914 q 593 950 649 950 l 425 950 l 425 436 l 593 436 z "},"S":{"ha":1107,"x_min":56,"x_max":1051,"o":"m 361 244 l 361 189 q 413 -11 361 51 q 553 -74 464 -74 q 692 -11 640 -74 q 744 192 744 51 q 733 290 744 249 q 697 362 722 332 q 627 412 671 392 q 518 446 583 432 q 348 488 429 465 q 205 548 267 511 q 106 640 143 585 q 69 779 69 696 q 110 903 69 850 q 217 990 150 956 q 370 1040 283 1024 q 551 1057 457 1057 q 754 1035 663 1057 q 912 973 846 1014 q 1014 873 978 932 q 1050 738 1050 814 l 1050 689 l 731 689 l 731 731 q 718 854 731 804 q 683 935 706 904 q 626 980 660 967 q 551 993 593 993 q 483 981 515 993 q 428 942 451 968 q 390 874 404 915 q 376 776 376 833 q 435 603 376 671 q 633 507 494 536 q 799 467 722 488 q 931 411 875 446 q 1019 323 988 376 q 1051 186 1051 269 q 1016 40 1051 101 q 915 -60 981 -21 q 757 -119 849 -100 q 553 -137 665 -137 q 349 -119 440 -137 q 192 -60 257 -100 q 91 42 126 -19 q 56 189 56 103 l 56 244 l 361 244 z "},"T":{"ha":1056,"x_min":42,"x_max":1014,"o":"m 42 1014 l 1014 1014 l 1014 950 l 42 950 l 42 1014 m 375 810 l 42 810 l 42 874 l 1014 874 l 1014 810 l 681 810 l 681 -100 l 375 -100 l 375 810 z "},"U":{"ha":1278,"x_min":119,"x_max":1158,"o":"m 425 1014 l 425 128 q 475 -33 425 19 q 639 -86 525 -86 q 803 -33 754 -86 q 853 128 853 19 l 853 1014 l 1158 1014 l 1158 192 q 1115 39 1158 101 q 1000 -63 1072 -24 q 834 -120 928 -103 q 639 -137 740 -137 q 433 -120 528 -137 q 269 -63 339 -103 q 159 39 199 -24 q 119 192 119 101 l 119 1014 l 425 1014 z "},"V":{"ha":1126,"x_min":42,"x_max":1085,"o":"m 42 1014 l 349 1014 l 644 74 l 957 1014 l 1085 1014 l 710 -100 l 408 -100 l 42 1014 z "},"W":{"ha":1504,"x_min":42,"x_max":1463,"o":"m 42 1014 l 349 1014 l 518 131 l 714 913 l 790 913 l 986 131 l 1156 1014 l 1463 1014 l 1236 -100 l 958 -100 l 753 718 l 547 -100 l 268 -100 l 42 1014 z "},"X":{"ha":1106,"x_min":42,"x_max":1064,"o":"m 440 399 l 51 1014 l 357 1014 l 611 613 l 932 1014 l 1060 1014 l 671 519 l 1064 -100 l 757 -100 l 501 304 l 182 -100 l 42 -100 l 440 399 z "},"Y":{"ha":1108,"x_min":42,"x_max":1067,"o":"m 399 381 l 42 1014 l 349 1014 l 636 489 l 939 1014 l 1067 1014 l 706 372 l 706 -100 l 399 -100 l 399 381 z "},"Z":{"ha":1049,"x_min":69,"x_max":979,"o":"m 69 21 l 644 950 l 103 950 l 103 1014 l 940 1014 l 940 893 l 367 -36 l 979 -36 l 979 -100 l 69 -100 l 69 21 z "},"[":{"ha":601,"x_min":106,"x_max":572,"o":"m 106 1068 l 572 1068 l 572 992 l 413 992 l 413 -86 l 572 -86 l 572 -162 l 106 -162 l 106 1068 z "},"\\":{"ha":696,"x_min":42,"x_max":653,"o":"m 42 1081 l 336 1081 l 653 -162 l 360 -162 l 42 1081 z "},"]":{"ha":601,"x_min":29,"x_max":496,"o":"m 29 -86 l 189 -86 l 189 992 l 29 992 l 29 1068 l 496 1068 l 496 -162 l 29 -162 l 29 -86 z "},"^":{"ha":813,"x_min":42,"x_max":771,"o":"m 299 1068 l 529 1068 l 771 685 l 540 685 l 414 910 l 272 685 l 42 685 l 299 1068 z "},"_":{"ha":704,"x_min":68,"x_max":636,"o":"m 68 -136 l 636 -136 l 636 -212 l 68 -212 l 68 -136 z "},"`":{"ha":600,"x_min":106,"x_max":493,"o":"m 106 1081 l 361 1081 l 493 774 l 301 774 l 106 1081 z "},"a":{"ha":961,"x_min":49,"x_max":892,"o":"m 133 644 q 316 676 221 664 q 507 688 411 688 q 677 677 606 688 q 795 639 749 667 q 864 564 842 611 q 886 444 886 517 l 886 85 q 887 43 886 68 q 888 -9 888 18 q 890 -61 889 -36 q 892 -100 890 -86 l 599 -100 q 594 -74 596 -89 q 592 -49 592 -60 q 488 -96 547 -82 q 369 -110 428 -110 q 132 -47 215 -110 q 49 136 49 15 q 167 358 49 286 q 506 429 285 429 l 592 429 l 592 488 q 589 542 592 518 q 576 583 586 567 q 546 608 565 600 q 493 617 526 617 l 451 617 q 301 603 376 617 q 150 571 225 590 l 133 644 m 592 365 l 569 365 q 470 346 513 365 q 399 294 428 326 q 357 221 371 263 q 343 136 343 179 q 375 17 343 54 q 456 -21 407 -21 q 542 6 504 -21 q 592 78 579 32 l 592 365 z "},"b":{"ha":1065,"x_min":113,"x_max":1017,"o":"m 113 1015 l 407 1015 l 407 603 q 500 665 443 643 q 619 688 557 688 q 913 585 810 688 q 1017 285 1017 483 q 913 -13 1017 92 q 619 -118 808 -118 q 498 -90 553 -118 q 407 -14 443 -62 l 407 -100 l 113 -100 l 113 1015 m 407 75 q 462 -7 424 28 q 543 -42 500 -42 q 624 -16 590 -42 q 681 54 658 10 q 713 158 703 99 q 724 285 724 218 q 713 406 724 347 q 681 510 703 465 q 624 583 658 556 q 543 611 590 611 q 463 588 500 611 q 407 526 426 564 l 407 75 z "},"c":{"ha":1017,"x_min":49,"x_max":968,"o":"m 968 126 q 924 10 963 60 q 824 -72 886 -39 q 681 -121 763 -104 q 508 -137 600 -137 q 169 -37 290 -137 q 49 275 49 64 q 169 586 49 485 q 508 688 290 688 q 681 671 600 688 q 824 622 763 654 q 924 540 886 589 q 968 424 963 490 l 674 424 q 659 525 674 485 q 620 589 644 565 q 567 622 596 613 q 508 632 538 632 q 443 617 474 632 q 390 561 413 601 q 356 451 368 521 q 343 275 343 382 q 356 99 343 168 q 390 -11 368 29 q 443 -67 413 -51 q 508 -82 474 -82 q 567 -72 538 -82 q 620 -39 596 -62 q 659 25 644 -15 q 674 126 674 65 l 968 126 z "},"d":{"ha":1065,"x_min":49,"x_max":953,"o":"m 658 -14 q 567 -90 622 -62 q 446 -118 513 -118 q 153 -13 257 -118 q 49 285 49 92 q 152 585 49 483 q 446 688 256 688 q 565 665 508 688 q 658 603 622 643 l 658 1015 l 953 1015 l 953 -100 l 658 -100 l 658 -14 m 658 526 q 602 588 639 564 q 522 611 565 611 q 441 583 475 611 q 385 510 407 556 q 352 406 363 465 q 342 285 342 347 q 352 158 342 218 q 385 54 363 99 q 441 -16 407 10 q 522 -42 475 -42 q 603 -7 565 -42 q 658 75 642 28 l 658 526 z "},"e":{"ha":1007,"x_min":49,"x_max":958,"o":"m 951 110 q 826 -77 940 -17 q 500 -137 711 -137 q 164 -25 279 -137 q 49 294 49 88 q 166 587 49 486 q 503 688 283 688 q 693 662 608 688 q 837 587 778 636 q 927 464 896 538 q 958 294 958 390 l 958 257 l 343 257 q 381 0 344 82 q 500 -82 417 -82 q 617 -34 576 -82 q 657 110 657 14 l 951 110 m 664 321 q 654 468 664 408 q 625 564 644 528 q 575 616 606 600 q 503 632 544 632 q 431 616 461 632 q 381 564 400 600 q 351 468 361 528 q 342 321 342 408 l 664 321 z "},"f":{"ha":706,"x_min":17,"x_max":689,"o":"m 156 603 l 17 603 l 17 667 l 156 667 l 156 763 q 247 945 156 876 q 504 1014 339 1014 l 689 1014 l 689 950 l 563 950 q 482 913 514 950 q 450 800 450 875 l 450 667 l 663 667 l 663 603 l 450 603 l 450 -100 l 156 -100 l 156 603 z "},"g":{"ha":1046,"x_min":49,"x_max":933,"o":"m 164 -257 q 319 -290 239 -276 q 474 -303 399 -303 q 615 -243 574 -303 q 656 -74 656 -183 q 564 -124 611 -108 q 458 -139 517 -139 q 285 -108 361 -139 q 156 -22 208 -78 q 76 108 104 33 q 49 274 49 183 q 74 439 49 363 q 150 570 99 515 q 277 656 201 625 q 456 688 353 688 q 563 668 514 688 q 639 611 611 649 l 639 667 l 933 667 l 933 -22 q 828 -287 933 -200 q 499 -374 724 -374 q 313 -363 394 -374 q 147 -331 232 -353 l 164 -257 m 639 499 q 628 548 639 525 q 598 588 617 571 q 554 614 579 604 q 501 624 529 624 q 424 593 454 624 q 375 513 393 563 q 350 400 357 463 q 343 274 343 338 q 349 149 343 211 q 372 36 356 86 q 415 -44 388 -14 q 486 -75 443 -75 q 580 -49 536 -75 q 639 29 624 -22 l 639 499 z "},"h":{"ha":1079,"x_min":113,"x_max":999,"o":"m 113 1014 l 407 1014 l 407 606 q 510 668 453 649 q 650 688 568 688 q 908 615 818 688 q 999 388 999 542 l 999 -100 l 704 -100 l 704 404 q 678 562 704 513 q 582 611 653 611 q 488 588 533 611 q 408 517 443 565 l 408 -100 l 114 -100 l 113 1014 z "},"i":{"ha":519,"x_min":100,"x_max":419,"o":"m 100 928 q 144 1038 100 997 q 260 1079 188 1079 q 375 1038 331 1079 q 419 928 419 997 q 375 818 419 860 q 260 776 331 776 q 144 818 188 776 q 100 928 100 860 m 113 667 l 407 667 l 407 -100 l 113 -100 l 113 667 z "},"j":{"ha":606,"x_min":-28,"x_max":507,"o":"m 188 928 q 231 1038 188 997 q 347 1079 275 1079 q 463 1038 418 1079 q 507 928 507 997 q 463 818 507 860 q 347 776 418 776 q 231 818 275 776 q 188 928 188 860 m -28 -321 q 147 -268 93 -321 q 200 -107 200 -215 l 200 667 l 494 667 l 494 -43 q 451 -196 494 -133 q 334 -298 407 -258 q 167 -355 261 -337 q -28 -372 74 -372 l -28 -321 z "},"k":{"ha":961,"x_min":93,"x_max":932,"o":"m 93 1014 l 388 1014 l 388 332 l 740 667 l 856 667 l 508 325 l 932 -100 l 728 -100 l 388 235 l 388 -100 l 93 -100 l 93 1014 z "},"l":{"ha":583,"x_min":113,"x_max":567,"o":"m 390 -100 q 183 -34 254 -100 q 113 136 113 32 l 113 1014 l 407 1014 l 407 61 q 504 -36 407 -36 l 567 -36 l 567 -100 l 390 -100 z "},"m":{"ha":1413,"x_min":113,"x_max":1325,"o":"m 113 667 l 368 667 l 368 579 q 456 658 399 628 q 576 688 513 688 q 708 660 657 688 q 799 569 758 633 q 894 658 842 628 q 1021 688 946 688 q 1158 668 1100 688 q 1252 614 1215 649 q 1307 530 1289 579 q 1325 422 1325 481 l 1325 -100 l 1069 -100 l 1069 432 q 1044 561 1069 522 q 972 600 1018 600 q 883 566 922 600 q 829 475 843 532 l 829 -100 l 611 -100 l 611 432 q 585 561 611 522 q 514 600 560 600 q 421 557 464 600 q 368 436 378 514 l 368 -100 l 113 -100 l 113 667 z "},"n":{"ha":1079,"x_min":113,"x_max":992,"o":"m 113 667 l 407 667 l 407 578 q 507 658 440 628 q 646 688 574 688 q 797 672 732 688 q 905 618 861 656 q 970 517 949 581 q 992 361 992 454 l 992 -100 l 697 -100 l 697 336 q 666 522 697 460 q 550 585 635 585 q 500 574 524 585 q 458 544 476 563 q 426 501 439 525 q 407 450 413 476 l 407 -100 l 113 -100 l 113 667 z "},"o":{"ha":1019,"x_min":49,"x_max":971,"o":"m 49 275 q 169 579 49 471 q 510 688 289 688 q 851 579 731 688 q 971 275 971 471 q 851 -29 971 79 q 510 -137 731 -137 q 169 -29 289 -137 q 49 275 49 79 m 510 -79 q 584 -60 553 -79 q 636 3 615 -40 q 667 113 657 46 q 676 275 676 181 q 636 547 676 464 q 510 629 596 629 q 383 547 424 629 q 343 275 343 464 q 353 113 343 181 q 383 3 363 46 q 435 -60 404 -40 q 510 -79 467 -79 z "},"p":{"ha":1065,"x_min":113,"x_max":1017,"o":"m 113 667 l 407 667 l 407 603 q 500 665 443 643 q 619 688 557 688 q 913 583 810 688 q 1017 275 1017 478 q 913 -29 1017 79 q 619 -137 808 -137 q 498 -110 553 -137 q 407 -33 443 -82 l 407 -372 l 113 -372 l 113 667 m 407 56 q 462 -26 424 8 q 543 -61 500 -61 q 624 -35 590 -61 q 681 38 658 -8 q 713 144 703 83 q 724 275 724 206 q 713 399 724 339 q 681 507 703 460 q 624 583 658 554 q 543 611 590 611 q 463 588 500 611 q 407 526 426 564 l 407 56 z "},"q":{"ha":1065,"x_min":49,"x_max":953,"o":"m 658 -33 q 567 -110 622 -82 q 446 -137 513 -137 q 153 -29 257 -137 q 49 275 49 79 q 152 583 49 478 q 446 688 256 688 q 565 665 508 688 q 658 603 622 643 l 658 667 l 953 667 l 953 -372 l 658 -372 l 658 -33 m 658 526 q 602 588 639 564 q 522 611 565 611 q 441 583 475 611 q 385 507 407 554 q 352 399 363 460 q 342 275 342 339 q 352 144 342 206 q 385 38 363 83 q 441 -35 407 -8 q 522 -61 475 -61 q 603 -26 565 -61 q 658 56 642 8 l 658 526 z "},"r":{"ha":708,"x_min":113,"x_max":692,"o":"m 113 667 l 407 667 l 407 561 q 495 642 446 617 q 615 667 544 667 l 692 667 l 692 603 l 625 603 q 490 547 546 603 q 407 396 435 492 l 407 -100 l 113 -100 l 113 667 z "},"s":{"ha":943,"x_min":49,"x_max":894,"o":"m 343 126 l 343 88 q 378 -41 343 0 q 475 -82 413 -82 q 572 -41 536 -82 q 607 90 607 0 q 599 158 607 129 q 574 208 592 188 q 527 242 557 228 q 451 265 497 256 q 321 295 390 279 q 193 336 251 311 q 97 399 135 361 q 58 496 58 438 q 93 581 58 544 q 185 640 128 617 q 318 676 243 664 q 474 688 393 688 q 642 673 565 688 q 774 630 718 658 q 862 560 831 601 q 893 467 893 519 l 893 433 l 599 433 l 599 463 q 565 594 599 557 q 474 632 532 632 q 389 599 425 632 q 353 493 353 565 q 394 374 353 421 q 531 307 435 328 q 656 280 592 294 q 774 242 721 265 q 860 181 826 218 q 894 86 894 144 q 863 -15 894 28 q 776 -84 832 -57 q 644 -124 721 -111 q 475 -137 567 -137 q 303 -124 382 -137 q 169 -84 225 -111 q 81 -14 113 -57 q 49 88 49 29 l 49 126 l 343 126 z "},"t":{"ha":706,"x_min":17,"x_max":689,"o":"m 503 -100 q 247 -31 338 -100 q 156 151 156 38 l 156 603 l 17 603 l 17 667 l 156 667 l 156 921 l 450 921 l 450 667 l 663 667 l 663 603 l 450 603 l 450 114 q 482 1 450 39 q 563 -36 514 -36 l 689 -36 l 689 -100 l 503 -100 z "},"u":{"ha":1040,"x_min":49,"x_max":928,"o":"m 633 -7 q 591 -63 617 -39 q 533 -104 565 -87 q 466 -129 501 -121 q 394 -137 431 -137 q 243 -122 308 -137 q 135 -67 178 -106 q 70 33 92 -29 q 49 189 49 96 l 49 667 l 343 667 l 343 214 q 374 28 343 90 q 490 -35 404 -35 q 534 -22 511 -35 q 577 11 557 -10 q 613 60 597 32 q 633 121 628 89 l 633 667 l 928 667 l 928 -100 l 633 -100 l 633 -7 z "},"v":{"ha":963,"x_min":28,"x_max":935,"o":"m 28 667 l 310 667 l 567 69 l 831 667 l 935 667 l 604 -100 l 368 -100 l 28 667 z "},"w":{"ha":1308,"x_min":28,"x_max":1281,"o":"m 28 667 l 310 667 l 450 65 l 610 615 l 699 615 l 858 65 l 999 667 l 1281 667 l 1075 -100 l 819 -100 l 654 475 l 489 -100 l 233 -100 l 28 667 z "},"x":{"ha":929,"x_min":28,"x_max":901,"o":"m 361 235 l 28 667 l 310 667 l 511 406 l 743 667 l 858 667 l 567 333 l 901 -100 l 621 -100 l 417 164 l 186 -100 l 65 -100 l 361 235 z "},"y":{"ha":900,"x_min":28,"x_max":872,"o":"m 315 -22 l 28 667 l 132 667 l 367 104 l 592 667 l 872 667 l 457 -374 l 175 -374 l 315 -22 z "},"z":{"ha":878,"x_min":56,"x_max":822,"o":"m 56 -36 l 488 603 l 88 603 l 88 667 l 800 667 l 800 603 l 364 -35 l 822 -36 l 822 -100 l 56 -100 l 56 -36 z "},"{":{"ha":668,"x_min":81,"x_max":600,"o":"m 407 -162 q 327 -147 363 -162 q 267 -105 292 -132 q 228 -40 242 -78 q 215 40 215 -3 l 215 228 q 178 348 215 306 q 81 393 140 390 l 81 525 q 178 569 140 528 q 215 689 215 611 l 215 878 q 228 958 215 921 q 267 1023 242 996 q 327 1065 292 1050 q 407 1081 363 1081 l 600 1081 l 600 1017 l 529 1017 q 484 988 497 1017 q 471 914 471 960 l 471 654 q 445 540 471 592 q 367 460 419 488 l 367 457 q 445 378 419 429 q 471 264 471 326 l 471 4 q 484 -71 471 -43 q 529 -99 497 -99 l 600 -99 l 600 -162 l 407 -162 z "},"|":{"ha":672,"x_min":208,"x_max":464,"o":"m 208 1081 l 464 1081 l 464 -162 l 208 -162 l 208 1081 z "},"}":{"ha":668,"x_min":68,"x_max":588,"o":"m 68 -99 l 139 -99 q 185 -71 171 -99 q 199 4 199 -43 l 199 264 q 224 378 199 326 q 301 457 249 429 l 301 460 q 224 540 249 488 q 199 654 199 592 l 199 914 q 185 988 199 960 q 139 1017 171 1017 l 68 1017 l 68 1081 l 263 1081 q 341 1065 306 1081 q 401 1023 376 1050 q 440 958 426 996 q 454 878 454 921 l 454 689 q 491 569 454 611 q 588 525 528 528 l 588 393 q 491 348 528 390 q 454 228 454 306 l 454 40 q 441 -40 454 -3 q 403 -105 428 -78 q 342 -147 378 -132 q 263 -162 307 -162 l 68 -162 l 68 -99 z "},"~":{"ha":704,"x_min":49,"x_max":656,"o":"m 49 407 q 109 551 58 499 q 238 600 160 604 q 307 581 276 597 q 366 543 338 564 q 423 504 394 522 q 485 483 451 486 q 547 506 522 481 q 576 576 571 532 l 656 564 q 595 420 646 472 q 467 371 544 368 q 392 389 428 372 q 326 426 357 406 q 269 466 296 447 q 219 488 242 485 q 157 466 181 493 q 128 394 133 439 l 49 407 z "},"₩":{"ha":1479,"x_min":143,"x_max":1338,"o":"m 272 385 l 143 385 l 143 449 l 263 449 l 171 1014 l 417 1014 l 503 449 l 615 449 l 710 913 l 771 913 l 863 449 l 975 449 l 1063 1014 l 1307 1014 l 1215 449 l 1338 449 l 1338 385 l 1206 385 l 1126 -100 l 879 -100 l 786 385 l 693 385 l 600 -100 l 351 -100 l 272 385 m 775 449 l 740 628 l 706 449 l 775 449 m 603 385 l 513 385 l 551 131 l 603 385 m 965 385 l 876 385 l 926 131 l 965 385 z "},"©":{"ha":1311,"x_min":36,"x_max":1275,"o":"m 656 -154 q 409 -106 522 -154 q 213 27 296 -57 q 83 225 131 111 q 36 469 36 339 q 83 713 36 600 q 213 910 131 826 q 409 1043 296 994 q 656 1092 522 1092 q 902 1043 789 1092 q 1098 910 1015 994 q 1228 713 1181 826 q 1275 469 1275 600 q 1228 225 1275 339 q 1098 27 1181 111 q 902 -106 1015 -57 q 656 -154 789 -154 m 656 -47 q 859 -5 768 -47 q 1015 109 950 38 q 1115 274 1079 181 q 1150 469 1150 368 q 1115 664 1150 571 q 1015 828 1079 757 q 859 942 950 900 q 656 985 768 985 q 451 942 543 985 q 295 828 360 900 q 196 664 231 757 q 161 469 161 571 q 196 274 161 368 q 295 109 231 181 q 451 -5 360 38 q 656 -47 543 -47 m 975 332 q 945 232 971 275 q 877 160 919 189 q 778 117 835 132 q 653 103 721 103 q 402 190 492 103 q 313 461 313 278 q 402 732 313 644 q 653 819 492 819 q 778 805 721 819 q 877 762 835 790 q 945 690 919 733 q 975 590 971 647 l 785 590 q 775 687 786 649 q 745 748 764 725 q 702 780 726 771 q 653 789 678 789 q 594 774 622 789 q 545 723 567 760 q 510 623 524 686 q 497 461 497 560 q 510 299 497 363 q 545 199 524 236 q 594 148 567 163 q 653 133 622 133 q 702 142 678 133 q 745 174 726 151 q 775 235 764 197 q 785 332 786 274 l 975 332 z "},"　":{"ha":1311,"x_min":0,"x_max":0,"o":""},"ㅤ":{"ha":1311,"x_min":0,"x_max":0,"o":""},"、":{"ha":1311,"x_min":49,"x_max":532,"o":"m 161 172 q 275 106 224 139 q 371 41 326 74 q 454 -24 415 8 q 532 -90 493 -57 l 379 -264 q 305 -175 347 -221 q 217 -86 263 -129 q 128 -6 172 -43 q 49 58 83 32 l 161 172 z "},"。":{"ha":1311,"x_min":104,"x_max":503,"o":"m 104 -42 q 120 33 104 -1 q 163 94 136 68 q 226 134 190 119 q 303 149 263 149 q 380 134 343 149 q 444 94 417 119 q 487 33 471 68 q 503 -42 503 -1 q 487 -117 503 -82 q 444 -177 471 -151 q 380 -217 417 -203 q 303 -232 343 -232 q 226 -217 263 -232 q 163 -177 190 -203 q 120 -117 136 -151 q 104 -42 104 -82 m 224 -42 q 247 -99 224 -78 q 303 -119 269 -119 q 363 -99 342 -119 q 385 -42 385 -78 q 363 15 385 -6 q 303 36 342 36 q 247 15 269 36 q 224 -42 224 -6 z "},"·":{"ha":1107,"x_min":408,"x_max":697,"o":"m 408 354 q 447 461 408 422 q 553 500 486 500 q 658 461 619 500 q 697 354 697 422 q 658 249 697 289 q 553 210 619 210 q 447 249 486 210 q 408 354 408 289 z "},"・":{"ha":1107,"x_min":408,"x_max":697,"o":"m 408 354 q 447 461 408 422 q 553 500 486 500 q 658 461 619 500 q 697 354 697 422 q 658 249 697 289 q 553 210 619 210 q 447 249 486 210 q 408 354 408 289 z "},"‥":{"ha":821,"x_min":81,"x_max":740,"o":"m 81 493 q 119 600 81 561 q 225 639 158 639 q 331 600 292 639 q 369 493 369 561 q 331 388 369 428 q 225 349 292 349 q 119 388 158 349 q 81 493 81 428 m 451 493 q 490 600 451 561 q 596 639 529 639 q 701 600 661 639 q 740 493 740 561 q 701 388 740 428 q 596 349 661 349 q 490 388 529 349 q 451 493 451 428 z "},"…":{"ha":1140,"x_min":81,"x_max":1060,"o":"m 425 493 q 464 600 425 561 q 569 639 503 639 q 675 600 636 639 q 714 493 714 561 q 675 388 714 428 q 569 349 636 349 q 464 388 503 349 q 425 493 425 428 m 771 493 q 810 600 771 561 q 915 639 849 639 q 1020 600 981 639 q 1060 493 1060 561 q 1020 388 1060 428 q 915 349 981 349 q 810 388 849 349 q 771 493 771 428 m 81 493 q 119 600 81 561 q 225 639 158 639 q 331 600 292 639 q 369 493 369 561 q 331 388 369 428 q 225 349 292 349 q 119 388 158 349 q 81 493 81 428 z "},"⋯":{"ha":1140,"x_min":81,"x_max":1060,"o":"m 425 493 q 464 600 425 561 q 569 639 503 639 q 675 600 636 639 q 714 493 714 561 q 675 388 714 428 q 569 349 636 349 q 464 388 503 349 q 425 493 425 428 m 771 493 q 810 600 771 561 q 915 639 849 639 q 1020 600 981 639 q 1060 493 1060 561 q 1020 388 1060 428 q 915 349 981 349 q 810 388 849 349 q 771 493 771 428 m 81 493 q 119 600 81 561 q 225 639 158 639 q 331 600 292 639 q 369 493 369 561 q 331 388 369 428 q 225 349 292 349 q 119 388 158 349 q 81 493 81 428 z "},"¨":{"ha":693,"x_min":81,"x_max":613,"o":"m 81 913 q 108 987 81 960 q 182 1014 136 1014 q 255 987 228 1014 q 282 913 282 960 q 255 839 282 867 q 182 811 228 811 q 108 839 136 811 q 81 913 81 867 m 410 913 q 438 987 410 960 q 511 1014 465 1014 q 585 987 557 1014 q 613 913 613 960 q 585 839 613 867 q 511 811 557 811 q 438 839 465 811 q 410 913 410 867 z "},"〃":{"ha":1311,"x_min":340,"x_max":958,"o":"m 593 721 l 715 642 l 399 228 l 340 264 l 593 721 m 833 706 l 958 624 l 643 217 l 583 256 l 833 706 z "},"­":{"ha":704,"x_min":68,"x_max":636,"o":"m 68 525 l 636 525 l 636 449 l 68 449 l 68 525 z "},"–":{"ha":704,"x_min":68,"x_max":636,"o":"m 68 525 l 636 525 l 636 449 l 68 449 l 68 525 z "},"—":{"ha":1349,"x_min":68,"x_max":1281,"o":"m 68 525 l 1281 525 l 1281 449 l 68 449 l 68 525 z "},"―":{"ha":1349,"x_min":68,"x_max":1281,"o":"m 68 525 l 1281 525 l 1281 449 l 68 449 l 68 525 z "},"∥":{"ha":1389,"x_min":439,"x_max":950,"o":"m 439 1014 l 618 1014 l 618 -392 l 439 -392 l 439 1014 m 771 1014 l 950 1014 l 950 -392 l 771 -392 l 771 1014 z "},"＼":{"ha":1389,"x_min":389,"x_max":1000,"o":"m 389 1081 l 683 1081 l 1000 -162 l 707 -162 l 389 1081 z "},"∼":{"ha":1389,"x_min":392,"x_max":999,"o":"m 392 407 q 452 551 401 499 q 581 600 503 604 q 650 581 619 597 q 709 543 681 564 q 766 504 738 522 q 828 483 794 486 q 890 506 865 481 q 919 576 914 532 l 999 564 q 938 420 989 472 q 810 371 888 368 q 735 389 771 372 q 669 426 700 406 q 612 466 639 447 q 563 488 585 485 q 500 466 524 493 q 471 394 476 439 l 392 407 z "},"〜":{"ha":1389,"x_min":392,"x_max":999,"o":"m 392 407 q 452 551 401 499 q 581 600 503 604 q 650 581 619 597 q 709 543 681 564 q 766 504 738 522 q 828 483 794 486 q 890 506 865 481 q 919 576 914 532 l 999 564 q 938 420 989 472 q 810 371 888 368 q 735 389 771 372 q 669 426 700 406 q 612 466 639 447 q 563 488 585 485 q 500 466 524 493 q 471 394 476 439 l 392 407 z "},"～":{"ha":1389,"x_min":392,"x_max":999,"o":"m 392 407 q 452 551 401 499 q 581 600 503 604 q 650 581 619 597 q 709 543 681 564 q 766 504 738 522 q 828 483 794 486 q 890 506 865 481 q 919 576 914 532 l 999 564 q 938 420 989 472 q 810 371 888 368 q 735 389 771 372 q 669 426 700 406 q 612 466 639 447 q 563 488 585 485 q 500 466 524 493 q 471 394 476 439 l 392 407 z "},"‘":{"ha":463,"x_min":106,"x_max":394,"o":"m 250 1047 q 356 1008 317 1047 q 394 903 394 968 q 356 796 394 835 q 250 757 317 757 q 145 797 185 757 q 106 915 106 838 q 119 1014 106 969 q 157 1094 133 1058 q 230 1176 192 1146 q 325 1214 268 1206 l 349 1158 q 273 1127 304 1154 q 231 1047 242 1100 l 250 1047 z "},"’":{"ha":463,"x_min":68,"x_max":357,"o":"m 114 693 q 190 723 158 696 q 232 804 221 750 l 213 804 q 107 843 146 804 q 68 949 68 882 q 107 1055 68 1015 q 213 1094 146 1094 q 317 1053 278 1094 q 357 935 357 1013 q 343 838 357 882 q 306 757 329 793 q 233 675 271 706 q 138 636 194 644 l 114 693 z "},"“":{"ha":782,"x_min":106,"x_max":714,"o":"m 250 1047 q 356 1008 317 1047 q 394 903 394 968 q 356 796 394 835 q 250 757 317 757 q 145 797 185 757 q 106 915 106 838 q 119 1014 106 969 q 157 1094 133 1058 q 230 1176 192 1146 q 325 1214 268 1206 l 349 1158 q 273 1127 304 1154 q 231 1047 242 1100 l 250 1047 m 569 1047 q 675 1008 636 1047 q 714 903 714 968 q 675 796 714 835 q 569 757 636 757 q 465 797 504 757 q 425 915 425 838 q 439 1014 425 969 q 476 1094 453 1058 q 549 1176 511 1146 q 644 1214 588 1206 l 668 1158 q 592 1127 624 1154 q 550 1047 561 1100 l 569 1047 z "},"”":{"ha":782,"x_min":68,"x_max":676,"o":"m 433 693 q 509 723 478 696 q 551 804 540 750 l 532 804 q 426 843 465 804 q 388 949 388 882 q 426 1055 388 1015 q 532 1094 465 1094 q 637 1053 597 1094 q 676 935 676 1013 q 663 838 676 882 q 625 757 649 793 q 552 675 590 706 q 457 636 514 644 l 433 693 m 114 693 q 190 723 158 696 q 232 804 221 750 l 213 804 q 107 843 146 804 q 68 949 68 882 q 107 1055 68 1015 q 213 1094 146 1094 q 317 1053 278 1094 q 357 935 357 1013 q 343 838 357 882 q 306 757 329 793 q 233 675 271 706 q 138 636 194 644 l 114 693 z "},"〔":{"ha":1311,"x_min":747,"x_max":1243,"o":"m 747 865 l 1110 1146 l 1243 964 l 992 758 l 992 103 l 1243 -103 l 1110 -285 l 747 -4 l 747 865 z "},"〕":{"ha":1311,"x_min":68,"x_max":564,"o":"m 68 -103 l 319 103 l 319 758 l 68 964 l 201 1146 l 564 865 l 564 -4 l 201 -285 l 68 -103 z "},"〈":{"ha":1311,"x_min":658,"x_max":1243,"o":"m 658 453 l 988 1068 l 1243 1068 l 924 453 l 1243 -161 l 988 -161 l 658 453 z "},"〉":{"ha":1311,"x_min":68,"x_max":653,"o":"m 388 453 l 68 1068 l 324 1068 l 653 453 l 324 -161 l 68 -161 l 388 453 z "},"《":{"ha":1311,"x_min":415,"x_max":1243,"o":"m 710 453 l 1039 1068 l 1243 1068 l 924 453 l 1243 -161 l 1039 -161 l 710 453 m 415 453 l 744 1068 l 950 1068 l 631 453 l 950 -161 l 744 -161 l 415 453 z "},"》":{"ha":1311,"x_min":68,"x_max":896,"o":"m 388 453 l 68 1068 l 272 1068 l 601 453 l 272 -161 l 68 -161 l 388 453 m 681 453 l 361 1068 l 567 1068 l 896 453 l 567 -161 l 361 -161 l 681 453 z "},"「":{"ha":1311,"x_min":690,"x_max":1253,"o":"m 690 1104 l 1253 1104 l 1253 924 l 913 924 l 913 406 l 690 406 l 690 1104 z "},"」":{"ha":1311,"x_min":58,"x_max":621,"o":"m 58 -39 l 399 -39 l 399 479 l 621 479 l 621 -219 l 58 -219 l 58 -39 z "},"『":{"ha":1311,"x_min":657,"x_max":1253,"o":"m 657 1106 l 1253 1106 l 1253 803 l 985 803 l 985 389 l 657 389 l 657 1106 m 881 474 l 881 896 l 1163 896 l 1163 1010 l 764 1010 l 764 474 l 881 474 z "},"』":{"ha":1311,"x_min":58,"x_max":654,"o":"m 58 86 l 326 86 l 326 500 l 654 500 l 654 -217 l 58 -217 l 58 86 m 547 -121 l 547 415 l 431 415 l 431 -7 l 149 -7 l 149 -121 l 547 -121 z "},"【":{"ha":1311,"x_min":724,"x_max":1242,"o":"m 724 1068 l 1242 1068 l 1242 1026 q 1019 788 1092 938 q 946 453 946 638 q 1019 119 946 269 q 1242 -119 1092 -31 l 1242 -161 l 724 -161 l 724 1068 z "},"】":{"ha":1311,"x_min":68,"x_max":586,"o":"m 68 -119 q 291 119 218 -31 q 364 453 364 269 q 291 788 364 638 q 68 1026 218 938 l 68 1068 l 586 1068 l 586 -161 l 68 -161 l 68 -119 z "},"±":{"ha":746,"x_min":69,"x_max":676,"o":"m 267 561 l 69 561 l 69 638 l 267 638 l 267 847 l 478 847 l 478 638 l 676 638 l 676 561 l 478 561 l 478 351 l 267 351 l 267 561 m 69 240 l 676 240 l 676 164 l 69 164 l 69 240 z "},"×":{"ha":615,"x_min":56,"x_max":615,"o":"m 246 504 l 56 767 l 235 767 l 336 628 l 436 767 l 615 767 l 425 504 l 615 243 l 435 243 l 336 381 l 236 243 l 56 243 l 246 504 z "},"÷":{"ha":763,"x_min":56,"x_max":707,"o":"m 378 590 q 294 622 325 590 q 264 706 264 653 q 294 791 264 760 q 378 822 325 822 q 462 791 431 822 q 493 706 493 760 q 462 622 493 653 q 378 590 431 590 m 56 533 l 707 533 l 707 469 l 56 469 l 56 533 m 378 171 q 294 203 325 171 q 264 286 264 235 q 294 372 264 340 q 378 403 325 403 q 462 372 431 403 q 493 286 493 340 q 462 203 493 235 q 378 171 431 171 z "},"≠":{"ha":1389,"x_min":347,"x_max":1042,"o":"m 567 339 l 347 339 l 347 403 l 604 403 l 701 569 l 347 569 l 347 633 l 739 633 l 908 925 l 992 925 l 822 633 l 1042 633 l 1042 569 l 785 569 l 688 403 l 1042 403 l 1042 339 l 650 339 l 481 47 l 397 47 l 567 339 z "},"≤":{"ha":1389,"x_min":208,"x_max":1181,"o":"m 208 721 l 1181 1000 l 1181 924 l 364 694 l 1181 401 l 1181 172 l 208 501 l 208 721 m 208 -22 l 1181 -22 l 1181 -86 l 208 -86 l 208 -22 z "},"≥":{"ha":1389,"x_min":208,"x_max":1181,"o":"m 208 401 l 1025 694 l 208 924 l 208 1000 l 1181 721 l 1181 501 l 208 172 l 208 401 m 208 -22 l 1181 -22 l 1181 -86 l 208 -86 l 208 -22 z "},"∞":{"ha":1389,"x_min":50,"x_max":1338,"o":"m 693 322 q 643 265 672 292 q 575 217 614 238 q 488 183 536 196 q 381 171 440 171 q 237 192 299 171 q 133 251 175 214 q 71 340 92 289 q 50 451 50 392 q 71 563 50 511 q 133 651 92 614 q 237 710 175 689 q 381 732 299 732 q 488 719 440 732 q 575 686 536 707 q 643 638 614 665 q 693 581 672 611 q 753 642 718 614 q 831 690 789 669 q 917 721 872 710 q 1004 732 961 732 q 1149 710 1086 732 q 1253 651 1211 689 q 1316 563 1294 614 q 1338 451 1338 511 q 1316 340 1338 392 q 1253 251 1294 289 q 1149 192 1211 214 q 1004 171 1086 171 q 917 182 961 171 q 831 213 872 193 q 753 261 789 233 q 693 322 718 289 m 792 451 q 834 385 811 421 q 883 319 857 350 q 938 267 908 288 q 999 246 967 246 q 1055 263 1031 246 q 1096 310 1079 281 q 1121 376 1113 339 q 1129 451 1129 413 q 1121 527 1129 490 q 1096 593 1113 564 q 1055 640 1079 622 q 999 657 1031 657 q 938 636 967 657 q 883 584 908 615 q 834 517 857 553 q 792 451 811 482 m 594 451 q 548 518 572 482 q 497 585 524 554 q 443 637 471 617 q 386 657 415 657 q 331 640 354 657 q 291 593 307 622 q 267 527 275 564 q 258 451 258 490 q 267 376 258 413 q 291 310 275 339 q 331 263 307 281 q 386 246 354 246 q 443 266 415 246 q 497 317 471 286 q 548 384 524 349 q 594 451 572 419 z "},"∴":{"ha":1389,"x_min":192,"x_max":1197,"o":"m 550 763 q 589 869 550 829 q 694 908 628 908 q 800 869 761 908 q 839 763 839 829 q 800 657 839 696 q 694 618 761 618 q 589 657 628 618 q 550 763 550 696 m 908 142 q 947 249 908 210 q 1053 288 986 288 q 1158 249 1118 288 q 1197 142 1197 210 q 1158 37 1197 76 q 1053 -3 1118 -3 q 947 37 986 -3 q 908 142 908 76 m 192 142 q 231 249 192 210 q 336 288 269 288 q 442 249 403 288 q 481 142 481 210 q 442 37 481 76 q 336 -3 403 -3 q 231 37 269 -3 q 192 142 192 76 z "},"°":{"ha":800,"x_min":200,"x_max":600,"o":"m 200 839 q 216 914 200 879 q 259 974 232 949 q 322 1015 286 1000 q 399 1029 358 1029 q 476 1015 439 1029 q 540 974 513 1000 q 584 914 568 949 q 600 839 600 879 q 584 764 600 799 q 540 703 568 729 q 476 663 513 678 q 399 649 439 649 q 322 663 358 649 q 259 703 286 678 q 216 764 232 729 q 200 839 200 799 m 319 839 q 342 782 319 803 q 399 761 365 761 q 459 782 438 761 q 481 839 481 803 q 459 896 481 875 q 399 917 438 917 q 342 896 365 917 q 319 839 319 875 z "},"′":{"ha":608,"x_min":106,"x_max":503,"o":"m 214 1035 l 503 1035 l 288 776 l 106 776 l 214 1035 z "},"″":{"ha":940,"x_min":106,"x_max":835,"o":"m 214 1035 l 503 1035 l 288 776 l 106 776 l 214 1035 m 546 1035 l 835 1035 l 619 776 l 439 776 l 546 1035 z "},"℃":{"ha":1667,"x_min":106,"x_max":1611,"o":"m 1611 244 q 1562 77 1604 149 q 1449 -42 1519 6 q 1283 -114 1378 -90 q 1076 -137 1189 -137 q 658 8 806 -137 q 510 460 510 154 q 658 911 510 765 q 1076 1057 806 1057 q 1283 1033 1189 1057 q 1449 962 1378 1010 q 1562 842 1519 914 q 1611 675 1604 771 l 1296 675 q 1281 835 1299 771 q 1231 937 1263 899 q 1159 990 1200 975 q 1076 1006 1118 1006 q 978 981 1025 1006 q 896 896 932 957 q 838 729 860 835 q 817 460 817 624 q 838 190 817 296 q 896 23 860 85 q 978 -62 932 -39 q 1076 -86 1025 -86 q 1159 -71 1118 -86 q 1231 -17 1200 -56 q 1281 85 1263 21 q 1296 244 1299 149 l 1611 244 m 106 840 q 122 915 106 881 q 165 976 138 950 q 228 1016 192 1001 q 304 1031 264 1031 q 381 1016 344 1031 q 445 976 418 1001 q 488 915 472 950 q 504 840 504 881 q 488 765 504 800 q 445 705 472 731 q 381 665 418 679 q 304 650 344 650 q 228 665 264 650 q 165 705 192 679 q 122 765 138 731 q 106 840 106 800 m 225 840 q 248 783 225 804 q 304 763 271 763 q 365 783 343 763 q 386 840 386 804 q 365 897 386 876 q 304 918 343 918 q 248 897 271 918 q 225 840 225 876 z "},"Å":{"ha":1196,"x_min":42,"x_max":1154,"o":"m 447 1211 q 460 1271 447 1243 q 494 1319 472 1299 q 543 1351 515 1339 q 603 1363 571 1363 q 663 1351 635 1363 q 714 1319 692 1339 q 749 1271 736 1299 q 761 1211 761 1243 q 749 1151 761 1179 q 714 1103 736 1124 q 663 1070 692 1082 q 603 1058 635 1058 q 543 1070 571 1058 q 494 1103 515 1082 q 460 1151 472 1124 q 447 1211 447 1179 m 551 1211 q 566 1174 551 1188 q 603 1161 581 1161 q 643 1174 629 1161 q 657 1211 657 1188 q 643 1248 657 1235 q 603 1261 629 1261 q 566 1248 581 1261 q 551 1211 551 1235 m 425 1029 l 771 1029 l 1154 -85 l 835 -85 l 792 53 l 404 53 l 361 -85 l 42 -85 l 425 1029 m 729 257 l 599 678 l 467 257 l 729 257 m 772 117 l 749 193 l 447 193 l 424 117 l 772 117 z "},"¢":{"ha":1389,"x_min":342,"x_max":1067,"o":"m 721 -90 q 440 31 539 -65 q 342 292 342 128 q 376 459 342 386 q 473 581 410 532 q 628 656 536 631 q 836 683 719 682 l 893 1068 l 963 1068 l 906 683 l 1067 683 l 1067 619 l 896 619 l 803 -12 q 900 -35 850 -35 l 1067 -35 l 1067 -99 l 846 -99 q 817 -99 831 -99 q 790 -97 804 -99 l 756 -332 l 685 -332 l 721 -90 m 825 608 q 747 563 782 593 q 688 490 713 532 q 649 397 663 449 q 636 292 636 346 q 663 146 636 214 q 739 32 690 78 l 825 608 z "},"￠":{"ha":1389,"x_min":342,"x_max":1067,"o":"m 721 -90 q 440 31 539 -65 q 342 292 342 128 q 376 459 342 386 q 473 581 410 532 q 628 656 536 631 q 836 683 719 682 l 893 1068 l 963 1068 l 906 683 l 1067 683 l 1067 619 l 896 619 l 803 -12 q 900 -35 850 -35 l 1067 -35 l 1067 -99 l 846 -99 q 817 -99 831 -99 q 790 -97 804 -99 l 756 -332 l 685 -332 l 721 -90 m 825 608 q 747 563 782 593 q 688 490 713 532 q 649 397 663 449 q 636 292 636 346 q 663 146 636 214 q 739 32 690 78 l 825 608 z "},"£":{"ha":1389,"x_min":306,"x_max":1090,"o":"m 306 -37 q 397 53 360 -3 q 455 173 435 110 q 478 299 475 236 q 464 411 481 363 l 313 411 l 313 475 l 451 475 q 401 599 419 528 q 383 732 383 669 q 409 853 383 794 q 483 958 435 913 q 599 1030 531 1003 q 750 1057 667 1057 q 915 1037 838 1057 q 1039 988 993 1017 l 1003 924 q 905 974 958 958 q 799 989 851 989 q 731 967 757 989 q 690 911 704 946 q 669 833 675 876 q 664 744 664 789 q 678 606 664 678 q 713 475 692 533 l 938 475 l 938 411 l 729 411 q 749 302 744 360 q 747 186 754 244 q 720 71 739 128 q 669 -36 701 14 l 1090 -36 l 1090 -100 l 306 -100 l 306 -37 z "},"￡":{"ha":1389,"x_min":306,"x_max":1090,"o":"m 306 -37 q 397 53 360 -3 q 455 173 435 110 q 478 299 475 236 q 464 411 481 363 l 313 411 l 313 475 l 451 475 q 401 599 419 528 q 383 732 383 669 q 409 853 383 794 q 483 958 435 913 q 599 1030 531 1003 q 750 1057 667 1057 q 915 1037 838 1057 q 1039 988 993 1017 l 1003 924 q 905 974 958 958 q 799 989 851 989 q 731 967 757 989 q 690 911 704 946 q 669 833 675 876 q 664 744 664 789 q 678 606 664 678 q 713 475 692 533 l 938 475 l 938 411 l 729 411 q 749 302 744 360 q 747 186 754 244 q 720 71 739 128 q 669 -36 701 14 l 1090 -36 l 1090 -100 l 306 -100 l 306 -37 z "},"¥":{"ha":1389,"x_min":181,"x_max":1206,"o":"m 294 192 l 538 192 l 538 308 l 294 308 l 294 372 l 538 372 l 538 381 l 181 1014 l 488 1014 l 775 489 l 1078 1014 l 1206 1014 l 844 372 l 1090 372 l 1090 308 l 844 308 l 844 192 l 1090 192 l 1090 128 l 844 128 l 844 -100 l 538 -100 l 538 128 l 294 128 l 294 192 z "},"￥":{"ha":1389,"x_min":181,"x_max":1206,"o":"m 294 192 l 538 192 l 538 308 l 294 308 l 294 372 l 538 372 l 538 381 l 181 1014 l 488 1014 l 775 489 l 1078 1014 l 1206 1014 l 844 372 l 1090 372 l 1090 308 l 844 308 l 844 192 l 1090 192 l 1090 128 l 844 128 l 844 -100 l 538 -100 l 538 128 l 294 128 l 294 192 z "},"♂":{"ha":1311,"x_min":144,"x_max":1178,"o":"m 901 776 l 667 776 l 667 926 l 1178 926 l 1178 418 l 1026 418 l 1026 644 l 739 358 q 767 287 757 325 q 776 208 776 249 q 751 83 776 142 q 684 -17 726 25 q 584 -85 642 -60 q 461 -110 526 -110 q 338 -85 396 -110 q 238 -17 281 -60 q 169 83 194 25 q 144 208 144 142 q 169 331 144 274 q 238 431 194 388 q 338 498 281 474 q 461 522 396 522 q 608 486 540 522 l 901 776 m 306 208 q 318 148 306 176 q 351 99 331 119 q 401 65 372 78 q 461 53 429 53 q 522 65 493 53 q 571 99 550 78 q 603 148 592 119 q 615 208 615 176 q 603 267 615 239 q 571 315 592 294 q 522 349 550 336 q 461 361 493 361 q 401 349 429 361 q 351 315 372 336 q 318 267 331 294 q 306 208 306 239 z "},"♀":{"ha":1311,"x_min":225,"x_max":1083,"o":"m 225 243 l 554 243 l 554 360 q 469 404 508 375 q 401 472 429 433 q 356 558 372 511 q 340 657 340 606 q 365 781 340 724 q 433 882 390 839 q 533 950 475 925 q 656 975 590 975 q 780 950 722 975 q 880 882 838 925 q 947 781 922 839 q 972 657 972 724 q 956 557 972 604 q 911 471 940 510 q 842 403 882 432 q 756 358 803 374 l 756 243 l 1083 243 l 1083 92 l 756 92 l 756 -107 l 554 -107 l 554 92 l 225 92 l 225 243 m 501 657 q 514 597 501 625 q 547 549 526 569 q 596 516 568 528 q 656 504 624 504 q 717 516 689 504 q 767 549 746 528 q 799 597 788 569 q 811 657 811 625 q 767 768 811 724 q 656 813 722 813 q 596 801 624 813 q 547 768 568 789 q 514 719 526 747 q 501 657 501 690 z "},"∠":{"ha":1389,"x_min":171,"x_max":1282,"o":"m 1282 831 l 1282 575 l 647 138 l 1282 138 l 1282 74 l 171 74 l 1282 831 z "},"⊥":{"ha":1389,"x_min":225,"x_max":1163,"o":"m 225 -44 l 590 -44 l 590 801 l 797 801 l 797 -44 l 1163 -44 l 1163 -108 l 225 -108 l 225 -44 z "},"⌒":{"ha":1389,"x_min":108,"x_max":1282,"o":"m 108 228 q 162 408 119 324 q 278 557 204 493 q 456 658 351 621 q 694 696 560 696 q 933 658 829 696 q 1111 557 1038 621 q 1228 408 1185 493 q 1282 228 1271 324 l 988 228 q 956 424 979 346 q 894 548 932 501 q 807 613 857 594 q 694 632 757 632 q 582 613 632 632 q 494 548 532 594 q 433 424 457 501 q 401 228 410 346 l 108 228 z "},"∂":{"ha":1389,"x_min":192,"x_max":1197,"o":"m 388 961 q 558 1033 465 1010 q 751 1057 650 1057 q 929 1027 847 1057 q 1071 944 1011 997 q 1164 815 1131 890 q 1197 650 1197 740 q 1188 510 1197 592 q 1153 342 1178 429 q 1088 169 1129 254 q 985 15 1047 83 q 837 -95 922 -53 q 639 -137 751 -137 q 441 -110 525 -137 q 301 -33 357 -83 q 219 88 246 17 q 192 247 192 160 q 222 437 192 354 q 310 576 253 519 q 446 660 367 632 q 624 689 525 689 q 699 684 660 689 q 773 670 738 679 q 839 650 808 661 q 889 626 869 639 q 899 769 901 706 q 876 878 896 833 q 817 947 856 922 q 721 971 779 971 q 658 968 693 971 q 583 956 622 965 q 503 927 543 946 q 426 875 463 908 l 388 961 m 619 -74 q 678 -54 650 -74 q 733 9 707 -35 q 784 123 758 53 q 835 296 810 193 q 853 424 853 365 q 835 526 854 483 q 776 594 817 569 q 671 618 735 618 q 542 531 583 618 q 500 261 500 443 q 505 128 500 190 q 524 22 510 67 q 560 -48 538 -22 q 619 -74 583 -74 z "},"∇":{"ha":1389,"x_min":94,"x_max":1294,"o":"m 94 950 l 94 1014 l 1294 1014 l 1294 950 l 844 -100 l 544 -100 l 94 950 m 988 924 l 401 924 l 694 117 l 988 924 z "},"≡":{"ha":1389,"x_min":347,"x_max":1042,"o":"m 347 719 l 1042 719 l 1042 656 l 347 656 l 347 719 m 347 517 l 1042 517 l 1042 453 l 347 453 l 347 517 m 347 314 l 1042 314 l 1042 250 l 347 250 l 347 314 z "},"≒":{"ha":1389,"x_min":347,"x_max":1042,"o":"m 496 689 q 413 720 443 689 q 382 804 382 751 q 413 890 382 858 q 496 921 443 921 q 580 890 549 921 q 611 804 611 858 q 580 720 611 751 q 496 689 549 689 m 347 633 l 1042 633 l 1042 569 l 347 569 l 347 633 m 347 403 l 1042 403 l 1042 339 l 347 339 l 347 403 m 892 51 q 808 83 839 51 q 778 167 778 114 q 808 252 778 221 q 892 283 839 283 q 976 252 944 283 q 1007 167 1007 221 q 976 83 1007 114 q 892 51 944 51 z "},"§":{"ha":890,"x_min":56,"x_max":835,"o":"m 294 118 l 294 75 q 334 -74 294 -33 q 444 -115 374 -115 q 555 -71 514 -115 q 596 76 596 -26 q 588 147 596 117 q 558 198 579 176 q 503 234 538 219 q 417 260 468 249 q 283 293 347 275 q 171 340 219 311 q 94 412 122 368 q 65 521 65 456 q 94 616 65 576 q 175 683 124 656 q 95 756 125 713 q 65 867 65 800 q 97 964 65 922 q 181 1032 128 1006 q 301 1072 233 1058 q 443 1085 369 1085 q 603 1068 531 1085 q 726 1019 675 1051 q 806 941 778 988 q 835 835 835 894 l 835 796 l 583 796 l 583 829 q 547 990 583 944 q 443 1035 510 1035 q 347 994 388 1035 q 307 865 307 954 q 353 729 307 782 q 508 653 399 676 q 638 622 578 638 q 741 578 697 606 q 810 510 785 551 q 835 401 835 468 q 815 302 835 344 q 757 228 794 260 q 814 166 793 203 q 835 72 835 129 q 807 -35 835 10 q 728 -109 779 -81 q 605 -151 676 -137 q 444 -165 533 -165 q 284 -153 356 -165 q 162 -112 213 -140 q 83 -38 111 -85 q 56 75 56 8 l 56 118 l 294 118 m 578 292 q 596 406 596 339 q 588 483 596 450 q 558 539 579 515 q 503 578 538 563 q 417 606 468 594 q 372 616 394 611 q 329 626 350 621 q 307 519 307 585 q 353 383 307 436 q 508 307 399 331 q 544 299 526 303 q 578 292 561 296 z "},"※":{"ha":1389,"x_min":165,"x_max":1224,"o":"m 571 465 l 165 864 l 296 994 l 696 593 l 1097 994 l 1224 864 l 819 465 l 1224 65 l 1097 -65 l 696 338 l 296 -65 l 165 65 l 571 465 m 571 867 q 607 956 571 919 q 696 992 643 992 q 785 956 749 992 q 821 867 821 919 q 785 778 821 815 q 696 742 749 742 q 607 778 643 742 q 571 867 571 815 m 304 339 q 216 376 253 339 q 179 465 179 413 q 216 553 179 517 q 304 590 253 590 q 394 553 357 590 q 431 465 431 517 q 394 376 431 413 q 304 339 357 339 m 958 465 q 995 553 958 517 q 1085 590 1032 590 q 1173 553 1136 590 q 1210 465 1210 517 q 1173 376 1210 413 q 1085 339 1136 339 q 995 376 1032 339 q 958 465 958 413 m 571 63 q 607 151 571 114 q 696 188 643 188 q 785 151 749 188 q 821 63 821 114 q 785 -26 821 10 q 696 -62 749 -62 q 607 -26 643 -62 q 571 63 571 10 z "},"☆":{"ha":1311,"x_min":68,"x_max":1242,"o":"m 419 314 l 68 578 l 508 578 l 649 999 l 793 578 l 1242 578 l 876 307 l 1029 -131 l 649 151 l 281 -119 l 419 314 m 649 274 l 849 121 l 761 347 l 967 490 l 717 490 l 651 714 l 585 490 l 339 490 l 539 349 l 451 125 l 649 274 z "},"★":{"ha":1311,"x_min":68,"x_max":1242,"o":"m 419 314 l 68 578 l 508 578 l 649 999 l 793 578 l 1242 578 l 876 307 l 1029 -131 l 649 151 l 281 -119 l 419 314 z "},"○":{"ha":1389,"x_min":144,"x_max":1244,"o":"m 144 432 q 188 644 144 544 q 307 819 232 744 q 482 938 382 894 q 694 981 582 981 q 907 938 807 981 q 1082 819 1007 894 q 1201 644 1157 744 q 1244 432 1244 544 q 1201 219 1244 319 q 1082 44 1157 119 q 907 -74 1007 -31 q 694 -117 807 -117 q 482 -74 582 -117 q 307 44 382 -31 q 188 219 232 119 q 144 432 144 319 m 694 -12 q 862 24 783 -12 q 1000 120 940 60 q 1094 261 1060 181 q 1129 432 1129 342 q 1094 602 1129 521 q 1000 744 1060 683 q 862 840 940 804 q 694 876 783 876 q 526 840 606 876 q 388 744 447 804 q 294 602 329 683 q 260 432 260 521 q 294 261 260 342 q 388 120 329 181 q 526 24 447 60 q 694 -12 606 -12 z "},"●":{"ha":1389,"x_min":144,"x_max":1244,"o":"m 144 432 q 188 644 144 544 q 307 819 232 744 q 482 938 382 894 q 694 981 582 981 q 907 938 807 981 q 1082 819 1007 894 q 1201 644 1157 744 q 1244 432 1244 544 q 1201 219 1244 319 q 1082 44 1157 119 q 907 -74 1007 -31 q 694 -117 807 -117 q 482 -74 582 -117 q 307 44 382 -31 q 188 219 232 119 q 144 432 144 319 z "},"◎":{"ha":1389,"x_min":144,"x_max":1244,"o":"m 144 432 q 188 644 144 544 q 307 819 232 744 q 482 938 382 894 q 694 981 582 981 q 907 938 807 981 q 1082 819 1007 894 q 1201 644 1157 744 q 1244 432 1244 544 q 1201 219 1244 319 q 1082 44 1157 119 q 907 -74 1007 -31 q 694 -117 807 -117 q 482 -74 582 -117 q 307 44 382 -31 q 188 219 232 119 q 144 432 144 319 m 694 -12 q 862 24 783 -12 q 1000 120 940 60 q 1094 261 1060 181 q 1129 432 1129 342 q 1094 602 1129 521 q 1000 744 1060 683 q 862 840 940 804 q 694 876 783 876 q 526 840 606 876 q 388 744 447 804 q 294 602 329 683 q 260 432 260 521 q 294 261 260 342 q 388 120 329 181 q 526 24 447 60 q 694 -12 606 -12 m 358 432 q 385 564 358 503 q 457 670 411 625 q 564 741 503 715 q 694 767 625 767 q 825 741 764 767 q 932 670 886 715 q 1004 564 978 625 q 1031 432 1031 503 q 1004 300 1031 361 q 932 194 978 239 q 825 123 886 149 q 694 97 764 97 q 564 123 625 97 q 457 194 503 149 q 385 300 411 239 q 358 432 358 361 m 694 192 q 785 210 743 192 q 859 262 828 229 q 908 338 890 294 q 926 432 926 382 q 908 526 926 482 q 859 602 890 569 q 785 654 828 635 q 694 674 743 674 q 603 654 646 674 q 530 602 561 635 q 481 526 499 569 q 463 432 463 482 q 481 338 463 382 q 530 262 499 294 q 603 210 561 229 q 694 192 646 192 z "},"◇":{"ha":1389,"x_min":49,"x_max":1340,"o":"m 696 1082 l 1340 438 l 693 -210 l 49 435 l 696 1082 m 1199 438 l 696 942 l 190 438 l 694 -67 l 1199 438 z "},"◆":{"ha":1389,"x_min":49,"x_max":1340,"o":"m 696 1082 l 1340 438 l 693 -210 l 49 435 l 696 1082 z "},"□":{"ha":1389,"x_min":153,"x_max":1236,"o":"m 153 972 l 1236 972 l 1236 -110 l 153 -110 l 153 972 m 1121 -4 l 1121 867 l 268 867 l 268 -4 l 1121 -4 z "},"■":{"ha":1389,"x_min":153,"x_max":1236,"o":"m 153 972 l 1236 972 l 1236 -110 l 153 -110 l 153 972 z "},"△":{"ha":1389,"x_min":82,"x_max":1307,"o":"m 694 997 l 1307 -56 l 82 -56 l 694 997 m 1122 50 l 694 794 l 267 50 l 1122 50 z "},"▲":{"ha":1389,"x_min":82,"x_max":1307,"o":"m 694 997 l 1307 -56 l 82 -56 l 694 997 z "},"▽":{"ha":1389,"x_min":82,"x_max":1307,"o":"m 82 917 l 1307 917 l 694 -136 l 82 917 m 1122 811 l 267 811 l 694 67 l 1122 811 z "},"▼":{"ha":1389,"x_min":82,"x_max":1307,"o":"m 82 917 l 1307 917 l 694 -136 l 82 917 z "},"→":{"ha":1389,"x_min":94,"x_max":1294,"o":"m 94 511 l 985 511 l 838 672 l 892 736 l 1294 454 l 892 171 l 838 235 l 985 396 l 94 396 l 94 511 z "},"←":{"ha":1389,"x_min":94,"x_max":1294,"o":"m 497 736 l 551 672 l 404 511 l 1294 511 l 1294 396 l 404 396 l 551 235 l 497 171 l 94 454 l 497 736 z "},"↑":{"ha":1389,"x_min":413,"x_max":976,"o":"m 638 719 l 476 572 l 413 626 l 694 1029 l 976 626 l 913 572 l 751 719 l 751 -103 l 638 -103 l 638 719 z "},"↓":{"ha":1389,"x_min":413,"x_max":976,"o":"m 413 301 l 476 354 l 638 208 l 638 1029 l 751 1029 l 751 208 l 913 354 l 976 301 l 694 -103 l 413 301 z "},"↔":{"ha":1389,"x_min":94,"x_max":1294,"o":"m 497 736 l 551 672 l 404 511 l 985 511 l 838 672 l 892 736 l 1294 454 l 892 171 l 838 235 l 985 396 l 404 396 l 551 235 l 497 171 l 94 454 l 497 736 z "},"〓":{"ha":1311,"x_min":93,"x_max":1218,"o":"m 93 574 l 1218 574 l 1218 510 l 93 510 l 93 574 m 93 356 l 1218 356 l 1218 292 l 93 292 l 93 356 z "},"«":{"ha":1389,"x_min":135,"x_max":1254,"o":"m 697 590 l 1254 869 l 1254 793 l 789 551 l 1254 271 l 1254 42 l 697 371 l 697 590 m 135 590 l 692 869 l 692 793 l 226 551 l 692 271 l 692 42 l 135 371 l 135 590 z "},"≪":{"ha":1389,"x_min":135,"x_max":1254,"o":"m 697 590 l 1254 869 l 1254 793 l 789 551 l 1254 271 l 1254 42 l 697 371 l 697 590 m 135 590 l 692 869 l 692 793 l 226 551 l 692 271 l 692 42 l 135 371 l 135 590 z "},"»":{"ha":1389,"x_min":135,"x_max":1254,"o":"m 135 271 l 600 551 l 135 793 l 135 869 l 692 590 l 692 371 l 135 42 l 135 271 m 697 271 l 1163 551 l 697 793 l 697 869 l 1254 590 l 1254 371 l 697 42 l 697 271 z "},"≫":{"ha":1389,"x_min":135,"x_max":1254,"o":"m 135 271 l 600 551 l 135 793 l 135 869 l 692 590 l 692 371 l 135 42 l 135 271 m 697 271 l 1163 551 l 697 793 l 697 869 l 1254 590 l 1254 371 l 697 42 l 697 271 z "},"√":{"ha":1389,"x_min":144,"x_max":1244,"o":"m 335 343 l 144 343 l 144 407 l 543 407 l 671 29 l 1164 1021 l 1244 1021 l 635 -210 l 535 -210 l 335 343 z "},"∽":{"ha":1389,"x_min":53,"x_max":1336,"o":"m 507 594 q 439 644 468 631 q 390 657 410 657 q 334 640 358 657 q 293 593 310 622 q 268 527 276 564 q 260 451 260 490 q 268 376 260 413 q 293 310 276 339 q 334 263 310 281 q 390 246 358 246 q 447 268 418 246 q 508 326 476 290 q 571 410 539 363 q 635 506 603 457 q 704 602 669 560 q 781 673 739 644 q 876 717 824 701 q 1003 732 929 732 q 1146 710 1083 732 q 1251 651 1208 689 q 1315 563 1293 614 q 1336 451 1336 511 q 1315 340 1336 392 q 1251 251 1293 289 q 1146 192 1208 214 q 1003 171 1083 171 q 902 181 951 171 q 814 218 853 192 l 881 308 q 949 259 919 272 q 997 246 978 246 q 1053 263 1029 246 q 1094 310 1078 281 q 1119 376 1111 339 q 1128 451 1128 413 q 1119 527 1128 490 q 1094 593 1111 564 q 1053 640 1078 622 q 997 657 1029 657 q 944 637 972 657 q 888 583 917 617 q 829 507 858 550 q 771 418 800 464 q 697 317 735 363 q 614 240 660 272 q 513 189 568 207 q 385 171 457 171 q 241 192 303 171 q 138 251 179 214 q 74 340 96 289 q 53 451 53 392 q 74 563 53 511 q 138 651 96 614 q 241 710 179 689 q 385 732 303 732 q 438 730 410 732 q 492 722 465 728 q 540 708 518 717 q 576 688 561 700 l 507 594 z "},"∝":{"ha":1389,"x_min":128,"x_max":1261,"o":"m 1261 217 q 1157 181 1206 189 q 1056 172 1108 172 q 900 210 979 172 q 769 315 821 249 q 714 257 747 283 q 640 211 681 231 q 552 181 599 192 q 457 171 506 171 q 316 192 378 171 q 213 251 254 214 q 149 340 171 289 q 128 451 128 392 q 149 563 128 511 q 213 651 171 614 q 316 710 254 689 q 457 732 378 732 q 552 722 506 732 q 640 692 599 711 q 714 646 681 672 q 769 588 747 619 q 900 692 821 654 q 1056 731 979 731 q 1157 722 1108 731 q 1261 686 1206 714 l 1219 611 q 1129 648 1164 639 q 1071 657 1094 657 q 1016 638 1043 657 q 963 590 989 619 q 915 523 938 560 q 876 451 893 486 q 915 379 893 415 q 963 313 938 343 q 1016 265 989 283 q 1071 246 1043 246 q 1129 255 1094 246 q 1219 292 1164 264 l 1261 217 m 664 451 q 625 519 646 483 q 579 586 604 556 q 525 637 554 617 q 463 657 496 657 q 407 640 431 657 q 368 593 383 622 q 344 527 353 564 q 336 451 336 490 q 344 376 336 413 q 368 310 353 339 q 407 263 383 281 q 463 246 431 246 q 525 266 496 246 q 579 317 554 286 q 625 383 604 347 q 664 451 646 419 m 782 569 l 781 569 l 782 568 l 782 569 m 782 333 l 782 335 l 781 333 l 782 333 z "},"∵":{"ha":1389,"x_min":192,"x_max":1197,"o":"m 1053 618 q 947 657 986 618 q 908 764 908 696 q 947 869 908 829 q 1053 908 986 908 q 1158 869 1118 908 q 1197 764 1197 829 q 1158 657 1197 696 q 1053 618 1118 618 m 336 618 q 231 657 269 618 q 192 764 192 696 q 231 869 192 829 q 336 908 269 908 q 442 869 403 908 q 481 764 481 829 q 442 657 481 696 q 336 618 403 618 m 694 -3 q 589 37 628 -3 q 550 143 550 76 q 589 249 550 210 q 694 288 628 288 q 800 249 761 288 q 839 143 839 210 q 800 37 839 76 q 694 -3 761 -3 z "},"∫":{"ha":1389,"x_min":414,"x_max":975,"o":"m 415 -51 q 442 -56 426 -54 q 464 -57 457 -57 q 507 -47 490 -57 q 533 -18 524 -36 q 547 24 543 0 q 553 75 550 49 l 604 860 q 623 925 606 894 q 674 978 640 956 q 758 1015 708 1001 q 878 1028 808 1028 q 937 1026 911 1028 q 975 1022 963 1025 l 974 958 q 947 961 963 961 q 925 961 932 961 q 881 951 897 961 q 855 922 864 940 q 842 881 846 904 q 836 832 838 858 l 785 47 q 715 -74 781 -26 q 511 -122 649 -122 q 452 -120 478 -122 q 414 -115 426 -118 l 415 -51 z "},"∬":{"ha":1389,"x_min":208,"x_max":1181,"o":"m 619 -51 q 647 -56 632 -54 q 669 -57 663 -57 q 712 -47 696 -57 q 738 -18 728 -36 q 751 24 747 0 q 757 75 754 49 l 808 860 q 827 925 810 894 q 878 978 844 956 q 963 1015 913 1001 q 1083 1028 1014 1028 q 1141 1026 1115 1028 q 1181 1022 1167 1025 l 1179 958 q 1151 961 1167 961 q 1129 961 1136 961 q 1085 951 1101 961 q 1059 922 1068 940 q 1046 881 1050 904 q 1040 832 1042 858 l 990 47 q 919 -74 985 -26 q 715 -122 853 -122 q 657 -120 682 -122 q 618 -115 632 -118 l 619 -51 m 210 -51 q 238 -56 222 -54 q 260 -57 253 -57 q 303 -47 286 -57 q 329 -18 319 -36 q 342 24 339 0 q 349 75 346 49 l 399 860 q 419 925 401 894 q 470 978 436 956 q 554 1015 504 1001 q 674 1028 604 1028 q 732 1026 707 1028 q 771 1022 757 1025 l 769 958 q 742 961 757 961 q 719 961 726 961 q 676 951 692 961 q 651 922 660 940 q 638 881 642 904 q 632 832 633 858 l 581 47 q 510 -75 576 -28 q 306 -122 444 -122 q 248 -120 274 -122 q 208 -115 222 -118 l 210 -51 z "},"∈":{"ha":1389,"x_min":117,"x_max":1271,"o":"m 1257 483 l 1257 419 l 422 419 q 446 271 422 326 q 510 185 469 215 q 605 147 551 156 q 718 138 658 138 l 1271 138 l 1271 74 l 554 74 q 356 102 439 74 q 219 181 272 131 q 142 301 167 232 q 117 451 117 369 q 142 601 117 532 q 219 722 167 671 q 356 801 272 772 q 554 829 439 829 l 1271 829 l 1271 765 l 718 765 q 605 756 658 765 q 510 718 551 747 q 446 633 469 689 q 422 483 422 578 l 1257 483 z "},"∋":{"ha":1389,"x_min":118,"x_max":1272,"o":"m 118 138 l 671 138 q 784 147 731 138 q 878 185 838 156 q 943 271 919 215 q 967 419 967 326 l 132 419 l 132 483 l 967 483 q 943 633 967 578 q 878 718 919 689 q 784 756 838 747 q 671 765 731 765 l 118 765 l 118 829 l 835 829 q 1033 801 950 829 q 1169 722 1115 772 q 1247 601 1222 671 q 1272 451 1272 532 q 1247 301 1272 369 q 1169 181 1222 232 q 1033 102 1115 131 q 835 74 950 74 l 118 74 l 118 138 z "},"⊆":{"ha":1389,"x_min":208,"x_max":1181,"o":"m 646 192 q 320 288 432 192 q 208 588 208 383 q 233 763 208 689 q 311 886 258 838 q 447 958 364 935 q 646 982 531 982 l 1181 982 l 1181 918 l 810 918 q 697 904 750 918 q 602 853 643 890 q 538 751 561 815 q 514 588 514 688 q 538 424 514 488 q 602 322 561 360 q 697 270 643 285 q 810 256 750 256 l 1181 256 l 1181 192 l 646 192 m 208 -22 l 1181 -22 l 1181 -86 l 208 -86 l 208 -22 z "},"⊇":{"ha":1389,"x_min":208,"x_max":1181,"o":"m 208 256 l 579 256 q 692 270 639 256 q 787 322 746 285 q 851 424 828 360 q 875 588 875 488 q 851 751 875 688 q 787 853 828 815 q 692 904 746 890 q 579 918 639 918 l 208 918 l 208 982 l 743 982 q 1077 885 974 982 q 1181 588 1181 789 q 1069 288 1181 383 q 743 192 957 192 l 208 192 l 208 256 m 208 -22 l 1181 -22 l 1181 -86 l 208 -86 l 208 -22 z "},"⊂":{"ha":1389,"x_min":117,"x_max":1271,"o":"m 554 74 q 356 102 439 74 q 219 181 272 131 q 142 301 167 232 q 117 451 117 369 q 142 601 117 532 q 219 722 167 671 q 356 801 272 772 q 554 829 439 829 l 1271 829 l 1271 765 l 718 765 q 605 751 658 765 q 510 702 551 738 q 446 606 469 667 q 422 451 422 546 q 446 297 422 358 q 510 201 469 236 q 605 151 551 165 q 718 138 658 138 l 1271 138 l 1271 74 l 554 74 z "},"⊃":{"ha":1389,"x_min":118,"x_max":1272,"o":"m 118 138 l 671 138 q 784 151 731 138 q 878 201 838 165 q 943 297 919 236 q 967 451 967 358 q 943 606 967 546 q 878 702 919 667 q 784 751 838 738 q 671 765 731 765 l 118 765 l 118 829 l 835 829 q 1033 801 950 829 q 1169 722 1115 772 q 1247 601 1222 671 q 1272 451 1272 532 q 1247 301 1272 369 q 1169 181 1222 232 q 1033 102 1115 131 q 835 74 950 74 l 118 74 l 118 138 z "},"∪":{"ha":1389,"x_min":250,"x_max":1139,"o":"m 508 801 l 508 281 q 524 117 508 183 q 565 8 539 50 q 624 -52 590 -33 q 694 -71 657 -71 q 765 -52 732 -71 q 824 8 799 -33 q 865 117 850 50 q 881 281 881 183 l 881 801 l 1139 801 l 1139 238 q 1024 -38 1139 58 q 694 -135 910 -135 q 365 -38 479 -135 q 250 238 250 58 l 250 801 l 508 801 z "},"∩":{"ha":1389,"x_min":250,"x_max":1139,"o":"m 250 457 q 365 732 250 636 q 694 828 479 828 q 1024 732 910 828 q 1139 457 1139 636 l 1139 -107 l 881 -107 l 881 413 q 865 577 881 510 q 824 686 850 644 q 765 746 799 728 q 694 764 732 764 q 624 746 657 764 q 565 686 590 728 q 524 577 539 644 q 508 413 508 510 l 508 -107 l 250 -107 l 250 457 z "},"∧":{"ha":1389,"x_min":240,"x_max":1149,"o":"m 581 801 l 817 801 l 1149 -108 l 1033 -108 l 775 614 l 522 -108 l 240 -108 l 581 801 z "},"∨":{"ha":1389,"x_min":240,"x_max":1149,"o":"m 240 801 l 522 801 l 775 79 l 1033 801 l 1149 801 l 817 -108 l 581 -108 l 240 801 z "},"¬":{"ha":1389,"x_min":226,"x_max":1163,"o":"m 226 514 l 1163 514 l 1163 29 l 944 29 l 944 450 l 226 450 l 226 514 z "},"￢":{"ha":1389,"x_min":226,"x_max":1163,"o":"m 226 514 l 1163 514 l 1163 29 l 944 29 l 944 450 l 226 450 l 226 514 z "},"⇒":{"ha":1389,"x_min":94,"x_max":1294,"o":"m 94 321 l 1010 321 l 1142 460 l 1006 601 l 94 601 l 94 715 l 897 715 l 811 807 l 904 876 l 1294 460 l 904 42 l 811 111 l 900 206 l 94 206 l 94 321 z "},"⇔":{"ha":1389,"x_min":94,"x_max":1294,"o":"m 94 460 l 485 876 l 578 807 l 492 715 l 897 715 l 811 807 l 904 876 l 1294 460 l 904 42 l 811 111 l 900 206 l 489 206 l 578 111 l 485 42 l 94 460 m 1010 321 l 1142 460 l 1006 601 l 383 601 l 247 460 l 379 321 l 1010 321 z "},"∀":{"ha":1389,"x_min":118,"x_max":1271,"o":"m 118 929 l 367 1014 l 522 663 l 867 663 l 1022 1014 l 1271 929 l 821 -100 l 568 -100 l 118 929 m 844 606 l 544 606 l 694 260 l 844 606 z "},"∃":{"ha":1389,"x_min":279,"x_max":1110,"o":"m 279 -36 l 803 -36 l 803 446 l 279 446 l 279 510 l 803 510 l 803 950 l 279 950 l 279 1014 l 1110 1014 l 1110 -100 l 279 -100 l 279 -36 z "},"´":{"ha":532,"x_min":106,"x_max":515,"o":"m 226 1014 l 515 1014 l 275 807 l 106 807 l 226 1014 z "},"˜":{"ha":1389,"x_min":453,"x_max":936,"o":"m 453 807 q 501 951 460 899 q 604 1000 542 1004 q 659 981 635 997 q 706 943 683 964 q 751 904 729 922 q 800 883 774 886 q 850 906 831 881 q 874 976 869 932 l 936 964 q 889 820 929 872 q 786 771 849 768 q 726 789 754 772 q 674 826 699 806 q 628 866 650 847 q 589 888 607 885 q 539 866 558 893 q 515 794 519 839 l 453 807 z "},"ˇ":{"ha":675,"x_min":56,"x_max":619,"o":"m 56 1014 l 226 1014 l 338 858 l 449 1014 l 619 1014 l 447 797 l 228 797 l 56 1014 z "},"˘":{"ha":706,"x_min":81,"x_max":625,"o":"m 260 1014 q 281 900 263 932 q 353 868 299 868 q 425 900 407 868 q 446 1014 443 932 l 625 1014 q 613 929 625 968 q 570 863 601 890 q 486 819 539 835 q 353 804 433 804 q 219 819 271 804 q 135 863 167 835 q 92 928 104 890 q 81 1014 81 967 l 260 1014 z "},"˝":{"ha":864,"x_min":106,"x_max":847,"o":"m 226 1014 l 515 1014 l 275 807 l 106 807 l 226 1014 m 558 1014 l 847 1014 l 607 807 l 439 807 l 558 1014 z "},"˚":{"ha":800,"x_min":243,"x_max":557,"o":"m 243 917 q 256 976 243 949 q 290 1025 268 1004 q 339 1058 311 1046 q 399 1069 367 1069 q 459 1058 431 1069 q 510 1025 488 1046 q 544 976 532 1004 q 557 917 557 949 q 544 857 557 885 q 510 809 532 829 q 459 777 488 789 q 399 765 431 765 q 339 777 367 765 q 290 809 311 789 q 256 857 268 829 q 243 917 243 885 m 347 917 q 362 880 347 893 q 399 867 376 867 q 439 880 425 867 q 453 917 453 893 q 439 953 453 940 q 399 967 425 967 q 362 953 376 967 q 347 917 347 940 z "},"˙":{"ha":800,"x_min":299,"x_max":501,"o":"m 299 913 q 326 987 299 960 q 400 1014 354 1014 q 474 987 446 1014 q 501 913 501 960 q 474 839 501 867 q 400 811 446 811 q 326 839 354 811 q 299 913 299 867 z "},"¸":{"ha":447,"x_min":49,"x_max":397,"o":"m 69 -324 q 117 -339 88 -332 q 174 -346 147 -346 q 224 -328 206 -346 q 242 -271 242 -311 q 223 -215 242 -231 q 181 -200 204 -200 q 153 -201 168 -200 q 124 -206 139 -203 l 124 -157 l 181 -61 l 319 -61 l 239 -143 q 301 -156 272 -146 q 351 -183 329 -165 q 385 -225 372 -200 q 397 -283 397 -250 q 348 -373 397 -339 q 197 -407 299 -407 q 116 -398 156 -407 q 49 -374 76 -389 l 69 -324 z "},"˛":{"ha":410,"x_min":93,"x_max":368,"o":"m 249 -139 q 242 -169 246 -151 q 233 -203 238 -186 q 226 -235 229 -221 q 224 -258 224 -250 q 241 -314 224 -296 q 290 -332 258 -332 q 324 -328 303 -332 q 368 -317 344 -324 l 368 -381 q 299 -400 332 -393 q 242 -407 267 -407 q 134 -372 175 -407 q 93 -275 93 -337 q 101 -215 93 -247 q 121 -139 108 -182 l 249 -139 z "},"¡":{"ha":506,"x_min":88,"x_max":419,"o":"m 88 513 q 133 633 88 588 q 254 679 179 679 q 374 633 329 679 q 419 513 419 588 q 374 392 419 438 q 254 346 329 346 q 133 392 179 346 q 88 513 88 438 m 104 260 l 394 260 l 411 -514 l 88 -514 l 104 260 z "},"¿":{"ha":939,"x_min":56,"x_max":883,"o":"m 483 346 q 363 392 408 346 q 318 513 318 438 q 363 633 318 588 q 483 679 408 679 q 604 633 558 679 q 650 513 650 588 q 604 392 650 438 q 483 346 558 346 m 883 -157 q 878 -235 883 -203 q 863 -304 874 -268 q 804 -408 843 -365 q 711 -477 765 -450 q 590 -517 657 -504 q 446 -529 522 -529 q 290 -509 361 -529 q 166 -453 218 -489 q 85 -367 114 -417 q 56 -258 56 -317 q 69 -162 56 -207 q 108 -80 83 -118 q 165 -8 132 -42 q 238 54 199 25 q 306 145 281 86 q 333 261 332 204 l 624 261 q 485 -19 628 97 q 428 -71 456 -43 q 380 -130 401 -99 q 346 -196 358 -161 q 333 -268 333 -231 q 345 -358 333 -321 q 376 -419 357 -394 q 419 -454 394 -443 q 469 -465 443 -465 q 554 -427 521 -465 q 597 -304 588 -389 q 603 -236 601 -269 q 606 -157 606 -203 l 883 -157 z "},"ː":{"ha":489,"x_min":56,"x_max":433,"o":"m 56 865 l 433 865 l 251 572 l 56 865 m 251 367 l 433 75 l 56 75 l 251 367 z "},"∶":{"ha":489,"x_min":56,"x_max":433,"o":"m 56 865 l 433 865 l 251 572 l 56 865 m 251 367 l 433 75 l 56 75 l 251 367 z "},"∮":{"ha":1389,"x_min":233,"x_max":1156,"o":"m 407 -51 q 435 -56 419 -54 q 457 -57 450 -57 q 500 -47 483 -57 q 526 -18 517 -36 q 539 24 535 0 q 544 75 543 49 l 554 217 q 316 299 399 236 q 233 461 233 363 q 324 628 233 564 q 586 708 415 693 l 596 860 q 616 925 599 894 q 667 978 633 956 q 751 1015 700 1001 q 871 1028 801 1028 q 928 1026 903 1028 q 968 1022 954 1025 l 967 958 q 939 961 954 961 q 917 961 924 961 q 873 951 889 961 q 847 922 857 940 q 834 881 838 904 q 829 832 831 858 l 821 706 q 1069 624 983 688 q 1156 461 1156 561 q 1061 292 1156 357 q 789 213 967 226 l 778 47 q 706 -74 772 -26 q 503 -122 640 -122 q 445 -120 471 -122 q 406 -115 419 -118 l 407 -51 m 582 657 q 488 587 526 635 q 450 461 450 539 q 481 347 450 392 q 557 276 511 301 l 582 657 m 792 258 q 896 328 853 279 q 939 461 939 378 q 904 581 939 535 q 818 651 869 628 l 792 258 z "},"∑":{"ha":1389,"x_min":279,"x_max":1110,"o":"m 633 353 l 281 1067 l 1110 1067 l 1110 1003 l 628 1003 l 940 353 l 626 -299 l 1110 -299 l 1110 -362 l 279 -362 l 633 353 z "},"∏":{"ha":1389,"x_min":144,"x_max":1244,"o":"m 299 950 l 144 950 l 144 1014 l 1244 1014 l 1244 950 l 1090 950 l 1090 -365 l 797 -365 l 797 950 l 592 950 l 592 -365 l 299 -365 l 299 950 z "},"¤":{"ha":964,"x_min":46,"x_max":915,"o":"m 138 213 q 49 461 49 306 q 73 606 49 542 q 143 715 97 669 l 46 799 l 90 844 l 193 756 q 482 825 300 825 q 768 757 660 825 l 868 844 l 913 799 l 818 718 q 915 461 915 625 q 824 210 915 304 l 913 133 l 867 89 l 775 168 q 482 96 664 96 q 186 171 297 96 l 92 89 l 46 133 l 138 213 m 482 154 q 547 170 519 154 q 590 222 574 186 q 615 317 607 258 q 622 461 622 375 q 615 605 622 546 q 590 699 607 664 q 547 751 574 735 q 482 767 519 767 q 418 751 444 767 q 375 699 392 735 q 351 605 358 664 q 343 461 343 546 q 351 317 343 375 q 375 222 358 258 q 418 170 392 186 q 482 154 444 154 z "},"℉":{"ha":1472,"x_min":106,"x_max":1417,"o":"m 106 839 q 122 914 106 879 q 165 974 138 949 q 228 1015 192 1000 q 304 1029 264 1029 q 381 1015 344 1029 q 445 974 418 1000 q 488 914 472 949 q 504 839 504 879 q 488 764 504 799 q 445 703 472 729 q 381 663 418 678 q 304 649 344 649 q 228 663 264 649 q 165 703 192 678 q 122 764 138 729 q 106 839 106 799 m 586 1015 l 1417 1015 l 1417 951 l 893 951 l 893 499 l 1392 499 l 1392 435 l 893 435 l 893 -99 l 586 -99 l 586 1015 m 225 839 q 248 782 225 803 q 304 761 271 761 q 365 782 343 761 q 386 839 386 803 q 365 896 386 875 q 304 917 343 917 q 248 896 271 917 q 225 839 225 875 z "},"‰":{"ha":1650,"x_min":69,"x_max":1581,"o":"m 300 500 q 203 520 246 500 q 131 576 161 540 q 85 664 101 613 q 69 778 69 715 q 85 892 69 840 q 131 980 101 943 q 203 1037 161 1017 q 300 1057 246 1057 q 397 1037 354 1057 q 471 980 440 1017 q 517 892 501 943 q 533 778 533 840 q 517 664 533 715 q 471 576 501 613 q 397 520 440 540 q 300 500 354 500 m 799 1017 l 922 1017 l 319 -97 l 197 -97 l 799 1017 m 300 564 q 326 581 314 564 q 344 626 338 597 q 356 693 351 654 q 360 778 360 732 q 356 863 360 824 q 344 931 351 901 q 326 976 338 960 q 300 993 314 993 q 276 976 286 993 q 258 931 265 960 q 247 863 250 901 q 243 778 243 824 q 247 693 243 732 q 258 626 250 654 q 276 581 265 597 q 300 564 286 564 m 828 -137 q 731 -117 774 -137 q 657 -60 688 -97 q 610 28 626 -24 q 594 142 594 79 q 610 256 594 204 q 657 343 626 307 q 731 399 688 379 q 828 419 774 419 q 925 399 882 419 q 998 343 968 379 q 1044 256 1028 307 q 1060 142 1060 204 q 1044 28 1060 79 q 998 -60 1028 -24 q 925 -117 968 -97 q 828 -137 882 -137 m 1349 -137 q 1251 -117 1294 -137 q 1178 -60 1208 -97 q 1131 28 1147 -24 q 1115 142 1115 79 q 1131 256 1115 204 q 1178 343 1147 307 q 1251 399 1208 379 q 1349 419 1294 419 q 1446 399 1403 419 q 1519 343 1489 379 q 1565 256 1549 307 q 1581 142 1581 204 q 1565 28 1581 79 q 1519 -60 1549 -24 q 1446 -117 1489 -97 q 1349 -137 1403 -137 m 828 -74 q 852 -57 842 -74 q 870 -11 863 -40 q 882 57 878 18 q 886 142 886 96 q 882 226 886 188 q 870 294 878 265 q 852 339 863 322 q 828 356 842 356 q 803 339 814 356 q 785 294 792 322 q 774 226 778 265 q 769 142 769 188 q 774 57 769 96 q 785 -11 778 18 q 803 -57 792 -40 q 828 -74 814 -74 m 1349 -74 q 1373 -57 1363 -74 q 1391 -11 1383 -40 q 1403 57 1399 18 q 1407 142 1407 96 q 1403 226 1407 188 q 1391 294 1399 265 q 1373 339 1383 322 q 1349 356 1363 356 q 1324 339 1335 356 q 1306 294 1313 322 q 1294 226 1299 265 q 1290 142 1290 188 q 1294 57 1290 96 q 1306 -11 1299 18 q 1324 -57 1313 -40 q 1349 -74 1335 -74 z "},"◁":{"ha":1389,"x_min":149,"x_max":1203,"o":"m 1203 1047 l 1203 -178 l 149 435 l 1203 1047 m 1099 7 l 1099 863 l 353 435 l 1099 7 z "},"◀":{"ha":1389,"x_min":149,"x_max":1203,"o":"m 1203 1047 l 1203 -178 l 149 435 l 1203 1047 z "},"▷":{"ha":1389,"x_min":186,"x_max":1240,"o":"m 186 1047 l 1240 435 l 186 -178 l 186 1047 m 1036 435 l 290 863 l 290 7 l 1036 435 z "},"▶":{"ha":1389,"x_min":186,"x_max":1240,"o":"m 186 1047 l 1240 435 l 186 -178 l 186 1047 z "},"♤":{"ha":1311,"x_min":168,"x_max":1140,"o":"m 444 -81 q 494 33 476 -21 q 515 149 511 88 q 445 113 479 125 q 367 101 411 101 q 288 122 325 101 q 225 176 251 142 q 183 254 199 210 q 168 346 168 299 q 194 485 168 419 q 263 613 221 551 q 359 735 306 675 q 467 856 413 796 q 570 978 521 917 q 654 1108 619 1040 q 738 979 689 1042 q 842 856 788 917 q 949 735 896 796 q 1045 613 1003 675 q 1114 485 1088 551 q 1140 346 1140 418 q 1125 254 1140 299 q 1083 176 1110 210 q 1021 122 1057 142 q 942 101 985 101 q 863 113 897 101 q 793 149 829 125 q 815 33 797 88 q 864 -81 833 -21 l 864 -115 l 444 -115 l 444 -81 m 744 -31 q 726 33 733 0 q 715 97 719 65 q 707 158 710 129 q 703 210 704 188 q 733 275 699 275 q 769 264 750 275 q 810 239 788 253 q 858 214 832 225 q 914 203 883 203 q 1005 249 972 203 q 1038 364 1038 296 q 1017 458 1038 408 q 962 558 996 507 q 885 660 928 608 q 800 760 843 711 q 719 855 757 810 q 654 939 681 900 q 590 855 628 900 q 509 760 551 810 q 424 660 467 711 q 348 558 382 608 q 293 458 314 507 q 272 364 272 408 q 305 249 272 296 q 396 203 338 203 q 452 214 426 203 q 500 239 478 225 q 541 264 522 253 q 575 275 560 275 q 608 210 613 275 q 603 158 607 188 q 595 97 600 129 q 583 33 590 65 q 565 -31 575 0 l 744 -31 z "},"♠":{"ha":1311,"x_min":168,"x_max":1140,"o":"m 444 -81 q 494 33 476 -21 q 515 149 511 88 q 445 113 479 125 q 367 101 411 101 q 288 122 325 101 q 225 176 251 142 q 183 254 199 210 q 168 346 168 299 q 194 485 168 419 q 263 613 221 551 q 359 735 306 675 q 467 856 413 796 q 570 978 521 917 q 654 1108 619 1040 q 738 979 689 1042 q 842 856 788 917 q 949 735 896 796 q 1045 613 1003 675 q 1114 485 1088 551 q 1140 346 1140 418 q 1125 254 1140 299 q 1083 176 1110 210 q 1021 122 1057 142 q 942 101 985 101 q 863 113 897 101 q 793 149 829 125 q 815 33 797 88 q 864 -81 833 -21 l 864 -115 l 444 -115 l 444 -81 z "},"♡":{"ha":1311,"x_min":143,"x_max":1167,"o":"m 654 -117 q 545 -1 603 -64 q 431 131 488 63 q 322 269 374 199 q 230 410 269 340 q 167 549 190 481 q 143 678 143 617 q 163 798 143 742 q 218 896 182 854 q 305 961 254 938 q 418 985 356 985 q 561 942 499 985 q 654 832 624 899 q 748 942 686 899 q 892 985 810 985 q 1005 961 954 985 q 1092 896 1056 938 q 1147 798 1128 854 q 1167 678 1167 742 q 1115 481 1167 586 q 987 269 1064 375 q 820 63 910 163 q 654 -117 731 -36 m 654 17 q 727 96 685 49 q 815 199 769 143 q 905 316 861 254 q 983 439 949 378 q 1040 559 1018 500 q 1061 668 1061 618 q 1014 822 1061 764 q 869 879 967 879 q 801 861 835 879 q 738 814 767 843 q 688 747 710 785 q 654 669 665 710 q 622 747 643 710 q 571 814 600 785 q 508 861 542 843 q 439 879 474 879 q 295 822 342 879 q 249 668 249 764 q 270 559 249 618 q 326 439 292 500 q 405 316 361 378 q 494 199 449 254 q 581 96 539 143 q 654 17 624 49 z "},"♥":{"ha":1311,"x_min":143,"x_max":1167,"o":"m 654 -117 q 545 -1 603 -64 q 431 131 488 63 q 322 274 374 200 q 230 422 269 347 q 167 572 190 497 q 143 717 143 646 q 163 831 143 781 q 220 915 183 881 q 306 967 257 950 q 414 985 356 985 q 497 971 458 985 q 565 935 535 957 q 617 886 594 913 q 654 835 640 860 q 691 886 668 860 q 744 935 714 913 q 813 971 775 957 q 896 985 851 985 q 1003 967 954 985 q 1090 915 1053 950 q 1147 831 1126 881 q 1167 717 1167 781 q 1115 497 1167 610 q 987 274 1064 383 q 820 64 910 164 q 654 -117 731 -36 z "},"♧":{"ha":1311,"x_min":74,"x_max":1236,"o":"m 444 -85 q 470 -35 457 -62 q 494 24 483 -7 q 511 86 504 54 q 518 147 518 118 q 435 83 490 111 q 313 56 379 56 q 215 76 260 56 q 140 131 171 96 q 91 214 108 167 q 74 315 74 261 q 90 410 74 365 q 138 490 107 456 q 213 546 169 525 q 311 567 257 567 q 403 561 356 567 q 486 540 451 556 q 505 540 501 535 q 497 560 508 546 q 460 607 479 581 q 424 664 440 633 q 397 729 407 694 q 386 800 386 764 q 408 897 386 854 q 467 969 431 940 q 553 1014 504 999 q 654 1029 601 1029 q 756 1014 707 1029 q 842 969 804 999 q 901 897 879 940 q 924 800 924 854 q 913 729 924 764 q 885 664 901 694 q 849 607 868 633 q 813 560 829 581 q 804 540 800 546 q 824 540 808 535 q 905 561 857 556 q 997 567 953 567 q 1095 546 1051 567 q 1170 490 1139 525 q 1219 410 1201 456 q 1236 315 1236 365 q 1219 214 1236 261 q 1169 131 1201 167 q 1093 76 1138 96 q 996 56 1049 56 q 874 83 929 56 q 790 147 819 111 q 798 86 790 118 q 816 24 806 54 q 839 -35 826 -7 q 864 -85 851 -62 l 864 -119 l 444 -119 l 444 -85 m 746 -36 q 713 90 726 26 q 696 210 700 154 q 705 245 694 229 q 726 264 715 261 q 753 264 738 267 q 785 246 769 261 q 876 178 828 210 q 974 146 924 146 q 1042 161 1013 146 q 1091 202 1071 176 q 1122 260 1111 228 q 1132 329 1132 293 q 1120 393 1132 364 q 1088 444 1108 422 q 1038 478 1067 465 q 975 490 1008 490 q 868 478 924 490 q 764 443 813 467 q 729 441 747 436 q 699 458 711 446 q 685 488 688 471 q 696 521 682 504 q 738 577 715 544 q 781 645 761 610 q 815 715 801 681 q 828 778 828 750 q 813 851 828 821 q 774 901 799 882 q 719 929 750 921 q 654 938 688 938 q 591 929 622 938 q 535 901 560 921 q 497 851 511 882 q 482 778 482 821 q 495 715 482 750 q 528 645 508 681 q 571 577 547 610 q 614 521 594 544 q 624 488 626 504 q 609 458 621 471 q 580 441 597 446 q 546 443 563 436 q 442 478 497 467 q 335 490 386 490 q 272 478 301 490 q 222 444 243 465 q 190 393 201 422 q 178 329 178 364 q 188 260 178 293 q 218 202 199 228 q 267 161 238 176 q 336 146 297 146 q 385 155 361 146 q 434 178 410 164 q 481 210 458 192 q 524 246 503 228 q 555 264 539 261 q 582 264 571 267 q 605 245 594 261 q 614 210 615 229 q 597 90 610 154 q 564 -36 583 26 l 746 -36 z "},"♣":{"ha":1311,"x_min":74,"x_max":1236,"o":"m 444 -85 q 470 -35 457 -62 q 494 24 483 -7 q 511 86 504 54 q 518 147 518 118 q 435 83 490 111 q 313 56 379 56 q 215 76 260 56 q 140 131 171 96 q 91 214 108 167 q 74 315 74 261 q 90 410 74 365 q 138 490 107 456 q 213 546 169 525 q 311 567 257 567 q 403 561 356 567 q 486 540 451 556 q 505 540 501 535 q 497 560 508 546 q 460 607 479 581 q 424 664 440 633 q 397 729 407 694 q 386 800 386 764 q 408 897 386 854 q 467 969 431 940 q 553 1014 504 999 q 654 1029 601 1029 q 756 1014 707 1029 q 842 969 804 999 q 901 897 879 940 q 924 800 924 854 q 913 729 924 764 q 885 664 901 694 q 849 607 868 633 q 813 560 829 581 q 804 540 800 546 q 824 540 808 535 q 905 561 857 556 q 997 567 953 567 q 1095 546 1051 567 q 1170 490 1139 525 q 1219 410 1201 456 q 1236 315 1236 365 q 1219 214 1236 261 q 1169 131 1201 167 q 1093 76 1138 96 q 996 56 1049 56 q 874 83 929 56 q 790 147 819 111 q 798 86 790 118 q 816 24 806 54 q 839 -35 826 -7 q 864 -85 851 -62 l 864 -119 l 444 -119 l 444 -85 z "},"⊙":{"ha":1389,"x_min":131,"x_max":1258,"o":"m 694 -101 q 470 -57 574 -101 q 292 64 367 -12 q 174 244 217 140 q 131 467 131 347 q 174 688 131 585 q 292 868 217 792 q 470 989 367 944 q 694 1033 574 1033 q 919 989 815 1033 q 1097 868 1022 944 q 1215 688 1172 792 q 1258 467 1258 585 q 1215 244 1258 347 q 1097 64 1172 140 q 919 -57 1022 -12 q 694 -101 815 -101 m 694 78 q 848 110 779 78 q 965 196 917 142 q 1040 320 1014 250 q 1067 467 1067 390 q 1040 613 1067 543 q 965 737 1014 683 q 848 822 917 790 q 694 854 779 854 q 541 822 610 854 q 424 737 472 790 q 349 613 375 683 q 322 467 322 543 q 349 320 322 390 q 424 196 375 250 q 541 110 472 142 q 694 78 610 78 m 550 467 q 589 572 550 533 q 694 611 628 611 q 800 572 761 611 q 839 467 839 533 q 800 361 839 400 q 694 322 761 322 q 589 361 628 322 q 550 467 550 400 z "},"◉":{"ha":1389,"x_min":131,"x_max":1258,"o":"m 694 -101 q 470 -57 574 -101 q 292 64 367 -12 q 174 244 217 140 q 131 467 131 347 q 174 688 131 585 q 292 868 217 792 q 470 989 367 944 q 694 1033 574 1033 q 919 989 815 1033 q 1097 868 1022 944 q 1215 688 1172 792 q 1258 467 1258 585 q 1215 244 1258 347 q 1097 64 1172 140 q 919 -57 1022 -12 q 694 -101 815 -101 m 694 78 q 848 110 779 78 q 965 196 917 142 q 1040 320 1014 250 q 1067 467 1067 390 q 1040 613 1067 543 q 965 737 1014 683 q 848 822 917 790 q 694 854 779 854 q 541 822 610 854 q 424 737 472 790 q 349 613 375 683 q 322 467 322 543 q 349 320 322 390 q 424 196 375 250 q 541 110 472 142 q 694 78 610 78 m 550 467 q 589 572 550 533 q 694 611 628 611 q 800 572 761 611 q 839 467 839 533 q 800 361 839 400 q 694 322 761 322 q 589 361 628 322 q 550 467 550 400 z "},"◈":{"ha":1389,"x_min":49,"x_max":1340,"o":"m 696 1082 l 1340 438 l 693 -210 l 49 435 l 696 1082 m 1199 438 l 696 942 l 190 438 l 694 -67 l 1199 438 m 696 707 l 969 435 l 694 161 l 422 433 l 696 707 z "},"▣":{"ha":1389,"x_min":153,"x_max":1236,"o":"m 153 972 l 1236 972 l 1236 -108 l 153 -108 l 153 972 m 1121 -4 l 1121 867 l 268 867 l 268 -4 l 1121 -4 m 417 706 l 971 706 l 971 154 l 417 154 l 417 706 z "},"◐":{"ha":1389,"x_min":144,"x_max":1244,"o":"m 144 432 q 188 644 144 544 q 307 819 232 744 q 482 938 382 894 q 694 981 582 981 q 907 938 807 981 q 1082 819 1007 894 q 1201 644 1157 744 q 1244 432 1244 544 q 1201 219 1244 319 q 1082 44 1157 119 q 907 -74 1007 -31 q 694 -117 807 -117 q 482 -74 582 -117 q 307 44 382 -31 q 188 219 232 119 q 144 432 144 319 m 694 -12 q 862 24 783 -12 q 1000 120 940 60 q 1094 261 1060 181 q 1129 432 1129 342 q 1094 602 1129 521 q 1000 744 1060 683 q 862 840 940 804 q 694 876 783 876 l 694 -12 z "},"◑":{"ha":1389,"x_min":144,"x_max":1244,"o":"m 144 432 q 188 644 144 544 q 307 819 232 744 q 482 938 382 894 q 694 981 582 981 q 907 938 807 981 q 1082 819 1007 894 q 1201 644 1157 744 q 1244 432 1244 544 q 1201 219 1244 319 q 1082 44 1157 119 q 907 -74 1007 -31 q 694 -117 807 -117 q 482 -74 582 -117 q 307 44 382 -31 q 188 219 232 119 q 144 432 144 319 m 694 876 q 526 840 606 876 q 388 744 447 804 q 294 602 329 683 q 260 432 260 521 q 294 261 260 342 q 388 120 329 181 q 526 24 447 60 q 694 -12 606 -12 l 694 876 z "},"▒":{"ha":1389,"x_min":132,"x_max":1257,"o":"m 1153 1019 l 1257 1019 l 1257 910 l 1153 910 l 1153 1019 m 472 1019 l 576 1019 l 576 910 l 472 910 l 472 1019 m 132 1019 l 236 1019 l 236 910 l 132 910 l 132 1019 m 304 1019 l 408 1019 l 408 910 l 304 910 l 304 1019 m 811 1019 l 918 1019 l 918 910 l 811 910 l 811 1019 m 983 1019 l 1086 1019 l 1086 910 l 983 910 l 983 1019 m 642 1019 l 747 1019 l 747 910 l 642 910 l 642 1019 m 1153 844 l 1257 844 l 1257 742 l 1153 742 l 1153 844 m 472 844 l 576 844 l 576 742 l 472 742 l 472 844 m 132 844 l 236 844 l 236 742 l 132 742 l 132 844 m 304 844 l 408 844 l 408 742 l 304 742 l 304 844 m 811 844 l 918 844 l 918 742 l 811 742 l 811 844 m 983 844 l 1086 844 l 1086 742 l 983 742 l 983 844 m 642 844 l 747 844 l 747 742 l 642 742 l 642 844 m 1153 678 l 1257 678 l 1257 575 l 1153 575 l 1153 678 m 472 678 l 576 678 l 576 575 l 472 575 l 472 678 m 132 678 l 236 678 l 236 575 l 132 575 l 132 678 m 304 678 l 408 678 l 408 575 l 304 575 l 304 678 m 811 678 l 918 678 l 918 575 l 811 575 l 811 678 m 983 678 l 1086 678 l 1086 575 l 983 575 l 983 678 m 642 678 l 747 678 l 747 575 l 642 575 l 642 678 m 642 508 l 747 508 l 747 401 l 642 401 l 642 508 m 983 508 l 1086 508 l 1086 401 l 983 401 l 983 508 m 811 508 l 918 508 l 918 401 l 811 401 l 811 508 m 304 508 l 408 508 l 408 401 l 304 401 l 304 508 m 132 508 l 236 508 l 236 401 l 132 401 l 132 508 m 472 508 l 576 508 l 576 401 l 472 401 l 472 508 m 1153 508 l 1257 508 l 1257 401 l 1153 401 l 1153 508 m 1153 336 l 1257 336 l 1257 232 l 1153 232 l 1153 336 m 472 336 l 576 336 l 576 232 l 472 232 l 472 336 m 132 336 l 236 336 l 236 232 l 132 232 l 132 336 m 304 336 l 408 336 l 408 232 l 304 232 l 304 336 m 811 336 l 918 336 l 918 232 l 811 232 l 811 336 m 983 336 l 1086 336 l 1086 232 l 983 232 l 983 336 m 642 336 l 747 336 l 747 232 l 642 232 l 642 336 m 1153 168 l 1257 168 l 1257 67 l 1153 67 l 1153 168 m 472 168 l 576 168 l 576 67 l 472 67 l 472 168 m 132 168 l 236 168 l 236 67 l 132 67 l 132 168 m 304 168 l 408 168 l 408 67 l 304 67 l 304 168 m 811 168 l 918 168 l 918 67 l 811 67 l 811 168 m 983 168 l 1086 168 l 1086 67 l 983 67 l 983 168 m 642 168 l 747 168 l 747 67 l 642 67 l 642 168 m 1153 3 l 1257 3 l 1257 -103 l 1153 -103 l 1153 3 m 472 3 l 576 3 l 576 -103 l 472 -103 l 472 3 m 132 3 l 236 3 l 236 -103 l 132 -103 l 132 3 m 304 3 l 408 3 l 408 -103 l 304 -103 l 304 3 m 811 3 l 918 3 l 918 -103 l 811 -103 l 811 3 m 983 3 l 1086 3 l 1086 -103 l 983 -103 l 983 3 m 642 3 l 747 3 l 747 -103 l 642 -103 l 642 3 z "},"▤":{"ha":1389,"x_min":153,"x_max":1236,"o":"m 153 972 l 1236 972 l 1236 -108 l 153 -108 l 153 972 m 1121 732 l 1121 867 l 268 867 l 268 732 l 1121 732 m 1121 479 l 1121 640 l 268 640 l 268 479 l 1121 479 m 1121 228 l 1121 388 l 268 388 l 268 228 l 1121 228 m 1121 -4 l 1121 136 l 268 136 l 268 -4 l 1121 -4 z "},"▥":{"ha":1389,"x_min":153,"x_max":1236,"o":"m 153 972 l 1236 972 l 1236 -108 l 153 -108 l 153 972 m 394 -4 l 394 867 l 268 867 l 268 -4 l 394 -4 m 646 -4 l 646 867 l 486 867 l 486 -4 l 646 -4 m 899 -4 l 899 867 l 738 867 l 738 -4 l 899 -4 m 1121 -4 l 1121 867 l 990 867 l 990 -4 l 1121 -4 z "},"▨":{"ha":1389,"x_min":153,"x_max":1236,"o":"m 153 972 l 1236 972 l 1236 -108 l 153 -108 l 153 972 m 456 867 l 268 867 l 268 681 l 456 867 m 767 867 l 585 867 l 268 553 l 268 372 l 767 867 m 1067 867 l 896 867 l 268 243 l 268 75 l 1067 867 m 476 -4 l 1121 635 l 1121 792 l 318 -4 l 476 -4 m 788 -4 l 1121 325 l 1121 506 l 606 -4 l 788 -4 m 1121 -4 l 1121 196 l 918 -4 l 1121 -4 z "},"▧":{"ha":1389,"x_min":153,"x_max":1236,"o":"m 153 972 l 1236 972 l 1236 -108 l 153 -108 l 153 972 m 1121 75 l 1121 243 l 493 867 l 322 867 l 1121 75 m 1121 372 l 1121 553 l 806 867 l 622 867 l 1121 372 m 1121 681 l 1121 867 l 933 867 l 1121 681 m 913 -4 l 1071 -4 l 268 792 l 268 635 l 913 -4 m 601 -4 l 783 -4 l 268 506 l 268 325 l 601 -4 m 471 -4 l 268 196 l 268 -4 l 471 -4 z "},"▦":{"ha":1389,"x_min":153,"x_max":1236,"o":"m 153 972 l 1236 972 l 1236 -108 l 153 -108 l 153 972 m 394 732 l 394 867 l 268 867 l 268 732 l 394 732 m 646 732 l 646 867 l 486 867 l 486 732 l 646 732 m 899 732 l 899 867 l 738 867 l 738 732 l 899 732 m 1121 732 l 1121 867 l 990 867 l 990 732 l 1121 732 m 394 479 l 394 640 l 268 640 l 268 479 l 394 479 m 646 479 l 646 640 l 486 640 l 486 479 l 646 479 m 899 479 l 899 640 l 738 640 l 738 479 l 899 479 m 1121 479 l 1121 640 l 990 640 l 990 479 l 1121 479 m 394 228 l 394 388 l 268 388 l 268 228 l 394 228 m 646 228 l 646 388 l 486 388 l 486 228 l 646 228 m 899 228 l 899 388 l 738 388 l 738 228 l 899 228 m 1121 228 l 1121 388 l 990 388 l 990 228 l 1121 228 m 394 -4 l 394 136 l 268 136 l 268 -4 l 394 -4 m 646 -4 l 646 136 l 486 136 l 486 -4 l 646 -4 m 899 -4 l 899 136 l 738 136 l 738 -4 l 899 -4 m 1121 -4 l 1121 136 l 990 136 l 990 -4 l 1121 -4 z "},"▩":{"ha":1389,"x_min":153,"x_max":1236,"o":"m 153 972 l 1236 972 l 1236 -108 l 153 -108 l 153 972 m 389 801 l 456 867 l 322 867 l 389 801 m 694 796 l 767 867 l 622 867 l 694 796 m 1000 801 l 1067 867 l 933 867 l 1000 801 m 936 738 l 850 822 l 760 731 l 844 646 l 936 738 m 629 731 l 539 821 l 454 736 l 544 646 l 629 731 m 325 736 l 268 792 l 268 681 l 325 736 m 1121 681 l 1121 792 l 1064 736 l 1121 681 m 1079 594 l 1000 672 l 910 582 l 988 504 l 1079 594 m 401 504 l 479 582 l 389 672 l 310 594 l 401 504 m 779 582 l 694 667 l 610 582 l 694 497 l 779 582 m 629 433 l 544 518 l 465 439 l 550 354 l 629 433 m 924 439 l 844 518 l 760 433 l 839 354 l 924 439 m 336 439 l 268 506 l 268 372 l 336 439 m 1121 372 l 1121 506 l 1053 439 l 1121 372 m 486 290 l 401 375 l 310 285 l 394 200 l 486 290 m 994 200 l 1079 285 l 988 375 l 903 290 l 994 200 m 694 213 l 774 290 l 694 369 l 615 290 l 694 213 m 539 58 l 629 147 l 550 226 l 460 136 l 539 58 m 850 58 l 929 136 l 839 226 l 760 147 l 850 58 m 329 136 l 268 196 l 268 75 l 329 136 m 1121 196 l 1060 136 l 1121 75 l 1121 196 m 783 -4 l 694 83 l 606 -4 l 783 -4 m 471 -4 l 394 71 l 318 -4 l 471 -4 m 1071 -4 l 994 71 l 918 -4 l 1071 -4 z "},"♨":{"ha":1311,"x_min":118,"x_max":1192,"o":"m 606 76 q 597 126 600 101 q 596 175 593 151 q 622 290 604 233 q 640 410 640 347 q 631 486 640 449 q 610 561 621 524 q 589 638 599 599 q 579 718 579 676 q 587 781 579 751 q 606 839 594 810 q 631 897 617 868 q 656 958 644 926 q 668 1001 663 979 q 675 1046 674 1022 l 692 1046 q 717 929 718 986 q 700 830 714 879 q 686 724 686 781 q 696 649 686 686 q 717 574 706 611 q 738 498 728 536 q 747 418 747 460 q 738 345 747 381 q 713 276 728 310 q 679 208 697 242 q 644 142 661 175 q 629 107 635 124 q 619 76 624 90 l 606 76 m 436 86 q 420 132 426 108 q 417 182 414 156 q 431 265 419 222 q 450 350 443 307 q 453 446 458 400 q 440 536 449 492 q 421 627 431 581 q 411 724 411 674 q 433 816 411 774 q 476 906 456 858 q 488 942 482 924 q 496 982 493 961 l 511 982 q 519 946 517 967 q 519 903 522 925 q 507 813 517 858 q 497 717 497 767 q 506 633 497 672 q 526 555 515 593 q 547 478 538 517 q 556 400 556 440 q 547 340 556 368 q 527 283 539 311 q 501 226 515 254 q 475 168 488 199 q 458 128 465 149 q 449 86 451 108 l 436 86 m 792 86 q 779 181 775 126 q 801 297 783 239 q 818 418 818 356 q 810 494 818 457 q 792 569 801 532 q 774 645 782 607 q 765 724 765 683 q 789 819 765 772 q 832 914 813 865 q 845 947 840 929 q 856 981 850 964 l 869 981 q 880 945 876 965 q 882 901 883 925 q 867 810 876 856 q 857 713 857 765 q 866 634 857 672 q 886 558 875 596 q 906 481 897 519 q 915 400 915 442 q 906 338 915 367 q 884 282 897 310 q 856 226 871 254 q 828 168 840 199 q 815 128 821 149 q 804 86 810 108 l 792 86 m 413 382 q 349 352 383 371 q 283 309 314 333 q 233 256 253 285 q 213 196 213 226 q 233 129 213 157 q 288 83 254 101 q 367 53 322 64 q 459 38 411 43 q 553 31 507 32 q 640 29 600 29 q 722 32 674 29 q 822 42 769 35 q 924 62 874 49 q 1016 94 975 75 q 1082 142 1057 114 q 1107 210 1107 171 q 1090 264 1107 239 q 1048 309 1072 289 q 996 344 1024 329 q 947 369 968 360 l 957 385 q 1034 358 993 375 q 1110 317 1075 342 q 1169 258 1146 292 q 1192 183 1192 225 q 1164 75 1192 121 q 1091 -3 1136 29 q 988 -55 1046 -35 q 871 -85 931 -75 q 754 -100 811 -96 q 654 -104 697 -104 q 553 -100 610 -104 q 437 -85 496 -96 q 320 -56 378 -75 q 218 -6 263 -36 q 146 66 174 24 q 118 165 118 108 q 149 255 118 215 q 224 324 179 294 q 318 372 268 353 q 407 400 368 392 l 413 382 z "},"☏":{"ha":1311,"x_min":61,"x_max":1250,"o":"m 883 661 q 890 567 879 611 q 924 483 900 522 q 969 422 943 450 q 1019 365 994 393 q 1067 306 1044 336 q 1101 239 1089 276 q 1113 199 1107 221 q 1124 154 1118 176 q 1134 113 1129 132 q 1144 79 1139 93 q 1154 45 1151 64 q 1155 10 1157 26 q 1144 -19 1153 -7 q 1118 -31 1135 -31 l 192 -31 q 166 -19 175 -31 q 155 10 157 -7 q 156 45 153 26 q 165 79 158 64 q 176 113 171 93 q 187 154 182 132 q 197 199 192 176 q 210 239 203 221 q 245 306 224 276 q 292 365 267 336 q 342 422 317 393 q 388 483 368 450 q 428 661 433 561 l 424 738 q 374 726 396 740 q 349 685 353 713 q 357 635 344 661 q 371 588 369 608 q 356 548 372 567 q 304 511 340 529 q 231 486 272 497 q 136 468 189 475 q 79 492 97 463 q 64 567 61 521 q 100 689 69 638 q 178 776 131 740 q 285 835 225 813 q 410 869 346 857 q 538 886 474 882 q 656 890 601 890 q 774 886 710 890 q 901 869 838 882 q 1025 835 965 857 q 1133 776 1085 813 q 1211 689 1181 740 q 1247 567 1242 638 q 1231 492 1250 521 q 1175 468 1213 463 q 1080 485 1122 475 q 1006 511 1038 496 q 939 588 936 543 q 953 635 940 608 q 963 685 967 661 q 937 726 958 713 q 888 738 915 740 l 883 661 m 211 69 q 206 25 204 36 q 239 14 208 14 l 1071 14 q 1105 25 1103 14 q 1100 69 1107 36 q 1078 164 1088 115 q 1046 257 1069 213 q 1010 309 1031 285 q 969 357 990 333 q 926 404 947 381 q 888 456 904 428 q 853 531 864 492 q 843 613 843 571 q 844 702 843 661 q 847 754 846 743 q 852 772 849 765 q 871 778 856 778 q 973 737 940 772 q 1001 667 1006 701 q 992 636 999 651 q 979 603 986 621 q 990 576 975 590 q 1026 550 1004 561 q 1084 526 1049 539 q 1164 511 1119 514 q 1198 522 1186 508 q 1204 571 1210 536 q 1164 675 1194 631 q 1090 751 1133 719 q 991 801 1046 782 q 878 832 936 821 q 764 847 821 843 q 657 851 707 851 q 551 847 608 851 q 435 832 493 843 q 322 801 378 821 q 222 751 267 782 q 147 675 178 719 q 107 571 115 631 q 113 522 100 536 q 146 511 125 508 q 227 526 192 514 q 285 550 263 539 q 322 576 306 561 q 332 603 338 590 q 318 636 325 621 q 308 667 311 651 q 337 737 304 701 q 439 778 369 772 q 459 772 456 778 q 464 754 463 765 q 467 702 465 743 q 468 613 468 661 q 456 531 468 571 q 424 456 444 492 q 385 404 406 428 q 342 357 364 381 q 301 309 321 333 q 265 257 281 285 q 232 164 242 213 q 211 69 222 115 m 794 661 q 788 631 794 642 q 769 614 781 619 q 745 607 758 608 q 719 606 732 606 l 586 606 q 538 615 563 606 q 514 660 514 625 l 514 768 q 590 756 554 760 q 663 751 626 751 q 723 753 690 751 q 794 761 756 756 l 794 661 m 549 679 q 556 647 549 658 q 582 635 563 635 l 722 635 q 752 642 746 635 q 758 669 758 650 l 758 728 q 713 723 736 725 q 664 721 689 721 q 549 732 613 721 l 549 679 m 410 288 q 429 381 410 339 q 481 453 449 424 q 558 500 514 483 q 653 517 603 517 q 744 501 700 517 q 823 456 789 486 q 877 384 857 426 q 897 288 897 342 q 878 194 897 236 q 825 121 858 151 q 747 74 792 90 q 653 57 703 57 q 563 73 607 57 q 485 118 519 89 q 431 190 451 147 q 410 288 410 233 m 447 288 q 463 208 447 244 q 507 147 479 172 q 572 107 535 121 q 651 93 610 93 q 728 107 690 93 q 794 146 765 121 q 841 207 824 171 q 858 288 858 243 q 842 367 858 331 q 799 429 826 403 q 733 470 771 456 q 653 485 696 485 q 574 471 611 485 q 509 431 538 457 q 464 369 481 406 q 447 288 447 333 z "},"☎":{"ha":1311,"x_min":61,"x_max":1250,"o":"m 883 661 q 890 567 879 611 q 924 483 900 522 q 969 422 943 450 q 1019 365 994 393 q 1067 306 1044 336 q 1101 239 1089 276 q 1113 199 1107 221 q 1124 154 1118 176 q 1134 113 1129 132 q 1144 79 1139 93 q 1154 45 1151 64 q 1155 10 1157 26 q 1144 -19 1153 -7 q 1118 -31 1135 -31 l 192 -31 q 166 -19 175 -31 q 155 10 157 -7 q 156 45 153 26 q 165 79 158 64 q 176 113 171 93 q 187 154 182 132 q 197 199 192 176 q 210 239 203 221 q 245 306 224 276 q 292 365 267 336 q 342 422 317 393 q 388 483 368 450 q 428 661 433 561 l 424 738 q 374 726 396 740 q 349 685 353 713 q 357 635 344 661 q 371 588 369 608 q 356 548 372 567 q 304 511 340 529 q 231 486 272 497 q 136 468 189 475 q 79 492 97 463 q 64 567 61 521 q 100 689 69 638 q 178 776 131 740 q 285 835 225 813 q 410 869 346 857 q 538 886 474 882 q 656 890 601 890 q 774 886 710 890 q 901 869 838 882 q 1025 835 965 857 q 1133 776 1085 813 q 1211 689 1181 740 q 1247 567 1242 638 q 1231 492 1250 521 q 1175 468 1213 463 q 1080 485 1122 475 q 1006 511 1038 496 q 939 588 936 543 q 953 635 940 608 q 963 685 967 661 q 937 726 958 713 q 888 738 915 740 l 883 661 m 514 660 q 538 615 514 625 q 586 606 563 606 l 719 606 q 745 607 732 606 q 769 614 758 608 q 788 631 781 619 q 794 661 794 642 l 794 761 q 723 753 756 756 q 663 751 690 751 q 590 756 626 751 q 514 768 554 760 l 514 660 m 410 288 q 431 190 410 233 q 485 118 451 147 q 563 73 519 89 q 653 57 607 57 q 747 74 703 57 q 825 121 792 90 q 878 194 858 151 q 897 288 897 236 q 877 384 897 342 q 823 456 857 426 q 744 501 789 486 q 653 517 700 517 q 558 500 603 517 q 481 453 514 483 q 429 381 449 424 q 410 288 410 339 z "},"☜":{"ha":1311,"x_min":88,"x_max":1219,"o":"m 1074 279 l 1047 279 q 970 238 1015 254 q 872 213 925 222 q 765 199 819 203 q 660 194 710 194 q 585 197 619 194 q 524 201 550 199 q 483 216 500 204 q 459 242 467 228 q 453 272 451 257 q 471 296 456 286 q 441 308 453 299 q 424 331 429 318 q 422 358 419 344 q 435 382 424 371 q 392 429 394 390 q 416 474 390 457 q 479 494 442 492 q 372 498 422 496 q 272 503 321 500 q 216 503 249 503 q 154 510 183 504 q 106 531 125 517 q 92 574 88 546 q 116 606 94 594 q 166 624 138 618 q 222 631 194 629 q 264 632 249 632 q 456 634 363 632 q 638 636 550 636 q 733 635 686 636 q 822 631 779 633 q 913 608 868 628 q 1008 557 958 589 q 1047 549 1018 549 l 1075 549 l 1075 590 l 1219 590 l 1219 249 l 1074 249 l 1074 279 m 635 483 q 672 475 654 482 q 696 451 689 468 q 698 417 703 432 q 686 396 693 401 q 708 382 697 389 q 724 360 719 375 q 722 334 726 347 q 708 315 717 321 q 736 301 724 313 q 749 274 749 289 q 745 250 749 261 q 731 231 742 239 q 822 240 776 233 q 909 256 868 246 q 984 281 950 267 q 1042 314 1018 294 l 1075 314 l 1075 513 q 1059 512 1063 513 q 1046 511 1056 511 q 985 531 1011 511 q 931 565 958 550 q 812 599 888 588 q 657 606 736 611 q 613 585 629 593 q 585 565 597 576 q 563 539 574 554 q 539 499 553 524 q 569 494 556 494 q 606 503 593 494 q 626 524 618 513 q 645 540 636 536 q 661 543 654 543 q 669 533 667 543 q 665 518 671 522 q 697 514 686 514 q 753 533 719 514 q 778 529 775 544 q 774 508 778 517 q 765 490 769 499 q 775 476 765 485 q 799 460 785 468 q 828 444 813 451 q 856 433 843 436 q 899 424 878 428 q 938 418 921 421 q 966 412 956 415 q 976 403 976 408 q 942 388 976 388 q 881 394 914 388 q 817 413 849 400 q 761 445 786 425 q 724 493 736 465 q 706 489 714 490 q 690 488 697 488 q 668 490 679 488 q 647 494 657 492 l 635 483 m 521 525 q 549 569 529 544 q 589 606 568 593 q 424 604 503 606 q 265 599 344 603 q 164 591 194 596 q 133 571 133 586 q 159 547 132 551 q 265 540 186 543 q 396 531 333 538 q 521 525 458 525 m 1156 281 l 1156 560 l 1111 560 l 1111 281 l 1156 281 m 465 413 q 510 409 478 410 q 574 408 542 408 q 623 410 601 408 q 653 415 644 411 q 662 438 668 424 q 628 458 656 453 q 581 465 607 463 q 529 468 556 468 q 475 463 500 468 q 438 447 450 458 q 435 426 425 436 q 465 413 446 415 m 486 328 q 514 324 496 325 q 551 322 532 322 q 588 322 569 322 q 619 322 607 322 q 635 324 625 322 q 656 328 646 325 q 675 335 667 331 q 686 347 683 340 q 684 359 689 354 q 671 367 679 364 q 652 373 663 371 q 633 375 642 375 l 492 375 q 473 369 481 375 q 464 355 465 363 q 467 340 463 347 q 486 328 472 332 m 513 240 q 548 235 524 238 q 600 231 572 232 q 641 231 621 231 q 676 236 661 232 q 701 249 692 240 q 710 272 710 257 q 689 286 710 282 q 607 289 668 290 l 515 288 q 494 269 497 288 q 513 240 492 250 z "},"☞":{"ha":1311,"x_min":90,"x_max":1222,"o":"m 90 590 l 235 590 l 235 549 l 264 549 q 301 557 290 549 q 397 608 351 589 q 489 631 443 628 q 578 635 532 633 q 674 636 625 636 q 855 634 761 636 q 1047 632 949 632 q 1089 631 1061 632 q 1144 624 1117 629 q 1194 606 1172 618 q 1218 574 1215 594 q 1203 531 1222 546 q 1156 510 1185 517 q 1095 503 1128 504 q 1039 503 1063 503 q 940 498 990 500 q 832 494 889 496 q 895 474 869 492 q 919 429 921 457 q 908 398 918 410 q 875 382 899 386 q 889 358 886 371 q 887 331 892 344 q 870 308 882 318 q 840 296 858 299 q 856 272 854 286 q 851 242 858 257 q 826 216 843 228 q 786 201 810 204 q 726 197 761 199 q 650 194 692 194 q 545 199 600 194 q 438 213 490 203 q 340 238 386 222 q 264 279 294 254 l 236 279 l 236 249 l 90 249 l 90 590 m 269 314 q 326 281 292 294 q 401 256 361 267 q 488 240 442 246 q 579 231 533 233 q 563 274 563 246 q 574 301 563 289 q 603 315 586 313 q 588 334 593 321 q 586 360 583 347 q 602 382 590 375 q 625 396 614 389 q 613 417 618 401 q 615 451 608 432 q 639 475 622 468 q 676 483 656 482 l 663 494 q 642 490 653 492 q 621 488 632 488 q 606 489 614 488 q 586 493 597 490 q 550 445 575 465 q 494 413 525 425 q 429 394 463 400 q 368 388 396 388 q 344 392 353 388 q 335 403 335 396 q 345 412 335 408 q 373 418 356 415 q 412 424 390 421 q 454 433 433 428 q 483 444 467 436 q 513 460 499 451 q 536 476 526 468 q 546 490 546 485 q 538 508 542 499 q 533 529 533 517 q 558 533 536 544 q 614 514 589 514 q 644 518 625 514 q 642 533 640 522 q 649 543 643 543 q 665 540 656 543 q 685 524 675 536 q 706 503 693 513 q 742 494 718 494 q 772 499 756 494 q 747 539 757 524 q 724 565 736 554 q 696 585 713 576 q 653 606 679 593 q 574 607 614 608 q 499 600 535 606 q 431 585 463 594 q 379 565 400 576 q 326 531 353 550 q 265 511 299 511 q 252 512 256 511 q 235 513 249 513 l 235 314 l 269 314 m 789 525 q 915 531 851 525 q 1046 540 978 538 q 1151 547 1124 543 q 1178 571 1179 551 q 1147 591 1178 586 q 1046 599 1115 596 q 888 604 967 603 q 721 606 808 606 q 763 569 743 593 q 789 525 782 544 m 200 281 l 200 560 l 154 560 l 154 281 l 200 281 m 657 415 q 688 410 667 411 q 736 408 710 408 q 801 409 769 408 q 846 413 833 410 q 876 426 865 415 q 872 447 886 436 q 835 463 860 458 q 782 468 811 468 q 730 465 756 468 q 683 458 704 463 q 649 438 654 453 q 657 415 643 424 m 625 347 q 635 335 626 340 q 655 328 644 331 q 676 324 665 325 q 692 322 686 322 q 722 322 704 322 q 760 322 740 322 q 797 324 779 322 q 825 328 814 325 q 844 340 839 332 q 847 355 849 347 q 838 369 844 363 q 819 375 831 375 l 678 375 q 658 373 668 375 q 639 367 647 371 q 626 359 631 364 q 625 347 622 354 m 797 240 q 817 269 819 250 q 794 288 814 288 l 704 289 q 622 286 643 290 q 601 272 601 282 q 610 249 601 257 q 635 236 619 240 q 669 231 650 232 q 711 231 689 231 q 763 235 739 232 q 797 240 786 238 z "},"¶":{"ha":1181,"x_min":56,"x_max":1100,"o":"m 446 417 l 367 417 q 242 439 299 417 q 143 501 185 461 q 78 595 101 540 q 56 715 56 650 q 78 835 56 781 q 142 930 101 890 q 238 992 182 969 q 360 1014 294 1014 l 1100 1014 l 1100 950 l 1018 950 l 1018 -360 l 778 -360 l 778 950 l 686 950 l 686 -360 l 446 -360 l 446 417 z "},"†":{"ha":1311,"x_min":318,"x_max":994,"o":"m 529 693 l 318 693 l 318 744 l 529 744 l 529 1014 l 785 1014 l 785 744 l 994 744 l 994 693 l 785 693 l 785 -360 l 529 -360 l 529 693 z "},"‡":{"ha":1311,"x_min":318,"x_max":994,"o":"m 529 -99 l 318 -99 l 318 -47 l 529 -47 l 529 706 l 318 706 l 318 757 l 529 757 l 529 1014 l 785 1014 l 785 757 l 994 757 l 994 706 l 785 706 l 785 -47 l 994 -47 l 994 -99 l 785 -99 l 785 -360 l 529 -360 l 529 -99 z "},"↕":{"ha":1389,"x_min":413,"x_max":976,"o":"m 413 301 l 476 354 l 638 208 l 638 724 l 476 578 l 413 631 l 694 1035 l 976 631 l 913 578 l 751 724 l 751 208 l 913 354 l 976 301 l 694 -103 l 413 301 z "},"↗":{"ha":1389,"x_min":250,"x_max":1139,"o":"m 879 717 l 661 726 l 654 810 l 1139 894 l 1054 411 l 971 417 l 960 636 l 331 6 l 250 86 l 879 717 z "},"↙":{"ha":1389,"x_min":250,"x_max":1139,"o":"m 335 490 l 418 483 l 429 265 l 1058 894 l 1139 814 l 510 185 l 728 174 l 735 92 l 250 6 l 335 490 z "},"↖":{"ha":1389,"x_min":250,"x_max":1139,"o":"m 250 894 l 735 810 l 728 726 l 510 717 l 1139 86 l 1058 6 l 429 636 l 418 417 l 335 411 l 250 894 z "},"↘":{"ha":1389,"x_min":250,"x_max":1139,"o":"m 661 174 l 879 185 l 250 814 l 331 894 l 960 265 l 971 483 l 1054 490 l 1139 6 l 654 92 l 661 174 z "},"♭":{"ha":1311,"x_min":447,"x_max":871,"o":"m 447 853 l 511 853 l 511 461 q 606 526 553 504 q 719 538 658 549 q 815 485 776 526 q 860 385 853 444 q 836 236 871 307 q 740 109 801 165 q 600 15 678 53 q 447 -32 522 -22 l 447 853 m 511 32 q 666 172 607 83 q 731 365 725 260 q 711 441 733 408 q 643 476 689 474 q 572 453 604 479 q 511 393 539 428 l 511 32 z "},"♩":{"ha":1311,"x_min":475,"x_max":764,"o":"m 764 947 l 764 142 q 741 47 764 90 q 682 -32 718 4 q 615 -80 650 -64 q 543 -89 581 -96 q 493 -62 511 -83 q 483 4 475 -40 q 506 59 488 33 q 550 106 524 85 q 608 141 576 126 q 674 161 640 156 q 707 172 697 164 q 717 207 717 179 l 717 947 l 764 947 z "},"♪":{"ha":1311,"x_min":325,"x_max":993,"o":"m 725 149 q 785 208 754 175 q 842 277 817 240 q 882 352 867 314 q 893 429 897 390 q 875 490 890 463 q 838 541 860 518 q 788 584 815 564 q 735 622 761 604 q 706 644 722 631 q 674 670 690 657 q 641 697 657 683 q 614 721 625 710 l 614 142 q 591 47 614 90 q 532 -32 568 4 q 465 -80 500 -64 q 392 -89 429 -96 q 342 -62 360 -83 q 332 4 325 -40 q 354 59 336 33 q 399 106 372 85 q 457 141 425 126 q 521 161 489 156 q 556 172 544 164 q 567 207 567 179 l 567 947 l 601 947 q 673 856 633 896 q 767 772 713 815 q 836 717 800 747 q 904 653 872 688 q 958 579 936 619 q 986 492 981 539 q 972 378 993 432 q 915 279 951 325 q 833 196 878 233 q 746 132 788 158 l 725 149 z "},"♬":{"ha":1311,"x_min":144,"x_max":1028,"o":"m 428 143 q 353 -31 428 42 q 286 -78 321 -62 q 213 -87 251 -94 q 163 -60 181 -82 q 153 6 144 -39 q 175 60 157 35 q 219 107 193 86 q 278 142 246 128 q 343 163 310 157 q 377 173 367 165 q 388 208 388 181 l 388 844 l 1028 982 l 1028 261 q 1011 189 1028 228 q 968 118 994 150 q 907 65 942 86 q 838 43 872 43 q 779 59 806 43 q 750 108 753 75 q 768 182 747 149 q 819 240 789 215 q 885 280 850 265 q 947 296 919 294 q 976 303 963 297 q 989 328 989 308 l 989 631 l 428 506 l 428 143 m 989 768 l 989 838 l 428 710 l 428 638 l 989 768 z "},"㉿":{"ha":1389,"x_min":18,"x_max":1371,"o":"m 331 532 l 331 385 l 24 385 q 20 422 21 403 q 19 457 19 440 q 42 639 18 551 q 109 802 65 726 q 214 940 153 878 q 351 1045 275 1001 q 513 1113 426 1089 q 692 1138 599 1138 q 882 1112 788 1138 q 1060 1033 976 1086 q 1212 898 1143 979 q 1326 707 1281 817 l 1169 707 q 973 917 1099 844 q 693 989 847 989 q 503 953 593 989 q 342 857 413 918 q 225 712 271 796 q 167 532 179 628 l 331 532 m 393 706 l 539 706 l 539 554 l 753 706 l 994 706 l 783 553 l 978 214 l 813 214 l 667 467 l 539 375 l 539 214 l 393 214 l 393 706 m 221 213 q 306 92 256 144 q 419 3 357 39 q 551 -52 481 -33 q 696 -71 622 -71 q 885 -36 796 -71 q 1046 60 975 -1 q 1163 206 1117 122 q 1222 386 1210 289 l 994 386 l 994 533 l 1365 533 q 1369 497 1368 515 q 1371 464 1371 479 q 1318 198 1371 322 q 1174 -19 1265 74 q 959 -165 1082 -111 q 696 -218 836 -218 q 503 -190 600 -218 q 320 -108 406 -162 q 168 26 235 -54 q 65 213 101 107 l 221 213 z "},"㈜":{"ha":1389,"x_min":36,"x_max":1353,"o":"m 250 -185 q 94 101 153 -65 q 36 469 36 267 q 94 838 36 671 q 250 1122 153 1004 l 417 1122 q 269 828 318 986 q 219 469 219 669 q 269 110 219 268 q 417 -185 318 -49 l 250 -185 m 972 -185 q 1120 110 1071 -49 q 1169 469 1169 268 q 1120 828 1169 669 q 972 1122 1071 986 l 1139 1122 q 1294 838 1236 1004 q 1353 469 1353 671 q 1294 101 1353 267 q 1139 -185 1236 -65 l 972 -185 m 335 475 q 440 490 392 475 q 522 535 488 504 q 575 617 556 567 q 594 738 594 667 l 594 771 l 350 771 l 350 810 l 1039 810 l 1039 771 l 793 771 l 793 738 q 755 590 793 647 q 653 501 717 533 q 507 456 590 468 q 335 444 424 444 l 335 475 m 836 544 q 863 615 836 588 q 935 642 890 642 q 1005 615 978 642 q 1032 544 1032 588 q 1005 473 1032 500 q 935 446 978 446 q 863 473 890 446 q 836 544 836 500 m 335 360 l 1054 360 l 1054 322 l 790 322 l 790 110 l 599 110 l 599 322 l 335 322 l 335 360 z "},"№":{"ha":1849,"x_min":119,"x_max":1794,"o":"m 119 1014 l 425 1014 l 771 101 l 771 1014 l 1078 1014 l 1078 -100 l 771 -100 l 425 813 l 425 -100 l 119 -100 l 119 1014 m 1168 589 q 1249 799 1168 724 q 1481 874 1331 874 q 1713 799 1632 874 q 1794 589 1794 724 q 1713 378 1794 454 q 1481 303 1632 303 q 1249 378 1331 303 q 1168 589 1168 454 m 1481 342 q 1567 400 1539 342 q 1594 589 1594 458 q 1567 776 1594 719 q 1481 833 1539 833 q 1394 776 1422 833 q 1367 589 1367 719 q 1394 400 1367 458 q 1481 342 1422 342 m 1175 169 l 1786 169 l 1786 118 l 1175 118 l 1175 169 z "},"㏇":{"ha":1389,"x_min":71,"x_max":1318,"o":"m 635 244 q 609 77 631 149 q 551 -42 588 6 q 467 -114 515 -90 q 361 -137 418 -137 q 146 8 221 -137 q 71 460 71 154 q 146 911 71 765 q 361 1057 221 1057 q 467 1033 418 1057 q 551 962 515 1010 q 609 842 588 914 q 635 675 631 771 l 474 675 q 465 835 475 771 q 440 937 456 899 q 403 990 424 975 q 361 1006 382 1006 q 311 981 335 1006 q 269 896 288 957 q 239 729 250 835 q 228 460 228 624 q 239 190 228 296 q 269 23 250 85 q 311 -62 288 -39 q 361 -86 335 -86 q 403 -71 382 -86 q 440 -17 424 -56 q 465 85 456 21 q 474 244 475 149 l 635 244 m 922 -137 q 748 -26 810 -137 q 686 283 686 86 q 748 592 686 481 q 922 703 810 703 q 1097 592 1035 703 q 1158 283 1158 481 q 1097 -26 1158 86 q 922 -137 1035 -137 m 922 -79 q 987 6 967 -79 q 1007 283 1007 92 q 987 560 1007 475 q 922 644 967 644 q 857 560 878 644 q 836 283 836 475 q 857 6 836 92 q 922 -79 878 -79 m 1244 -150 q 1190 -110 1210 -150 q 1169 -6 1169 -71 q 1190 101 1169 63 q 1244 140 1210 140 q 1298 101 1278 140 q 1318 -6 1318 63 q 1298 -110 1318 -71 q 1244 -150 1278 -150 z "},"™":{"ha":1311,"x_min":78,"x_max":1233,"o":"m 603 1014 l 769 1014 l 919 638 l 1067 1014 l 1233 1014 l 1233 469 l 1074 469 l 1074 864 l 938 521 l 899 521 l 763 864 l 763 469 l 603 469 l 603 1014 m 78 1014 l 558 1014 l 558 950 l 78 950 l 78 1014 m 214 822 l 78 822 l 78 886 l 558 886 l 558 822 l 410 822 l 410 471 l 214 471 l 214 822 z "},"㏂":{"ha":1389,"x_min":42,"x_max":1357,"o":"m 256 -112 l 256 -100 l 254 -74 l 254 -61 q 212 -108 235 -94 q 175 -122 189 -122 q 80 -58 113 -122 q 44 124 47 6 q 90 346 42 275 q 218 417 138 417 l 254 417 l 254 489 q 247 585 254 551 q 211 618 239 618 l 196 618 q 134 603 165 618 q 74 568 103 589 l 65 643 q 140 676 101 663 q 218 689 179 689 q 284 676 256 689 q 331 634 313 664 q 358 555 349 604 q 367 433 367 506 l 367 72 q 367 31 367 56 q 367 -22 367 6 q 369 -74 368 -49 q 369 -112 369 -99 l 256 -112 m 590 668 l 715 668 l 715 622 q 753 669 731 650 q 803 688 776 688 q 871 665 842 688 q 917 594 900 643 q 960 663 936 639 q 1019 688 985 688 q 1087 668 1058 688 q 1133 613 1115 649 q 1160 529 1151 578 q 1168 422 1168 481 l 1168 -112 l 1033 -112 l 1033 432 q 1023 562 1033 524 q 997 600 1013 600 q 963 567 979 600 q 940 475 946 535 l 940 -112 l 810 -112 l 810 432 q 799 562 810 524 q 764 600 788 600 q 733 558 747 600 q 715 436 719 517 l 715 -112 l 590 -112 l 590 668 m 243 353 q 205 333 219 353 q 181 282 190 314 q 169 208 172 250 q 165 124 165 167 q 172 4 165 42 q 197 -33 178 -33 q 232 -7 217 -33 q 254 65 247 19 l 254 353 l 243 353 m 479 -165 q 424 -126 444 -165 q 404 -21 404 -86 q 424 86 404 47 q 479 125 444 125 q 533 86 513 125 q 553 -21 553 47 q 533 -126 553 -86 q 479 -165 513 -165 m 1283 -165 q 1230 -126 1250 -165 q 1210 -21 1210 -86 q 1230 86 1210 47 q 1283 125 1250 125 q 1337 86 1317 125 q 1357 -21 1357 47 q 1337 -126 1357 -86 q 1283 -165 1317 -165 z "},"㏘":{"ha":1389,"x_min":4,"x_max":1358,"o":"m 592 668 l 717 668 l 717 622 q 755 669 732 650 q 804 688 778 688 q 872 665 843 688 q 918 594 900 643 q 960 663 936 639 q 1021 688 985 688 q 1088 668 1060 688 q 1135 613 1117 649 q 1161 529 1153 578 q 1169 422 1169 481 l 1169 -112 l 1035 -112 l 1035 432 q 1024 562 1035 524 q 999 600 1014 600 q 963 567 979 600 q 942 475 947 535 l 942 -112 l 811 -112 l 811 432 q 800 562 811 524 q 765 600 789 600 q 735 558 749 600 q 717 436 721 517 l 717 -112 l 592 -112 l 592 668 m 4 668 l 144 668 l 144 635 q 192 673 165 658 q 247 688 219 688 q 370 585 322 688 q 418 285 418 483 q 406 115 418 189 q 370 -12 393 40 q 316 -91 347 -64 q 247 -118 285 -118 q 191 -101 218 -118 q 144 -54 164 -83 l 144 -372 l 4 -372 l 4 668 m 144 75 q 172 -8 154 25 q 210 -42 189 -42 q 247 -16 232 -42 q 272 54 263 10 q 284 158 281 99 q 288 285 288 217 q 284 406 288 347 q 272 511 281 465 q 247 584 263 557 q 210 611 232 611 q 144 526 167 611 l 144 75 m 479 -165 q 426 -126 446 -165 q 406 -21 406 -86 q 426 86 406 47 q 479 125 446 125 q 534 86 514 125 q 554 -21 554 47 q 534 -126 554 -86 q 479 -165 514 -165 m 1285 -165 q 1231 -126 1251 -165 q 1211 -21 1211 -86 q 1231 86 1211 47 q 1285 125 1251 125 q 1338 86 1318 125 q 1358 -21 1358 47 q 1338 -126 1358 -86 q 1285 -165 1318 -165 z "},"℡":{"ha":1479,"x_min":42,"x_max":1438,"o":"m 42 1014 l 522 1014 l 522 950 l 42 950 l 42 1014 m 568 1014 l 971 1014 l 971 950 l 764 950 l 764 893 l 971 893 l 971 829 l 764 829 l 764 774 l 971 774 l 971 710 l 764 710 l 764 654 l 971 654 l 971 590 l 764 590 l 764 535 l 971 535 l 971 471 l 568 471 l 568 1014 m 1024 1014 l 1219 1014 l 1219 675 l 1438 675 l 1438 611 l 1219 611 l 1219 535 l 1438 535 l 1438 471 l 1024 471 l 1024 1014 m 178 822 l 42 822 l 42 886 l 522 886 l 522 822 l 375 822 l 375 471 l 178 471 l 178 822 z "},"！":{"ha":1389,"x_min":529,"x_max":861,"o":"m 538 1042 l 861 1042 l 844 268 l 554 268 l 538 1042 m 694 -151 q 574 -106 619 -151 q 529 15 529 -60 q 574 136 529 90 q 694 182 619 182 q 815 136 769 182 q 861 15 861 90 q 815 -106 861 -60 q 694 -151 769 -151 z "},"＂":{"ha":1389,"x_min":475,"x_max":915,"o":"m 475 1081 l 672 1081 l 672 774 l 475 774 l 475 1081 m 718 1081 l 915 1081 l 915 774 l 718 774 l 718 1081 z "},"＃":{"ha":1389,"x_min":140,"x_max":1249,"o":"m 279 143 l 140 143 l 140 207 l 288 207 l 319 425 l 169 425 l 169 489 l 328 489 l 360 707 l 199 707 l 199 771 l 368 771 l 403 1014 l 690 1014 l 656 771 l 822 771 l 857 1014 l 1144 1014 l 1110 771 l 1249 771 l 1249 707 l 1101 707 l 1069 489 l 1219 489 l 1219 425 l 1061 425 l 1029 207 l 1190 207 l 1190 143 l 1021 143 l 986 -100 l 699 -100 l 733 143 l 567 143 l 532 -100 l 244 -100 l 279 143 m 782 489 l 814 707 l 647 707 l 615 489 l 782 489 m 742 207 l 774 425 l 607 425 l 575 207 l 742 207 z "},"＄":{"ha":1389,"x_min":242,"x_max":1149,"o":"m 632 -82 q 471 -58 543 -78 q 348 -1 399 -37 q 269 90 297 36 q 242 214 242 143 l 242 265 l 521 265 l 521 214 q 550 60 521 115 q 632 -15 579 4 l 632 456 q 487 494 556 472 q 367 549 418 515 q 285 631 315 582 q 254 753 254 681 q 285 857 254 813 q 367 933 315 901 q 487 982 418 964 q 632 1004 556 1000 l 632 1094 l 756 1094 l 756 1004 q 917 976 844 999 q 1040 917 989 954 q 1119 828 1092 879 q 1147 714 1147 778 l 1147 669 l 857 669 l 857 708 q 831 866 857 813 q 756 938 804 919 l 756 507 q 762 506 758 506 q 768 504 765 506 q 919 468 849 488 q 1040 417 989 449 q 1119 337 1090 386 q 1149 211 1149 288 q 1121 88 1149 140 q 1042 -1 1093 35 q 917 -58 990 -37 q 756 -82 844 -78 l 756 -186 l 632 -186 l 632 -82 m 632 936 q 561 874 589 919 q 533 750 533 829 q 556 638 533 686 q 632 556 579 589 l 632 936 m 756 -15 q 839 60 808 4 q 869 217 869 115 q 845 345 869 297 q 756 421 821 393 l 756 -15 z "},"％":{"ha":1389,"x_min":76,"x_max":1314,"o":"m 76 778 q 97 892 76 840 q 154 980 117 943 q 245 1037 192 1017 q 365 1057 299 1057 q 487 1037 433 1057 q 578 980 540 1017 q 635 892 615 943 q 656 778 656 840 q 635 664 656 715 q 578 576 615 613 q 487 520 540 540 q 365 500 433 500 q 245 520 299 500 q 154 576 192 540 q 97 664 117 613 q 76 778 76 715 m 988 1017 l 1142 1017 l 389 -97 l 236 -97 l 988 1017 m 365 564 q 397 581 383 564 q 419 626 410 597 q 434 693 429 654 q 439 778 439 732 q 434 863 439 824 q 419 931 429 901 q 397 976 410 960 q 365 993 383 993 q 335 976 349 993 q 312 931 321 960 q 298 863 303 901 q 293 778 293 824 q 298 693 293 732 q 312 626 303 654 q 335 581 321 597 q 365 564 349 564 m 733 142 q 753 256 733 204 q 811 343 774 307 q 903 399 849 379 q 1024 419 957 419 q 1145 399 1092 419 q 1236 343 1199 379 q 1294 256 1274 307 q 1314 142 1314 204 q 1294 28 1314 79 q 1236 -60 1274 -24 q 1145 -117 1199 -97 q 1024 -137 1092 -137 q 903 -117 957 -137 q 811 -60 849 -97 q 753 28 774 -24 q 733 142 733 79 m 1024 -74 q 1054 -57 1040 -74 q 1078 -11 1068 -40 q 1092 57 1088 18 q 1097 142 1097 96 q 1092 226 1097 188 q 1078 294 1088 265 q 1054 339 1068 322 q 1024 356 1040 356 q 993 339 1007 356 q 970 294 979 322 q 956 226 961 265 q 951 142 951 188 q 956 57 951 96 q 970 -11 961 18 q 993 -57 979 -40 q 1024 -74 1007 -74 z "},"＆":{"ha":1389,"x_min":113,"x_max":1276,"o":"m 882 318 l 963 500 l 1258 500 l 1053 139 l 1276 -100 l 992 -100 l 917 -21 q 766 -109 853 -81 q 576 -137 679 -137 q 393 -115 478 -137 q 246 -51 308 -93 q 148 51 183 -10 q 113 190 113 113 q 138 296 113 246 q 206 387 163 346 q 310 459 250 428 q 439 510 369 490 q 364 574 399 539 q 304 647 329 610 q 265 722 279 685 q 251 792 251 760 q 285 911 251 861 q 373 994 318 961 q 499 1042 428 1026 q 644 1057 569 1057 q 792 1043 722 1057 q 914 999 861 1029 q 998 919 967 968 q 1029 803 1029 871 q 1006 710 1029 754 q 940 628 982 667 q 842 556 899 589 q 719 497 785 522 l 882 318 m 646 574 q 715 674 692 615 q 738 817 738 733 q 712 951 738 900 q 644 1001 686 1001 q 572 947 600 1001 q 543 808 543 892 q 575 674 543 733 q 646 574 607 614 m 529 426 q 448 322 478 383 q 418 176 418 260 q 431 80 418 125 q 467 1 444 35 q 519 -53 489 -33 q 582 -74 549 -74 q 651 -56 619 -74 q 708 -8 682 -37 q 753 56 733 21 q 788 126 774 92 l 529 426 z "},"＇":{"ha":1389,"x_min":581,"x_max":810,"o":"m 581 1081 l 810 1081 l 810 774 l 581 774 l 581 1081 z "},"（":{"ha":1389,"x_min":949,"x_max":1347,"o":"m 1250 -162 q 1123 -35 1179 -107 q 1028 117 1067 36 q 969 285 990 199 q 949 460 949 372 q 969 634 949 547 q 1028 801 990 721 q 1123 953 1067 882 q 1250 1081 1179 1025 l 1347 1081 q 1236 782 1268 940 q 1204 460 1204 624 q 1236 137 1204 296 q 1347 -162 1268 -22 l 1250 -162 z "},"）":{"ha":1389,"x_min":42,"x_max":440,"o":"m 42 -162 q 153 137 121 -22 q 185 460 185 296 q 153 782 185 624 q 42 1081 121 940 l 139 1081 q 266 953 210 1025 q 360 801 322 882 q 419 634 399 721 q 440 460 440 547 q 419 285 440 372 q 360 117 399 199 q 266 -35 322 36 q 139 -162 210 -107 l 42 -162 z "},"＊":{"ha":1389,"x_min":392,"x_max":999,"o":"m 576 756 l 392 796 l 447 967 l 622 893 l 606 1081 l 788 1081 l 768 893 l 943 967 l 999 796 l 814 756 l 940 617 l 792 511 l 694 672 l 599 511 l 449 617 l 576 756 z "},"＋":{"ha":1389,"x_min":392,"x_max":999,"o":"m 589 467 l 392 467 l 392 543 l 589 543 l 589 767 l 800 767 l 800 543 l 999 543 l 999 467 l 800 467 l 800 243 l 589 243 l 589 467 z "},"，":{"ha":1389,"x_min":69,"x_max":367,"o":"m 69 -300 q 163 -256 126 -292 q 200 -169 200 -221 q 113 -127 144 -162 q 81 -33 81 -92 q 118 68 81 29 q 218 107 156 107 q 331 54 296 107 q 367 -78 367 1 q 349 -184 367 -135 q 299 -272 332 -233 q 216 -336 265 -311 q 104 -368 167 -361 l 69 -300 z "},"－":{"ha":1389,"x_min":411,"x_max":979,"o":"m 411 533 l 979 533 l 979 457 l 411 457 l 411 533 z "},"．":{"ha":1389,"x_min":69,"x_max":358,"o":"m 69 -46 q 108 61 69 22 q 214 100 147 100 q 319 61 281 100 q 358 -46 358 22 q 319 -151 358 -111 q 214 -190 281 -190 q 108 -151 147 -190 q 69 -46 69 -111 z "},"／":{"ha":1389,"x_min":389,"x_max":1000,"o":"m 707 1081 l 1000 1081 l 683 -162 l 389 -162 l 707 1081 z "},"０":{"ha":1389,"x_min":214,"x_max":1176,"o":"m 694 -137 q 488 -97 578 -137 q 338 22 399 -56 q 245 210 276 99 q 214 460 214 321 q 245 710 214 599 q 338 898 276 821 q 488 1016 399 975 q 694 1057 578 1057 q 901 1016 811 1057 q 1052 898 990 975 q 1145 710 1114 821 q 1176 460 1176 599 q 1145 210 1176 321 q 1052 22 1114 99 q 901 -97 990 -56 q 694 -137 811 -137 m 694 -74 q 823 54 776 -74 q 869 460 869 182 q 823 865 869 738 q 694 993 776 993 q 566 865 613 993 q 519 460 519 738 q 566 54 519 182 q 694 -74 613 -74 z "},"１":{"ha":1389,"x_min":415,"x_max":975,"o":"m 668 899 l 469 790 l 415 861 l 681 1014 l 975 1014 l 975 -100 l 668 -100 l 668 899 z "},"２":{"ha":1389,"x_min":274,"x_max":1117,"o":"m 274 21 q 313 184 274 117 q 413 303 353 251 q 542 398 472 356 q 671 485 611 440 q 770 585 731 531 q 810 715 810 639 q 783 928 810 863 q 694 993 756 993 q 609 930 638 993 q 581 715 581 867 l 274 715 q 305 861 274 797 q 392 969 336 925 q 524 1035 447 1013 q 694 1057 601 1057 q 865 1035 788 1057 q 998 969 942 1013 q 1085 861 1054 925 q 1117 715 1117 797 q 1077 547 1117 614 q 978 429 1038 479 q 849 340 918 379 q 719 258 779 301 q 620 158 660 214 q 581 21 581 103 l 581 -33 l 1104 -33 l 1104 -97 l 274 -97 l 274 21 z "},"３":{"ha":1389,"x_min":242,"x_max":1149,"o":"m 535 193 q 579 -1 535 69 q 694 -72 624 -72 q 810 -1 765 -72 q 854 193 854 69 q 804 388 854 315 q 663 461 754 461 l 586 461 l 586 525 l 663 525 q 788 587 746 525 q 831 758 831 649 q 792 931 831 868 q 690 993 754 993 q 586 926 624 993 q 549 749 549 858 l 256 750 q 367 976 256 896 q 690 1057 479 1057 q 869 1038 789 1057 q 1006 980 950 1018 q 1093 886 1063 942 q 1124 758 1124 831 q 1110 681 1124 721 q 1074 604 1097 640 q 1017 538 1050 568 q 943 493 983 508 q 1020 446 983 478 q 1085 373 1057 414 q 1131 285 1114 332 q 1149 193 1149 239 q 1030 -52 1149 33 q 694 -137 911 -137 q 360 -52 478 -137 q 242 193 242 33 l 535 193 z "},"４":{"ha":1389,"x_min":204,"x_max":1185,"o":"m 204 221 l 719 1014 l 1025 1014 l 1025 217 l 1185 217 l 1185 153 l 1025 153 l 1025 -100 l 719 -100 l 719 153 l 204 153 l 204 221 m 719 217 l 719 782 l 356 217 l 719 217 z "},"５":{"ha":1389,"x_min":264,"x_max":1126,"o":"m 557 110 q 599 -28 564 21 q 686 -76 633 -76 q 794 10 757 -76 q 832 253 832 97 q 795 485 832 404 q 688 565 758 565 q 557 406 589 565 l 274 406 l 313 1014 l 1058 1014 l 1058 950 l 589 950 l 568 579 q 633 622 596 606 q 719 639 671 639 q 1020 546 914 639 q 1126 253 1126 453 q 1015 -40 1126 61 q 686 -140 903 -140 q 517 -123 593 -140 q 387 -73 442 -106 q 300 6 332 -40 q 264 111 268 53 l 557 110 z "},"６":{"ha":1389,"x_min":242,"x_max":1149,"o":"m 778 950 q 599 851 661 950 q 536 560 536 753 q 728 642 610 642 q 1039 542 929 642 q 1149 233 1149 443 q 1117 72 1149 142 q 1028 -44 1086 3 q 886 -116 969 -92 q 697 -140 803 -140 q 474 -106 561 -140 q 334 -4 386 -71 q 262 159 282 63 q 242 378 242 256 q 265 646 242 528 q 347 846 289 764 q 506 971 406 928 q 760 1014 606 1014 l 1028 1014 l 1028 950 l 778 950 m 696 -76 q 768 -52 738 -76 q 818 14 799 -28 q 847 112 838 56 q 856 233 856 168 q 819 479 856 393 q 696 565 782 565 q 571 478 606 565 q 536 233 536 392 q 545 112 536 168 q 574 14 554 56 q 623 -52 593 -28 q 696 -76 653 -76 z "},"７":{"ha":1389,"x_min":286,"x_max":1103,"o":"m 421 -100 q 548 450 457 188 q 790 950 639 713 l 286 950 l 286 1014 l 1103 1014 l 1103 950 q 856 441 951 711 q 728 -100 761 171 l 421 -100 z "},"８":{"ha":1389,"x_min":226,"x_max":1163,"o":"m 429 494 q 314 600 356 532 q 272 760 272 668 q 301 892 272 836 q 385 985 331 949 q 518 1039 440 1021 q 693 1057 596 1057 q 869 1039 790 1057 q 1003 985 947 1021 q 1088 892 1058 949 q 1118 760 1118 836 q 1076 597 1118 668 q 960 494 1035 526 q 1040 452 1003 479 q 1103 388 1076 425 q 1147 301 1131 350 q 1163 196 1163 253 q 1127 51 1163 114 q 1029 -53 1092 -11 q 881 -116 967 -94 q 693 -137 794 -137 q 506 -116 592 -137 q 358 -53 421 -94 q 261 51 296 -11 q 226 196 226 114 q 280 391 226 311 q 429 494 333 471 m 693 524 q 756 542 729 524 q 799 594 782 561 q 823 672 815 628 q 831 767 831 717 q 823 859 831 817 q 799 933 815 901 q 757 981 783 964 q 693 999 731 999 q 631 981 656 999 q 590 933 606 964 q 567 859 574 901 q 560 767 560 817 q 567 672 560 717 q 591 594 575 628 q 632 542 607 561 q 693 524 657 524 m 693 -79 q 826 -8 778 -79 q 875 189 875 63 q 861 302 875 251 q 823 390 847 353 q 765 446 799 426 q 693 465 732 465 q 623 446 656 465 q 566 390 590 426 q 528 302 542 353 q 514 189 514 251 q 562 -8 514 63 q 693 -79 610 -79 z "},"９":{"ha":1389,"x_min":242,"x_max":1149,"o":"m 363 -33 l 611 -33 q 792 65 729 -33 q 854 357 854 164 q 663 275 779 275 q 351 374 461 275 q 242 683 242 472 q 273 844 242 775 q 363 961 304 914 q 504 1033 421 1008 q 693 1057 588 1057 q 916 1022 828 1057 q 1056 921 1004 988 q 1128 758 1108 854 q 1149 539 1149 661 q 1125 271 1149 389 q 1043 71 1101 153 q 885 -54 985 -11 q 631 -97 785 -97 l 363 -97 l 363 -33 m 694 351 q 819 438 785 351 q 854 683 854 525 q 845 804 854 747 q 817 903 836 861 q 767 969 797 944 q 694 993 738 993 q 622 969 651 993 q 572 903 592 944 q 544 804 553 861 q 535 683 535 747 q 572 438 535 525 q 694 351 608 351 z "},"：":{"ha":1389,"x_min":550,"x_max":839,"o":"m 550 731 q 589 836 550 797 q 694 875 628 875 q 800 836 761 875 q 839 731 839 797 q 800 625 839 664 q 694 586 761 586 q 589 625 628 586 q 550 731 550 664 m 550 210 q 589 317 550 278 q 694 356 628 356 q 800 317 761 356 q 839 210 839 278 q 800 105 839 144 q 694 65 761 65 q 589 105 628 65 q 550 210 550 144 z "},"；":{"ha":1389,"x_min":546,"x_max":844,"o":"m 551 731 q 590 836 551 797 q 696 875 629 875 q 801 836 763 875 q 840 731 840 797 q 801 625 840 664 q 696 586 763 586 q 590 625 629 586 q 551 731 551 664 m 546 -44 q 640 -1 604 -36 q 676 86 676 35 q 590 128 622 93 q 558 222 558 164 q 596 324 558 285 q 696 363 633 363 q 809 310 774 363 q 844 178 844 257 q 827 72 844 121 q 776 -17 810 22 q 694 -81 743 -56 q 581 -112 644 -106 l 546 -44 z "},"＜":{"ha":1389,"x_min":831,"x_max":1333,"o":"m 831 460 l 1208 1081 l 1333 1081 l 1099 460 l 1333 -162 l 1208 -162 l 831 460 z "},"＝":{"ha":1389,"x_min":411,"x_max":979,"o":"m 411 633 l 979 633 l 979 569 l 411 569 l 411 633 m 411 403 l 979 403 l 979 339 l 411 339 l 411 403 z "},"＞":{"ha":1389,"x_min":56,"x_max":558,"o":"m 290 460 l 56 1081 l 181 1081 l 558 460 l 181 -162 l 56 -162 l 290 460 z "},"？":{"ha":1389,"x_min":281,"x_max":1108,"o":"m 281 685 q 285 763 281 731 q 301 832 290 796 q 359 935 319 892 q 453 1005 399 978 q 574 1044 507 1032 q 718 1057 642 1057 q 874 1037 803 1057 q 998 981 946 1017 q 1079 894 1050 944 q 1108 786 1108 844 q 1094 690 1108 735 q 1056 608 1081 646 q 999 536 1032 569 q 926 474 965 503 q 858 383 883 442 q 831 267 832 324 l 540 267 q 679 547 536 431 q 735 599 708 571 q 784 658 763 626 q 818 724 806 689 q 831 796 831 758 q 819 885 831 847 q 788 947 807 922 q 745 982 769 971 q 694 993 721 993 q 610 955 643 993 q 567 832 576 917 q 560 764 563 797 q 558 685 558 731 l 281 685 m 514 15 q 560 136 514 90 q 681 182 606 182 q 801 136 756 182 q 846 15 846 90 q 801 -106 846 -60 q 681 -151 756 -151 q 560 -106 606 -151 q 514 15 514 -60 z "},"＠":{"ha":1389,"x_min":94,"x_max":1294,"o":"m 1110 -111 q 918 -172 1015 -151 q 724 -192 821 -192 q 457 -146 574 -192 q 260 -18 340 -100 q 137 177 179 64 q 94 425 94 290 q 142 681 94 564 q 276 881 190 797 q 476 1010 361 964 q 728 1057 592 1057 q 949 1024 846 1057 q 1130 926 1053 992 q 1251 763 1207 861 q 1294 532 1294 664 q 1270 349 1294 429 q 1202 214 1246 269 q 1099 129 1158 158 q 968 100 1039 100 q 875 122 915 100 q 814 176 835 143 q 735 120 782 140 q 631 100 688 100 q 519 123 565 100 q 443 185 474 146 q 399 277 413 225 q 385 388 385 329 q 407 530 385 460 q 472 654 429 600 q 574 742 514 708 q 708 775 633 775 q 790 751 751 775 q 850 690 829 726 l 864 749 l 1029 749 l 968 425 q 958 363 963 393 q 953 308 953 332 q 960 247 953 271 q 983 224 967 224 q 1037 247 1013 224 q 1078 311 1061 271 q 1106 405 1096 351 q 1115 518 1115 458 q 1088 695 1117 618 q 1008 826 1060 772 q 885 907 957 879 q 726 935 813 935 q 543 896 625 935 q 403 788 461 857 q 313 626 344 719 q 282 422 282 532 q 313 219 282 310 q 401 65 343 128 q 543 -33 460 1 q 732 -67 626 -67 q 901 -46 811 -67 q 1079 11 992 -25 l 1110 -111 m 654 228 q 715 252 690 228 q 756 315 740 276 q 782 399 772 353 q 796 486 792 444 q 794 544 797 515 q 783 598 792 574 q 758 637 774 622 q 717 651 742 651 q 656 626 682 651 q 611 560 629 600 q 584 474 593 521 q 575 382 575 426 q 578 331 575 358 q 591 281 582 304 q 615 243 600 258 q 654 228 631 228 z "},"Ａ":{"ha":1389,"x_min":139,"x_max":1251,"o":"m 522 1014 l 868 1014 l 1251 -100 l 932 -100 l 889 38 l 501 38 l 458 -100 l 139 -100 l 522 1014 m 826 242 l 696 663 l 564 242 l 826 242 m 869 101 l 846 178 l 544 178 l 521 101 l 869 101 z "},"Ｂ":{"ha":1389,"x_min":210,"x_max":1181,"o":"m 210 1014 l 824 1014 q 1065 939 975 1014 q 1154 721 1154 864 q 1140 640 1154 679 q 1099 569 1125 601 q 1038 511 1072 536 q 963 471 1003 486 q 1049 438 1010 460 q 1118 381 1089 415 q 1164 300 1147 346 q 1181 194 1181 254 q 1157 59 1181 115 q 1090 -33 1133 3 q 986 -84 1047 -68 q 850 -100 925 -100 l 210 -100 l 210 1014 m 658 490 q 749 508 713 490 q 808 558 786 526 q 840 631 831 589 q 849 721 849 672 q 840 812 849 769 q 808 885 831 854 q 749 933 786 915 q 658 950 713 950 l 515 950 l 515 490 l 658 490 m 683 -36 q 775 -22 739 -36 q 833 21 811 -8 q 865 93 856 50 q 874 194 874 136 q 865 297 874 253 q 833 369 856 340 q 775 413 811 399 q 683 426 739 426 l 515 426 l 515 -36 l 683 -36 z "},"Ｃ":{"ha":1389,"x_min":144,"x_max":1246,"o":"m 1246 244 q 1196 77 1239 149 q 1082 -42 1153 6 q 917 -114 1011 -90 q 710 -137 822 -137 q 469 -101 575 -137 q 292 8 364 -65 q 182 194 219 82 q 144 460 144 307 q 182 725 144 613 q 292 911 219 838 q 469 1021 364 985 q 710 1057 575 1057 q 917 1033 822 1057 q 1082 962 1011 1010 q 1196 842 1153 914 q 1246 675 1239 771 l 929 675 q 910 830 929 768 q 861 928 892 892 q 791 978 831 964 q 710 993 751 993 q 613 970 660 993 q 529 888 565 947 q 472 724 493 828 q 450 460 450 621 q 472 195 450 299 q 529 32 493 92 q 613 -51 565 -28 q 710 -74 660 -74 q 791 -59 751 -74 q 861 -8 831 -44 q 910 89 892 28 q 929 244 929 150 l 1246 244 z "},"Ｄ":{"ha":1389,"x_min":175,"x_max":1214,"o":"m 175 1014 l 643 1014 q 887 981 781 1014 q 1066 881 993 949 q 1176 708 1139 814 q 1214 457 1214 603 q 1176 206 1214 311 q 1066 33 1139 100 q 887 -67 993 -35 q 643 -100 781 -100 l 175 -100 l 175 1014 m 643 -49 q 744 -28 696 -49 q 828 48 792 -8 q 887 202 865 104 q 908 457 908 300 q 887 711 908 613 q 828 866 865 810 q 744 942 792 922 q 643 963 696 963 l 481 963 l 481 -49 l 643 -49 z "},"Ｅ":{"ha":1389,"x_min":279,"x_max":1110,"o":"m 279 1014 l 1110 1014 l 1110 950 l 585 950 l 585 771 l 1110 771 l 1110 707 l 585 707 l 585 510 l 1110 510 l 1110 446 l 585 446 l 585 244 l 1110 244 l 1110 181 l 585 181 l 585 -36 l 1110 -36 l 1110 -100 l 279 -100 l 279 1014 z "},"Ｆ":{"ha":1389,"x_min":279,"x_max":1110,"o":"m 279 1014 l 1110 1014 l 1110 950 l 585 950 l 585 497 l 1083 497 l 1083 433 l 585 433 l 585 -100 l 279 -100 l 279 1014 z "},"Ｇ":{"ha":1389,"x_min":136,"x_max":1253,"o":"m 693 406 l 1253 406 l 1253 349 q 1215 121 1253 214 q 1108 -29 1178 28 q 936 -112 1038 -86 q 707 -137 835 -137 q 284 8 432 -137 q 136 460 136 154 q 284 911 136 765 q 707 1057 432 1057 q 917 1033 821 1057 q 1085 958 1014 1008 q 1200 831 1157 908 q 1250 649 1243 754 l 935 649 q 918 824 936 754 q 867 933 900 893 q 793 990 835 974 q 707 1006 751 1006 q 606 981 654 1006 q 521 896 557 957 q 463 729 485 835 q 442 460 442 624 q 463 190 442 296 q 521 23 485 85 q 606 -62 557 -39 q 707 -86 654 -86 q 800 -69 757 -86 q 875 -6 843 -53 q 926 124 907 40 q 944 342 944 207 l 693 342 l 693 406 m 693 547 l 1253 547 l 1253 483 l 693 483 l 693 547 z "},"Ｈ":{"ha":1389,"x_min":203,"x_max":1186,"o":"m 203 1014 l 508 1014 l 508 510 l 881 510 l 881 1014 l 1186 1014 l 1186 -100 l 881 -100 l 881 446 l 508 446 l 508 -100 l 203 -100 l 203 1014 z "},"Ｉ":{"ha":1389,"x_min":542,"x_max":847,"o":"m 542 1014 l 847 1014 l 847 -100 l 542 -100 l 542 1014 z "},"Ｊ":{"ha":1389,"x_min":435,"x_max":956,"o":"m 435 -86 q 599 -33 550 -86 q 649 128 649 19 l 649 1014 l 956 1014 l 956 192 q 912 39 956 101 q 796 -63 868 -24 q 630 -120 724 -103 q 435 -137 536 -137 l 435 -86 z "},"Ｋ":{"ha":1389,"x_min":228,"x_max":1161,"o":"m 228 1014 l 533 1014 l 533 513 l 969 1014 l 1097 1014 l 676 506 l 1161 -100 l 944 -100 l 533 417 l 533 -100 l 228 -100 l 228 1014 z "},"Ｌ":{"ha":1389,"x_min":261,"x_max":1129,"o":"m 261 1014 l 567 1014 l 567 104 l 1129 104 l 1129 40 l 567 40 l 567 -36 l 1129 -36 l 1129 -100 l 261 -100 l 261 1014 z "},"Ｍ":{"ha":1389,"x_min":117,"x_max":1272,"o":"m 117 1014 l 397 1014 l 694 150 l 992 1014 l 1272 1014 l 1272 -100 l 1004 -100 l 1004 771 l 736 1 l 653 1 l 385 771 l 385 -100 l 117 -100 l 117 1014 z "},"Ｎ":{"ha":1389,"x_min":215,"x_max":1174,"o":"m 215 1014 l 521 1014 l 867 101 l 867 1014 l 1174 1014 l 1174 -100 l 867 -100 l 521 813 l 521 -100 l 215 -100 l 215 1014 z "},"Ｏ":{"ha":1389,"x_min":124,"x_max":1265,"o":"m 694 -137 q 272 8 419 -137 q 124 460 124 154 q 272 911 124 765 q 694 1057 419 1057 q 1117 911 969 1057 q 1265 460 1265 765 q 1117 8 1265 154 q 694 -137 969 -137 m 694 -74 q 795 -51 747 -74 q 879 33 843 -28 q 937 196 915 93 q 958 460 958 299 q 937 723 958 619 q 879 887 915 826 q 795 970 843 947 q 694 993 747 993 q 593 970 642 993 q 508 887 544 947 q 451 723 472 826 q 429 460 429 619 q 451 196 429 299 q 508 33 472 93 q 593 -51 544 -28 q 694 -74 642 -74 z "},"Ｐ":{"ha":1389,"x_min":210,"x_max":1181,"o":"m 210 1014 l 850 1014 q 1091 928 1001 1014 q 1181 674 1181 842 q 1091 421 1181 507 q 850 335 1001 335 l 515 335 l 515 -100 l 210 -100 l 210 1014 m 683 399 q 775 419 739 399 q 833 475 811 439 q 865 562 856 511 q 874 674 874 613 q 865 787 874 736 q 833 874 856 838 q 775 930 811 910 q 683 950 739 950 l 515 950 l 515 399 l 683 399 z "},"Ｑ":{"ha":1389,"x_min":124,"x_max":1265,"o":"m 774 -135 q 735 -137 754 -137 q 694 -137 715 -137 q 272 8 419 -137 q 124 460 124 154 q 272 911 124 765 q 694 1057 419 1057 q 1117 911 969 1057 q 1265 460 1265 765 q 1210 149 1265 274 q 1049 -47 1156 24 l 1210 -312 l 890 -312 l 774 -135 m 694 -86 q 795 -62 747 -86 q 879 23 843 -39 q 937 190 915 85 q 958 460 958 296 q 937 729 958 624 q 879 896 915 835 q 795 981 843 957 q 694 1006 747 1006 q 593 981 642 1006 q 508 896 544 957 q 451 729 472 835 q 429 460 429 624 q 451 190 429 296 q 508 23 472 85 q 593 -62 544 -39 q 694 -86 642 -86 z "},"Ｒ":{"ha":1389,"x_min":197,"x_max":1193,"o":"m 197 1014 l 838 1014 q 1078 934 989 1014 q 1168 693 1168 854 q 1117 497 1168 572 q 974 392 1065 422 l 1193 -100 l 886 -100 l 675 372 l 503 372 l 503 -100 l 197 -100 l 197 1014 m 671 436 q 763 454 726 436 q 821 506 799 472 q 852 588 843 540 q 861 693 861 635 q 852 799 861 751 q 821 880 843 846 q 763 932 799 914 q 671 950 726 950 l 503 950 l 503 436 l 671 436 z "},"Ｓ":{"ha":1389,"x_min":197,"x_max":1193,"o":"m 503 244 l 503 189 q 554 -11 503 51 q 694 -74 606 -74 q 834 -11 782 -74 q 886 192 886 51 q 875 290 886 249 q 838 362 864 332 q 769 412 813 392 q 660 446 725 432 q 490 488 571 465 q 347 548 408 511 q 248 640 285 585 q 211 779 211 696 q 251 903 211 850 q 358 990 292 956 q 512 1040 425 1024 q 693 1057 599 1057 q 896 1035 804 1057 q 1053 973 988 1014 q 1156 873 1119 932 q 1192 738 1192 814 l 1192 689 l 872 689 l 872 731 q 860 854 872 804 q 824 935 847 904 q 768 980 801 967 q 693 993 735 993 q 625 981 657 993 q 569 942 593 968 q 532 874 546 915 q 518 776 518 833 q 577 603 518 671 q 775 507 636 536 q 940 467 864 488 q 1073 411 1017 446 q 1161 323 1129 376 q 1193 186 1193 269 q 1158 40 1193 101 q 1056 -60 1122 -21 q 899 -119 990 -100 q 694 -137 807 -137 q 490 -119 582 -137 q 333 -60 399 -100 q 233 42 268 -19 q 197 189 197 103 l 197 244 l 503 244 z "},"Ｔ":{"ha":1389,"x_min":208,"x_max":1181,"o":"m 208 1014 l 1181 1014 l 1181 950 l 208 950 l 208 1014 m 542 810 l 208 810 l 208 874 l 1181 874 l 1181 810 l 847 810 l 847 -100 l 542 -100 l 542 810 z "},"Ｕ":{"ha":1389,"x_min":175,"x_max":1214,"o":"m 481 1014 l 481 128 q 531 -33 481 19 q 694 -86 581 -86 q 859 -33 810 -86 q 908 128 908 19 l 908 1014 l 1214 1014 l 1214 192 q 1171 39 1214 101 q 1056 -63 1128 -24 q 890 -120 983 -103 q 694 -137 796 -137 q 489 -120 583 -137 q 324 -63 394 -103 q 215 39 254 -24 q 175 192 175 101 l 175 1014 l 481 1014 z "},"Ｖ":{"ha":1389,"x_min":174,"x_max":1217,"o":"m 174 1014 l 481 1014 l 776 74 l 1089 1014 l 1217 1014 l 842 -100 l 540 -100 l 174 1014 z "},"Ｗ":{"ha":1389,"x_min":-17,"x_max":1404,"o":"m -17 1014 l 290 1014 l 460 131 l 656 913 l 732 913 l 928 131 l 1097 1014 l 1404 1014 l 1178 -100 l 900 -100 l 694 718 l 489 -100 l 210 -100 l -17 1014 z "},"Ｘ":{"ha":1389,"x_min":183,"x_max":1206,"o":"m 582 399 l 193 1014 l 499 1014 l 753 613 l 1074 1014 l 1201 1014 l 813 519 l 1206 -100 l 899 -100 l 643 304 l 324 -100 l 183 -100 l 582 399 z "},"Ｙ":{"ha":1389,"x_min":182,"x_max":1207,"o":"m 539 381 l 182 1014 l 489 1014 l 776 489 l 1079 1014 l 1207 1014 l 846 372 l 846 -100 l 539 -100 l 539 381 z "},"Ｚ":{"ha":1389,"x_min":240,"x_max":1150,"o":"m 240 21 l 815 950 l 274 950 l 274 1014 l 1111 1014 l 1111 893 l 538 -36 l 1150 -36 l 1150 -100 l 240 -100 l 240 21 z "},"［":{"ha":1389,"x_min":874,"x_max":1340,"o":"m 874 1068 l 1340 1068 l 1340 992 l 1181 992 l 1181 -86 l 1340 -86 l 1340 -162 l 874 -162 l 874 1068 z "},"￦":{"ha":1389,"x_min":97,"x_max":1292,"o":"m 226 385 l 97 385 l 97 449 l 217 449 l 125 1014 l 371 1014 l 457 449 l 569 449 l 664 913 l 725 913 l 817 449 l 929 449 l 1017 1014 l 1261 1014 l 1169 449 l 1292 449 l 1292 385 l 1160 385 l 1081 -100 l 833 -100 l 740 385 l 647 385 l 554 -100 l 306 -100 l 226 385 m 729 449 l 694 628 l 660 449 l 729 449 m 557 385 l 467 385 l 506 131 l 557 385 m 919 385 l 831 385 l 881 131 l 919 385 z "},"］":{"ha":1389,"x_min":49,"x_max":515,"o":"m 49 -86 l 208 -86 l 208 992 l 49 992 l 49 1068 l 515 1068 l 515 -162 l 49 -162 l 49 -86 z "},"＾":{"ha":1389,"x_min":331,"x_max":1060,"o":"m 588 1068 l 818 1068 l 1060 685 l 829 685 l 703 910 l 561 685 l 331 685 l 588 1068 z "},"＿":{"ha":1389,"x_min":411,"x_max":979,"o":"m 411 -136 l 979 -136 l 979 -212 l 411 -212 l 411 -136 z "},"｀":{"ha":1389,"x_min":501,"x_max":889,"o":"m 501 1081 l 757 1081 l 889 774 l 697 774 l 501 1081 z "},"ａ":{"ha":1389,"x_min":274,"x_max":1117,"o":"m 358 644 q 541 676 446 664 q 732 688 636 688 q 902 677 831 688 q 1020 639 974 667 q 1089 564 1067 611 q 1111 444 1111 517 l 1111 85 q 1112 43 1111 68 q 1113 -9 1113 18 q 1115 -61 1114 -36 q 1117 -100 1115 -86 l 824 -100 q 819 -74 821 -89 q 817 -49 817 -60 q 713 -96 772 -82 q 594 -110 653 -110 q 357 -47 440 -110 q 274 136 274 15 q 392 358 274 286 q 731 429 510 429 l 817 429 l 817 488 q 814 542 817 518 q 801 583 811 567 q 771 608 790 600 q 718 617 751 617 l 676 617 q 526 603 601 617 q 375 571 450 590 l 358 644 m 817 365 l 794 365 q 695 346 738 365 q 624 294 653 326 q 582 221 596 263 q 568 136 568 179 q 600 17 568 54 q 681 -21 632 -21 q 767 6 729 -21 q 817 78 804 32 l 817 365 z "},"ｂ":{"ha":1389,"x_min":243,"x_max":1147,"o":"m 243 1015 l 538 1015 l 538 603 q 631 665 574 643 q 750 688 688 688 q 1044 585 940 688 q 1147 285 1147 483 q 1043 -13 1147 92 q 750 -118 939 -118 q 628 -90 683 -118 q 538 -14 574 -62 l 538 -100 l 243 -100 l 243 1015 m 538 75 q 592 -7 554 28 q 674 -42 631 -42 q 755 -16 721 -42 q 811 54 789 10 q 844 158 833 99 q 854 285 854 218 q 844 406 854 347 q 811 510 833 465 q 755 583 789 556 q 674 611 721 611 q 594 588 631 611 q 538 526 557 564 l 538 75 z "},"ｃ":{"ha":1389,"x_min":235,"x_max":1154,"o":"m 1154 126 q 1110 10 1149 60 q 1010 -72 1072 -39 q 867 -121 949 -104 q 694 -137 786 -137 q 356 -37 476 -137 q 235 275 235 64 q 356 586 235 485 q 694 688 476 688 q 867 671 786 688 q 1010 622 949 654 q 1110 540 1072 589 q 1154 424 1149 490 l 860 424 q 845 525 860 485 q 806 589 831 565 q 753 622 782 613 q 694 632 724 632 q 629 617 660 632 q 576 561 599 601 q 542 451 554 521 q 529 275 529 382 q 542 99 529 168 q 576 -11 554 29 q 629 -67 599 -51 q 694 -82 660 -82 q 753 -72 724 -82 q 806 -39 782 -62 q 845 25 831 -15 q 860 126 860 65 l 1154 126 z "},"ｄ":{"ha":1389,"x_min":243,"x_max":1147,"o":"m 853 -14 q 762 -90 817 -62 q 640 -118 707 -118 q 347 -13 451 -118 q 243 285 243 92 q 347 585 243 483 q 640 688 450 688 q 760 665 703 688 q 853 603 817 643 l 853 1015 l 1147 1015 l 1147 -100 l 853 -100 l 853 -14 m 853 526 q 797 588 833 564 q 717 611 760 611 q 635 583 669 611 q 579 510 601 556 q 547 406 557 465 q 536 285 536 347 q 547 158 536 218 q 579 54 557 99 q 635 -16 601 10 q 717 -42 669 -42 q 798 -7 760 -42 q 853 75 836 28 l 853 526 z "},"ｅ":{"ha":1389,"x_min":240,"x_max":1150,"o":"m 1143 110 q 1017 -77 1132 -17 q 692 -137 903 -137 q 356 -25 471 -137 q 240 294 240 88 q 358 587 240 486 q 694 688 475 688 q 885 662 800 688 q 1028 587 969 636 q 1119 464 1088 538 q 1150 294 1150 390 l 1150 257 l 535 257 q 572 0 536 82 q 692 -82 608 -82 q 808 -34 768 -82 q 849 110 849 14 l 1143 110 m 856 321 q 846 468 856 408 q 817 564 836 528 q 767 616 797 600 q 694 632 736 632 q 622 616 653 632 q 572 564 592 600 q 543 468 553 528 q 533 321 533 408 l 856 321 z "},"ｆ":{"ha":1389,"x_min":358,"x_max":1031,"o":"m 497 603 l 358 603 l 358 667 l 497 667 l 497 763 q 589 945 497 876 q 846 1014 681 1014 l 1031 1014 l 1031 950 l 904 950 q 824 913 856 950 q 792 800 792 875 l 792 667 l 1004 667 l 1004 603 l 792 603 l 792 -100 l 497 -100 l 497 603 z "},"ｇ":{"ha":1389,"x_min":253,"x_max":1138,"o":"m 368 -257 q 523 -290 443 -276 q 678 -303 603 -303 q 819 -243 778 -303 q 860 -74 860 -183 q 768 -124 815 -108 q 663 -139 721 -139 q 489 -108 565 -139 q 360 -22 413 -78 q 281 108 308 33 q 253 274 253 183 q 278 439 253 363 q 354 570 303 515 q 481 656 406 625 q 660 688 557 688 q 767 668 718 688 q 843 611 815 649 l 843 667 l 1138 667 l 1138 -22 q 1033 -287 1138 -200 q 703 -374 928 -374 q 517 -363 599 -374 q 351 -331 436 -353 l 368 -257 m 843 499 q 832 548 843 525 q 802 588 821 571 q 758 614 783 604 q 706 624 733 624 q 628 593 658 624 q 579 513 597 563 q 554 400 561 463 q 547 274 547 338 q 553 149 547 211 q 576 36 560 86 q 619 -44 592 -14 q 690 -75 647 -75 q 784 -49 740 -75 q 843 29 828 -22 l 843 499 z "},"ｈ":{"ha":1389,"x_min":251,"x_max":1138,"o":"m 251 1014 l 546 1014 l 546 606 q 649 668 592 649 q 789 688 707 688 q 1047 615 957 688 q 1138 388 1138 542 l 1138 -100 l 843 -100 l 843 404 q 817 562 843 513 q 721 611 792 611 q 627 588 672 611 q 547 517 582 565 l 547 -100 l 253 -100 l 251 1014 z "},"ｉ":{"ha":1389,"x_min":535,"x_max":854,"o":"m 535 928 q 578 1038 535 997 q 694 1079 622 1079 q 810 1038 765 1079 q 854 928 854 997 q 810 818 854 860 q 694 776 765 776 q 578 818 622 776 q 535 928 535 860 m 547 667 l 842 667 l 842 -100 l 547 -100 l 547 667 z "},"ｊ":{"ha":1389,"x_min":428,"x_max":963,"o":"m 643 928 q 687 1038 643 997 q 803 1079 731 1079 q 918 1038 874 1079 q 963 928 963 997 q 918 818 963 860 q 803 776 874 776 q 687 818 731 776 q 643 928 643 860 m 428 -321 q 602 -268 549 -321 q 656 -107 656 -215 l 656 667 l 950 667 l 950 -43 q 906 -196 950 -133 q 790 -298 863 -258 q 623 -355 717 -337 q 428 -372 529 -372 l 428 -321 z "},"ｋ":{"ha":1389,"x_min":275,"x_max":1114,"o":"m 275 1014 l 569 1014 l 569 332 l 922 667 l 1038 667 l 690 325 l 1114 -100 l 910 -100 l 569 235 l 569 -100 l 275 -100 l 275 1014 z "},"ｌ":{"ha":1389,"x_min":468,"x_max":922,"o":"m 746 -100 q 539 -34 610 -100 q 468 136 468 32 l 468 1014 l 763 1014 l 763 61 q 860 -36 763 -36 l 922 -36 l 922 -100 l 746 -100 z "},"ｍ":{"ha":1389,"x_min":89,"x_max":1301,"o":"m 89 667 l 344 667 l 344 579 q 432 658 375 628 q 553 688 489 688 q 684 660 633 688 q 775 569 735 633 q 870 658 818 628 q 997 688 922 688 q 1134 668 1076 688 q 1228 614 1192 649 q 1283 530 1265 579 q 1301 422 1301 481 l 1301 -100 l 1046 -100 l 1046 432 q 1020 561 1046 522 q 949 600 994 600 q 859 566 899 600 q 806 475 819 532 l 806 -100 l 588 -100 l 588 432 q 562 561 588 522 q 490 600 536 600 q 397 557 440 600 q 344 436 354 514 l 344 -100 l 89 -100 l 89 667 z "},"ｎ":{"ha":1389,"x_min":256,"x_max":1135,"o":"m 256 667 l 550 667 l 550 578 q 650 658 583 628 q 789 688 717 688 q 940 672 875 688 q 1048 618 1004 656 q 1113 517 1092 581 q 1135 361 1135 454 l 1135 -100 l 840 -100 l 840 336 q 809 522 840 460 q 693 585 778 585 q 643 574 667 585 q 601 544 619 563 q 569 501 582 525 q 550 450 556 476 l 550 -100 l 256 -100 l 256 667 z "},"ｏ":{"ha":1389,"x_min":233,"x_max":1156,"o":"m 233 275 q 353 579 233 471 q 694 688 474 688 q 1035 579 915 688 q 1156 275 1156 471 q 1035 -29 1156 79 q 694 -137 915 -137 q 353 -29 474 -137 q 233 275 233 79 m 694 -79 q 769 -60 738 -79 q 821 3 800 -40 q 851 113 842 46 q 861 275 861 181 q 821 547 861 464 q 694 629 781 629 q 568 547 608 629 q 528 275 528 464 q 538 113 528 181 q 568 3 547 46 q 620 -60 589 -40 q 694 -79 651 -79 z "},"ｐ":{"ha":1389,"x_min":243,"x_max":1147,"o":"m 243 667 l 538 667 l 538 603 q 631 665 574 643 q 750 688 688 688 q 1044 583 940 688 q 1147 275 1147 478 q 1043 -29 1147 79 q 750 -137 939 -137 q 628 -110 683 -137 q 538 -33 574 -82 l 538 -372 l 243 -372 l 243 667 m 538 56 q 592 -26 554 8 q 674 -61 631 -61 q 755 -35 721 -61 q 811 38 789 -8 q 844 144 833 83 q 854 275 854 206 q 844 399 854 339 q 811 507 833 460 q 755 583 789 554 q 674 611 721 611 q 594 588 631 611 q 538 526 557 564 l 538 56 z "},"ｑ":{"ha":1389,"x_min":243,"x_max":1147,"o":"m 853 -33 q 762 -110 817 -82 q 640 -137 707 -137 q 347 -29 451 -137 q 243 275 243 79 q 347 583 243 478 q 640 688 450 688 q 760 665 703 688 q 853 603 817 643 l 853 667 l 1147 667 l 1147 -372 l 853 -372 l 853 -33 m 853 526 q 797 588 833 564 q 717 611 760 611 q 635 583 669 611 q 579 507 601 554 q 547 399 557 460 q 536 275 536 339 q 547 144 536 206 q 579 38 557 83 q 635 -35 601 -8 q 717 -61 669 -61 q 798 -26 760 -61 q 853 56 836 8 l 853 526 z "},"ｒ":{"ha":1389,"x_min":406,"x_max":985,"o":"m 406 667 l 700 667 l 700 561 q 788 642 739 617 q 908 667 838 667 l 985 667 l 985 603 l 918 603 q 783 547 839 603 q 700 396 728 492 l 700 -100 l 406 -100 l 406 667 z "},"ｓ":{"ha":1389,"x_min":272,"x_max":1118,"o":"m 567 126 l 567 88 q 601 -41 567 0 q 699 -82 636 -82 q 795 -41 760 -82 q 831 90 831 0 q 823 158 831 129 q 798 208 815 188 q 751 242 781 228 q 675 265 721 256 q 544 295 614 279 q 417 336 475 311 q 320 399 358 361 q 282 496 282 438 q 317 581 282 544 q 409 640 351 617 q 542 676 467 664 q 697 688 617 688 q 865 673 789 688 q 998 630 942 658 q 1085 560 1054 601 q 1117 467 1117 519 l 1117 433 l 822 433 l 822 463 q 789 594 822 557 q 697 632 756 632 q 613 599 649 632 q 576 493 576 565 q 617 374 576 421 q 754 307 658 328 q 880 280 815 294 q 997 242 944 265 q 1084 181 1050 218 q 1118 86 1118 144 q 1087 -15 1118 28 q 1000 -84 1056 -57 q 867 -124 944 -111 q 699 -137 790 -137 q 527 -124 606 -137 q 392 -84 449 -111 q 304 -14 336 -57 q 272 88 272 29 l 272 126 l 567 126 z "},"ｔ":{"ha":1389,"x_min":358,"x_max":1031,"o":"m 844 -100 q 588 -31 679 -100 q 497 151 497 38 l 497 603 l 358 603 l 358 667 l 497 667 l 497 921 l 792 921 l 792 667 l 1004 667 l 1004 603 l 792 603 l 792 114 q 824 1 792 39 q 904 -36 856 -36 l 1031 -36 l 1031 -100 l 844 -100 z "},"ｕ":{"ha":1389,"x_min":256,"x_max":1135,"o":"m 840 -7 q 798 -63 824 -39 q 740 -104 772 -87 q 673 -129 708 -121 q 601 -137 638 -137 q 450 -122 515 -137 q 342 -67 385 -106 q 277 33 299 -29 q 256 189 256 96 l 256 667 l 550 667 l 550 214 q 581 28 550 90 q 697 -35 611 -35 q 741 -22 718 -35 q 784 11 764 -10 q 819 60 804 32 q 840 121 835 89 l 840 667 l 1135 667 l 1135 -100 l 840 -100 l 840 -7 z "},"ｖ":{"ha":1389,"x_min":242,"x_max":1149,"o":"m 242 667 l 524 667 l 781 69 l 1044 667 l 1149 667 l 818 -100 l 582 -100 l 242 667 z "},"ｗ":{"ha":1389,"x_min":68,"x_max":1321,"o":"m 68 667 l 350 667 l 490 65 l 650 615 l 739 615 l 899 65 l 1039 667 l 1321 667 l 1115 -100 l 860 -100 l 694 475 l 529 -100 l 274 -100 l 68 667 z "},"ｘ":{"ha":1389,"x_min":258,"x_max":1132,"o":"m 592 235 l 258 667 l 540 667 l 742 406 l 974 667 l 1089 667 l 797 333 l 1132 -100 l 851 -100 l 647 164 l 417 -100 l 296 -100 l 592 235 z "},"ｙ":{"ha":1389,"x_min":272,"x_max":1117,"o":"m 560 -22 l 272 667 l 376 667 l 611 104 l 836 667 l 1117 667 l 701 -374 l 419 -374 l 560 -22 z "},"ｚ":{"ha":1389,"x_min":311,"x_max":1078,"o":"m 311 -36 l 743 603 l 343 603 l 343 667 l 1056 667 l 1056 603 l 619 -35 l 1078 -36 l 1078 -100 l 311 -100 l 311 -36 z "},"｛":{"ha":1389,"x_min":821,"x_max":1340,"o":"m 1147 -162 q 1067 -147 1103 -162 q 1007 -105 1032 -132 q 969 -40 982 -78 q 956 40 956 -3 l 956 228 q 918 348 956 306 q 821 393 881 390 l 821 525 q 918 569 881 528 q 956 689 956 611 l 956 878 q 969 958 956 921 q 1007 1023 982 996 q 1067 1065 1032 1050 q 1147 1081 1103 1081 l 1340 1081 l 1340 1017 l 1269 1017 q 1224 988 1238 1017 q 1211 914 1211 960 l 1211 654 q 1185 540 1211 592 q 1107 460 1160 488 l 1107 457 q 1185 378 1160 429 q 1211 264 1211 326 l 1211 4 q 1224 -71 1211 -43 q 1269 -99 1238 -99 l 1340 -99 l 1340 -162 l 1147 -162 z "},"｜":{"ha":1389,"x_min":567,"x_max":822,"o":"m 567 1081 l 822 1081 l 822 -162 l 567 -162 l 567 1081 z "},"｝":{"ha":1389,"x_min":49,"x_max":568,"o":"m 49 -99 l 119 -99 q 165 -71 151 -99 q 179 4 179 -43 l 179 264 q 204 378 179 326 q 282 457 229 429 l 282 460 q 204 540 229 488 q 179 654 179 592 l 179 914 q 165 988 179 960 q 119 1017 151 1017 l 49 1017 l 49 1081 l 243 1081 q 322 1065 286 1081 q 382 1023 357 1050 q 421 958 407 996 q 435 878 435 921 l 435 689 q 472 569 435 611 q 568 525 508 528 l 568 393 q 472 348 508 390 q 435 228 435 306 l 435 40 q 422 -40 435 -3 q 383 -105 408 -78 q 323 -147 358 -132 q 243 -162 288 -162 l 49 -162 l 49 -99 z "},"‾":{"ha":1389,"x_min":257,"x_max":1131,"o":"m 257 1056 l 1131 1056 l 1131 992 l 257 992 l 257 1056 z "},"￣":{"ha":1389,"x_min":257,"x_max":1131,"o":"m 257 1056 l 1131 1056 l 1131 992 l 257 992 l 257 1056 z "},"ㄱ":{"ha":1311,"x_min":113,"x_max":1199,"o":"m 113 801 l 1122 801 q 1178 781 1157 801 q 1199 725 1199 760 l 1199 99 l 892 99 l 892 738 l 113 738 l 113 801 z "},"ㄲ":{"ha":1311,"x_min":93,"x_max":1206,"o":"m 317 738 l 93 738 l 93 801 l 585 801 q 624 763 624 801 l 624 99 l 317 99 l 317 738 m 899 738 l 664 738 l 664 801 l 1167 801 q 1206 763 1206 801 l 1206 99 l 899 99 l 899 738 z "},"ㄳ":{"ha":1311,"x_min":106,"x_max":1294,"o":"m 329 738 l 106 738 l 106 801 l 599 801 q 626 791 615 801 q 636 763 636 781 l 636 151 q 794 288 742 163 q 847 636 847 413 l 847 814 l 1151 814 l 1151 636 q 1124 426 1151 518 l 1133 426 q 1250 382 1206 426 q 1294 265 1294 338 q 1250 145 1294 190 q 1133 100 1206 100 q 1035 128 1075 100 q 978 204 994 156 q 823 126 910 151 q 636 99 736 101 l 329 99 l 329 738 z "},"ㄴ":{"ha":1311,"x_min":121,"x_max":1206,"o":"m 426 814 l 426 214 q 465 175 426 175 l 1206 175 l 1206 111 l 274 111 q 163 153 204 111 q 121 265 121 194 l 121 814 l 426 814 z "},"ㄵ":{"ha":1311,"x_min":94,"x_max":1294,"o":"m 401 801 l 401 214 q 440 175 401 175 l 631 175 q 724 199 688 175 q 783 278 761 224 q 814 422 806 333 q 822 636 822 510 l 822 738 l 617 738 l 617 801 l 1294 801 l 1294 738 l 1126 738 l 1126 636 q 1103 426 1126 518 q 1224 384 1178 426 q 1269 265 1269 342 q 1225 145 1269 190 q 1108 100 1181 100 q 1013 126 1051 100 q 956 196 974 151 q 810 131 892 150 q 631 111 728 111 l 249 111 q 136 153 178 111 q 94 265 94 194 l 94 801 l 401 801 z "},"ㄶ":{"ha":1311,"x_min":57,"x_max":1282,"o":"m 553 750 l 751 750 l 751 856 l 1058 856 l 1058 750 l 1282 750 l 1282 686 l 553 686 l 553 750 m 210 114 q 99 156 140 114 q 57 268 57 197 l 57 804 l 363 804 l 363 217 q 401 178 363 178 l 592 178 l 592 114 l 210 114 m 567 364 q 653 568 567 503 q 904 633 740 633 q 1156 568 1068 633 q 1243 364 1243 503 q 1156 158 1243 224 q 904 93 1068 93 q 653 161 740 93 q 567 364 567 229 m 904 157 q 948 204 933 157 q 963 364 963 251 q 948 523 963 476 q 904 569 933 569 q 862 523 876 569 q 847 364 847 476 q 862 204 847 251 q 904 157 876 157 z "},"ㄷ":{"ha":1311,"x_min":119,"x_max":1192,"o":"m 1174 801 l 1174 738 l 425 738 l 425 214 q 464 175 425 175 l 1192 175 l 1192 111 l 272 111 q 161 153 203 111 q 119 265 119 194 l 119 801 l 1174 801 z "},"ㄸ":{"ha":1311,"x_min":93,"x_max":1211,"o":"m 247 111 q 135 153 176 111 q 93 265 93 194 l 93 801 l 599 801 l 599 738 l 400 738 l 400 214 q 439 175 400 175 l 599 175 l 599 111 l 247 111 m 803 111 q 691 153 733 111 q 649 265 649 194 l 649 801 l 1211 801 l 1211 738 l 956 738 l 956 214 q 994 175 956 175 l 1211 175 l 1211 111 l 803 111 z "},"ㄹ":{"ha":1311,"x_min":119,"x_max":1192,"o":"m 1192 157 l 1192 93 l 253 93 q 156 128 192 93 q 119 208 119 163 q 156 289 119 254 q 253 324 192 324 l 886 324 l 886 426 l 253 426 q 156 460 192 426 q 119 540 119 494 q 156 621 119 586 q 253 656 192 656 l 886 656 l 886 758 l 146 758 l 146 822 l 1058 822 q 1156 788 1119 822 q 1192 707 1192 753 q 1156 626 1192 661 q 1058 592 1119 592 l 425 592 l 425 490 l 1058 490 q 1156 456 1119 490 q 1192 375 1192 421 q 1156 294 1192 329 q 1058 260 1119 260 l 425 260 l 425 157 l 1192 157 z "},"ㄺ":{"ha":1311,"x_min":81,"x_max":1224,"o":"m 719 157 l 719 93 l 215 93 q 117 128 154 93 q 81 208 81 163 q 117 289 81 254 q 215 324 154 324 l 489 324 l 489 426 l 215 426 q 117 460 154 426 q 81 540 81 494 q 117 621 81 586 q 215 656 154 656 l 489 656 l 489 758 l 107 758 l 107 822 l 585 822 q 683 788 646 822 q 719 707 719 753 q 683 626 719 661 q 585 592 646 592 l 311 592 l 311 490 l 585 490 q 683 456 646 490 q 719 375 719 421 q 683 294 719 329 q 585 260 646 260 l 311 260 l 311 157 l 719 157 m 918 758 l 707 758 l 707 822 l 1186 822 q 1213 812 1203 822 q 1224 783 1224 801 l 1224 100 l 918 100 l 918 758 z "},"ㄻ":{"ha":1311,"x_min":56,"x_max":1231,"o":"m 668 157 l 668 93 l 189 93 q 92 128 128 93 q 56 208 56 163 q 92 289 56 254 q 189 324 128 324 l 439 324 l 439 426 l 189 426 q 92 460 128 426 q 56 540 56 494 q 92 621 56 586 q 189 656 128 656 l 439 656 l 439 758 l 82 758 l 82 822 l 535 822 q 632 788 596 822 q 668 707 668 753 q 632 626 668 661 q 535 592 596 592 l 285 592 l 285 490 l 535 490 q 632 456 596 490 q 668 375 668 421 q 632 294 668 329 q 535 260 596 260 l 285 260 l 285 157 l 668 157 m 860 93 q 749 135 790 93 q 707 247 707 176 l 707 822 l 1231 822 l 1231 93 l 860 93 m 1026 758 l 924 758 l 924 196 q 963 157 924 157 l 1026 157 l 1026 758 z "},"ㄼ":{"ha":1311,"x_min":56,"x_max":1231,"o":"m 707 824 l 918 824 l 918 615 l 1019 615 l 1019 824 l 1231 824 l 1231 93 l 707 93 l 707 824 m 668 157 l 668 93 l 189 93 q 92 128 128 93 q 56 208 56 163 q 92 289 56 254 q 189 324 128 324 l 439 324 l 439 426 l 189 426 q 92 460 128 426 q 56 540 56 494 q 92 621 56 586 q 189 656 128 656 l 439 656 l 439 758 l 82 758 l 82 822 l 535 822 q 632 788 596 822 q 668 707 668 753 q 632 626 668 661 q 535 592 596 592 l 285 592 l 285 490 l 535 490 q 632 456 596 490 q 668 375 668 421 q 632 294 668 329 q 535 260 596 260 l 285 260 l 285 157 l 668 157 m 1019 385 l 1019 554 l 918 554 l 918 385 l 1019 385 m 1019 154 l 1019 324 l 918 324 l 918 154 l 1019 154 z "},"ㄽ":{"ha":1311,"x_min":81,"x_max":1256,"o":"m 579 157 q 751 280 693 157 q 808 638 808 403 l 808 824 l 1100 824 l 1100 638 q 1092 517 1100 572 q 1069 414 1085 463 q 1082 415 1076 415 q 1094 415 1088 415 q 1211 370 1167 415 q 1256 253 1256 325 q 1211 133 1256 178 q 1094 89 1167 89 q 992 120 1033 89 q 936 204 950 151 q 803 129 878 156 q 643 96 729 103 l 643 93 l 215 93 q 117 128 154 93 q 81 208 81 163 q 117 289 81 254 q 215 324 154 324 l 476 324 l 476 426 l 215 426 q 117 460 154 426 q 81 540 81 494 q 117 621 81 586 q 215 656 154 656 l 476 656 l 476 758 l 107 758 l 107 822 l 572 822 q 670 791 633 822 q 707 707 707 760 q 670 626 707 661 q 572 592 633 592 l 311 592 l 311 490 l 572 490 q 670 456 633 490 q 707 375 707 421 q 670 294 707 329 q 572 260 633 260 l 311 260 l 311 157 l 579 157 z "},"ㄾ":{"ha":1311,"x_min":93,"x_max":1238,"o":"m 975 196 q 1014 157 975 157 l 1238 157 l 1238 93 l 892 93 q 781 135 822 93 q 739 247 739 176 l 739 824 l 1224 824 l 1224 760 l 975 760 l 975 479 l 1211 479 l 1211 415 l 975 415 l 975 196 m 707 157 l 707 93 l 228 93 q 130 128 167 93 q 93 208 93 163 q 130 289 93 254 q 228 324 167 324 l 476 324 l 476 426 l 228 426 q 130 460 167 426 q 93 540 93 494 q 130 621 93 586 q 228 656 167 656 l 476 656 l 476 758 l 121 758 l 121 822 l 572 822 q 670 788 633 822 q 707 707 707 753 q 670 626 707 661 q 572 592 633 592 l 324 592 l 324 490 l 572 490 q 670 456 633 490 q 707 375 707 421 q 670 294 707 329 q 572 260 633 260 l 324 260 l 324 157 l 707 157 z "},"ㄿ":{"ha":1311,"x_min":56,"x_max":1256,"o":"m 688 157 l 742 157 l 718 760 l 669 760 l 669 824 l 1256 824 l 1256 760 l 1201 760 l 1189 157 l 1256 157 l 1256 93 l 688 93 l 688 157 m 668 157 l 668 93 l 189 93 q 92 128 128 93 q 56 208 56 163 q 92 289 56 254 q 189 324 128 324 l 439 324 l 439 426 l 189 426 q 92 460 128 426 q 56 540 56 494 q 92 621 56 586 q 189 656 128 656 l 439 656 l 439 758 l 82 758 l 82 822 l 535 822 q 632 788 596 822 q 668 707 668 753 q 632 626 668 661 q 535 592 596 592 l 285 592 l 285 490 l 535 490 q 632 456 596 490 q 668 375 668 421 q 632 294 668 329 q 535 260 596 260 l 285 260 l 285 157 l 668 157 m 999 157 l 1013 760 l 921 760 l 943 157 l 999 157 z "},"ㅀ":{"ha":1311,"x_min":56,"x_max":1282,"o":"m 681 750 l 822 750 l 822 856 l 1115 856 l 1115 750 l 1282 750 l 1282 686 l 681 686 l 681 750 m 643 158 l 643 94 l 189 94 q 92 129 128 94 q 56 210 56 164 q 92 290 56 256 q 189 325 128 325 l 413 325 l 413 428 l 189 428 q 92 462 128 428 q 56 542 56 496 q 92 622 56 588 q 189 657 128 657 l 413 657 l 413 760 l 82 760 l 82 824 l 508 824 q 606 789 569 824 q 643 708 643 754 q 606 628 643 663 q 508 593 569 593 l 285 593 l 285 492 l 508 492 q 606 457 569 492 q 643 376 643 422 q 606 296 643 331 q 508 261 569 261 l 285 261 l 285 158 l 643 158 m 681 364 q 757 568 681 503 q 968 633 833 633 q 1179 568 1103 633 q 1256 364 1256 503 q 1179 158 1256 224 q 968 93 1103 93 q 757 161 833 93 q 681 364 681 229 m 968 157 q 1012 204 997 157 q 1026 364 1026 251 q 1012 523 1026 476 q 968 569 997 569 q 926 523 940 569 q 911 364 911 476 q 926 204 911 251 q 968 157 940 157 z "},"ㅁ":{"ha":1311,"x_min":119,"x_max":1192,"o":"m 1192 801 l 1192 111 l 272 111 q 161 153 203 111 q 119 265 119 194 l 119 801 l 1192 801 m 886 738 l 425 738 l 425 214 q 464 175 425 175 l 886 175 l 886 738 z "},"ㅂ":{"ha":1311,"x_min":93,"x_max":1218,"o":"m 93 814 l 400 814 l 400 593 l 656 400 l 911 593 l 911 814 l 1218 814 l 1218 111 l 911 111 l 656 304 l 400 111 l 93 111 l 93 814 m 593 353 l 400 499 l 400 206 l 593 353 m 911 206 l 911 499 l 718 353 l 911 206 z "},"ㅃ":{"ha":1311,"x_min":93,"x_max":1218,"o":"m 93 814 l 375 814 l 375 546 l 521 546 l 521 814 l 790 814 l 790 546 l 936 546 l 936 814 l 1218 814 l 1218 111 l 93 111 l 93 814 m 521 175 l 521 482 l 375 482 l 375 175 l 521 175 m 936 175 l 936 482 l 790 482 l 790 175 l 936 175 z "},"ㅄ":{"ha":1311,"x_min":93,"x_max":1269,"o":"m 93 814 l 317 814 l 317 614 l 432 614 l 432 814 l 656 814 l 656 169 q 783 313 743 196 q 822 636 822 429 l 822 814 l 1126 814 l 1126 636 q 1119 523 1126 575 q 1100 426 1113 471 l 1108 426 q 1225 382 1181 426 q 1269 265 1269 338 q 1225 145 1269 190 q 1108 100 1181 100 q 1009 128 1050 100 q 953 206 968 157 q 818 139 893 161 q 656 113 743 117 l 656 111 l 93 111 l 93 814 m 432 383 l 432 553 l 317 553 l 317 383 l 432 383 m 432 172 l 432 322 l 317 322 l 317 172 l 432 172 z "},"ㅅ":{"ha":1311,"x_min":106,"x_max":1206,"o":"m 106 150 q 277 181 201 150 q 406 272 353 211 q 487 424 458 332 q 515 636 515 515 l 515 814 l 844 814 l 844 636 q 785 378 844 482 q 624 213 725 275 q 390 125 524 151 q 106 99 256 99 l 106 150 m 879 265 q 924 382 879 338 q 1044 426 969 426 q 1161 382 1117 426 q 1206 265 1206 338 q 1161 145 1206 190 q 1044 100 1117 100 q 924 145 969 100 q 879 265 879 190 z "},"ㅆ":{"ha":1311,"x_min":68,"x_max":1256,"o":"m 68 150 q 247 267 182 150 q 311 636 311 383 l 311 814 l 615 814 l 615 636 q 571 374 615 478 q 451 208 526 269 q 277 123 376 147 q 68 99 178 99 l 68 150 m 503 150 q 681 267 617 150 q 744 636 744 383 l 744 814 l 1049 814 l 1049 636 q 1041 514 1049 569 q 1018 411 1033 458 q 1094 426 1053 426 q 1211 382 1167 426 q 1256 265 1256 338 q 1211 145 1256 190 q 1094 100 1167 100 q 979 141 1024 100 q 931 251 935 182 q 845 179 893 208 q 742 132 797 150 q 627 106 688 114 q 503 99 567 99 l 503 150 z "},"ㅇ":{"ha":1311,"x_min":88,"x_max":1224,"o":"m 88 458 q 119 599 88 532 q 218 715 150 665 q 394 794 286 765 q 656 824 503 824 q 917 794 808 824 q 1093 715 1025 765 q 1192 599 1161 665 q 1224 458 1224 532 q 1192 317 1224 383 q 1093 200 1161 250 q 917 121 1025 150 q 656 92 808 92 q 394 121 503 92 q 218 200 286 150 q 119 317 150 250 q 88 458 88 383 m 656 156 q 767 180 718 156 q 849 246 815 204 q 901 342 883 288 q 918 458 918 397 q 901 573 918 518 q 849 669 883 628 q 767 735 815 711 q 656 760 718 760 q 544 735 593 760 q 462 669 496 711 q 410 573 428 628 q 393 458 393 518 q 410 342 393 397 q 462 246 428 288 q 544 180 496 204 q 656 156 593 156 z "},"ㅈ":{"ha":1311,"x_min":106,"x_max":1206,"o":"m 106 150 q 277 181 201 150 q 406 272 353 211 q 487 424 458 332 q 515 636 515 515 l 515 738 l 106 738 l 106 801 l 1206 801 l 1206 738 l 844 738 l 844 636 q 785 378 844 482 q 624 213 725 275 q 390 125 524 151 q 106 99 256 99 l 106 150 m 879 265 q 924 382 879 338 q 1044 426 969 426 q 1161 382 1117 426 q 1206 265 1206 338 q 1161 145 1206 190 q 1044 100 1117 100 q 924 145 969 100 q 879 265 879 190 z "},"ㅉ":{"ha":1311,"x_min":68,"x_max":1256,"o":"m 68 150 q 247 267 182 150 q 311 636 311 383 l 311 738 l 106 738 l 106 801 l 1206 801 l 1206 738 l 1049 738 l 1049 636 q 1041 514 1049 569 q 1018 411 1033 458 q 1094 426 1053 426 q 1211 382 1167 426 q 1256 265 1256 338 q 1211 145 1256 190 q 1094 100 1167 100 q 979 141 1024 100 q 931 251 935 182 q 845 179 893 208 q 742 132 797 150 q 627 106 688 114 q 503 99 567 99 l 503 150 q 681 267 617 150 q 744 636 744 383 l 744 738 l 615 738 l 615 636 q 571 374 615 478 q 451 208 526 269 q 277 123 376 147 q 68 99 178 99 l 68 150 z "},"ㅊ":{"ha":1311,"x_min":106,"x_max":1206,"o":"m 106 153 q 277 175 201 153 q 406 249 353 197 q 487 383 458 300 q 515 588 515 467 l 515 689 l 106 689 l 106 753 l 515 753 l 515 856 l 857 856 l 857 753 l 1206 753 l 1206 689 l 844 689 l 844 588 q 785 338 844 433 q 624 190 725 243 q 390 119 524 138 q 106 101 256 101 l 106 153 m 879 268 q 924 385 879 340 q 1044 429 969 429 q 1161 385 1117 429 q 1206 268 1206 340 q 1161 148 1206 193 q 1044 103 1117 103 q 924 148 969 103 q 879 268 879 193 z "},"ㅋ":{"ha":1311,"x_min":113,"x_max":1199,"o":"m 125 465 l 892 465 l 892 738 l 113 738 l 113 801 l 1122 801 q 1178 781 1157 801 q 1199 725 1199 760 l 1199 99 l 892 99 l 892 401 l 125 401 l 125 465 z "},"ㅌ":{"ha":1311,"x_min":119,"x_max":1186,"o":"m 425 214 q 464 175 425 175 l 1186 175 l 1186 111 l 272 111 q 161 153 203 111 q 119 265 119 194 l 119 801 l 1174 801 l 1174 738 l 425 738 l 425 465 l 1160 465 l 1160 401 l 425 401 l 425 214 z "},"ㅍ":{"ha":1311,"x_min":106,"x_max":1206,"o":"m 106 175 l 251 175 l 233 738 l 113 738 l 113 801 l 1199 801 l 1199 738 l 1082 738 l 1071 175 l 1206 175 l 1206 111 l 106 111 l 106 175 m 779 175 l 792 738 l 524 738 l 543 175 l 779 175 z "},"ㅎ":{"ha":1311,"x_min":100,"x_max":1211,"o":"m 107 750 l 515 750 l 515 856 l 822 856 l 822 750 l 1206 750 l 1206 686 l 107 686 l 107 750 m 100 357 q 131 463 100 414 q 229 546 163 511 q 401 600 296 581 q 656 619 507 619 q 910 600 804 619 q 1082 546 1015 581 q 1180 463 1149 511 q 1211 357 1211 414 q 1180 251 1211 300 q 1082 167 1149 203 q 910 113 1015 132 q 656 93 804 93 q 401 113 507 93 q 229 167 296 132 q 131 251 163 203 q 100 357 100 300 m 407 357 q 468 213 407 268 q 656 157 529 157 q 843 213 782 157 q 904 357 904 268 q 843 501 904 446 q 656 556 782 556 q 468 501 529 556 q 407 357 407 446 z "},"ㅏ":{"ha":1311,"x_min":508,"x_max":975,"o":"m 508 1042 l 815 1042 l 815 546 l 975 546 l 975 468 l 815 468 l 815 -125 l 508 -125 l 508 1042 z "},"ㅐ":{"ha":1311,"x_min":358,"x_max":951,"o":"m 358 1042 l 600 1042 l 600 529 l 696 529 l 696 1042 l 951 1042 l 951 -125 l 696 -125 l 696 465 l 600 465 l 600 -125 l 358 -125 l 358 1042 z "},"ㅑ":{"ha":1311,"x_min":422,"x_max":888,"o":"m 422 1042 l 728 1042 l 728 738 l 888 738 l 888 660 l 728 660 l 728 303 l 888 303 l 888 226 l 728 226 l 728 -125 l 422 -125 l 422 1042 z "},"ㅒ":{"ha":1311,"x_min":358,"x_max":951,"o":"m 358 1042 l 600 1042 l 600 729 l 696 729 l 696 1042 l 951 1042 l 951 -125 l 696 -125 l 696 231 l 600 231 l 600 -125 l 358 -125 l 358 1042 m 696 294 l 696 665 l 600 665 l 600 294 l 696 294 z "},"ㅓ":{"ha":1311,"x_min":376,"x_max":933,"o":"m 626 468 l 376 468 l 376 546 l 626 546 l 626 1042 l 933 1042 l 933 -125 l 626 -125 l 626 468 z "},"ㅔ":{"ha":1311,"x_min":238,"x_max":1014,"o":"m 758 1042 l 1014 1042 l 1014 -125 l 758 -125 l 758 1042 m 419 465 l 238 465 l 238 529 l 419 529 l 419 1042 l 675 1042 l 675 -125 l 419 -125 l 419 465 z "},"ㅕ":{"ha":1311,"x_min":376,"x_max":933,"o":"m 626 194 l 376 194 l 376 258 l 626 258 l 626 671 l 376 671 l 376 735 l 626 735 l 626 1042 l 933 1042 l 933 -125 l 626 -125 l 626 194 z "},"ㅖ":{"ha":1311,"x_min":238,"x_max":1014,"o":"m 758 1042 l 1014 1042 l 1014 -125 l 758 -125 l 758 1042 m 419 210 l 238 210 l 238 274 l 419 274 l 419 721 l 238 721 l 238 785 l 419 785 l 419 1042 l 675 1042 l 675 -125 l 419 -125 l 419 210 z "},"ㅗ":{"ha":1311,"x_min":56,"x_max":1256,"o":"m 56 272 l 496 272 l 496 742 l 815 742 l 815 297 q 840 272 815 272 l 1256 272 l 1256 208 l 56 208 l 56 272 z "},"ㅘ":{"ha":1311,"x_min":56,"x_max":1301,"o":"m 56 29 l 304 29 l 304 514 l 611 514 l 611 54 q 636 29 611 29 l 674 29 q 769 40 718 29 q 872 69 821 50 l 872 1042 l 1179 1042 l 1179 546 l 1301 546 l 1301 468 l 1179 468 l 1179 -125 l 872 -125 l 872 4 q 824 -12 850 -6 q 769 -24 797 -19 q 714 -32 742 -29 q 664 -35 686 -35 l 56 -35 l 56 29 z "},"ㅙ":{"ha":1311,"x_min":17,"x_max":1294,"o":"m 17 29 l 228 29 l 228 514 l 496 514 l 496 54 q 521 29 496 29 l 558 29 q 633 40 594 29 q 719 69 671 50 l 719 1042 l 963 1042 l 963 546 l 1051 546 l 1051 1042 l 1294 1042 l 1294 -125 l 1051 -125 l 1051 468 l 963 468 l 963 -125 l 719 -125 l 719 3 q 633 -26 679 -17 q 550 -35 586 -35 l 17 -35 l 17 29 z "},"ㅚ":{"ha":1311,"x_min":68,"x_max":1231,"o":"m 68 29 l 329 29 l 329 514 l 636 514 l 636 54 q 663 29 636 29 l 699 29 q 807 42 749 29 q 924 81 865 56 l 924 1042 l 1231 1042 l 1231 -125 l 924 -125 l 924 17 q 874 -6 903 4 q 813 -22 844 -15 q 749 -31 781 -28 q 690 -35 717 -35 l 68 -35 l 68 29 z "},"ㅛ":{"ha":1311,"x_min":56,"x_max":1256,"o":"m 56 272 l 240 272 l 240 742 l 560 742 l 560 272 l 751 272 l 751 742 l 1071 742 l 1071 297 q 1096 272 1071 272 l 1256 272 l 1256 208 l 56 208 l 56 272 z "},"ㅜ":{"ha":1311,"x_min":56,"x_max":1256,"o":"m 56 540 l 1256 540 l 1256 476 l 815 476 l 815 85 l 496 85 l 496 476 l 56 476 l 56 540 z "},"ㅝ":{"ha":1311,"x_min":56,"x_max":1243,"o":"m 700 172 l 936 172 l 936 1042 l 1243 1042 l 1243 -125 l 936 -125 l 936 108 l 700 108 l 700 172 m 265 307 l 56 307 l 56 371 l 840 371 l 840 307 l 585 307 l 585 -125 l 265 -125 l 265 307 z "},"ㅞ":{"ha":1311,"x_min":17,"x_max":1294,"o":"m 771 108 l 599 108 l 599 172 l 771 172 l 771 1042 l 1000 1042 l 1000 -125 l 771 -125 l 771 108 m 1064 1042 l 1294 1042 l 1294 -125 l 1064 -125 l 1064 1042 m 176 307 l 17 307 l 17 371 l 688 371 l 688 307 l 496 307 l 496 -125 l 176 -125 l 176 307 z "},"ㅟ":{"ha":1311,"x_min":56,"x_max":1243,"o":"m 936 1042 l 1243 1042 l 1243 -125 l 936 -125 l 936 1042 m 279 307 l 56 307 l 56 371 l 854 371 l 854 307 l 599 307 l 599 -125 l 279 -125 l 279 307 z "},"ㅠ":{"ha":1311,"x_min":56,"x_max":1256,"o":"m 228 476 l 56 476 l 56 540 l 1256 540 l 1256 476 l 1083 476 l 1083 85 l 764 85 l 764 476 l 547 476 l 547 85 l 228 85 l 228 476 z "},"ㅡ":{"ha":1311,"x_min":56,"x_max":1256,"o":"m 56 411 l 1256 411 l 1256 347 l 56 347 l 56 411 z "},"ㅢ":{"ha":1311,"x_min":68,"x_max":1231,"o":"m 68 81 l 661 81 q 813 94 740 81 q 924 131 885 107 l 924 1042 l 1231 1042 l 1231 -125 l 924 -125 l 924 67 q 873 45 903 54 q 808 30 843 36 q 732 20 772 24 q 651 17 692 17 l 68 17 l 68 81 z "},"ㅣ":{"ha":1311,"x_min":503,"x_max":808,"o":"m 503 1042 l 808 1042 l 808 -125 l 503 -125 l 503 1042 z "},"ㅥ":{"ha":1311,"x_min":119,"x_max":1206,"o":"m 272 111 q 161 153 203 111 q 119 265 119 194 l 119 801 l 425 801 l 425 214 q 464 175 425 175 l 654 175 l 654 111 l 272 111 m 824 111 q 711 153 753 111 q 669 265 669 194 l 669 801 l 976 801 l 976 214 q 1015 175 976 175 l 1206 175 l 1206 111 l 824 111 z "},"ㅦ":{"ha":1311,"x_min":119,"x_max":1199,"o":"m 272 111 q 161 153 203 111 q 119 265 119 194 l 119 801 l 425 801 l 425 214 q 464 175 425 175 l 642 175 l 642 111 l 272 111 m 803 111 q 691 153 733 111 q 649 265 649 194 l 649 801 l 1199 801 l 1199 738 l 956 738 l 956 214 q 994 175 956 175 l 1199 175 l 1199 111 l 803 111 z "},"ㅧ":{"ha":1311,"x_min":119,"x_max":1256,"o":"m 425 801 l 425 214 q 464 175 425 175 l 592 175 q 757 288 706 175 q 808 636 808 401 l 808 814 l 1113 814 l 1113 636 q 1106 523 1113 575 q 1086 426 1099 471 l 1094 426 q 1211 382 1167 426 q 1256 265 1256 338 q 1211 145 1256 190 q 1094 100 1167 100 q 996 128 1036 100 q 940 206 956 157 q 783 133 871 154 q 592 111 694 111 l 272 111 q 161 153 203 111 q 119 265 119 194 l 119 801 l 425 801 z "},"ㅨ":{"ha":1311,"x_min":26,"x_max":1285,"o":"m 883 842 l 1285 113 l 181 113 q 69 154 111 113 q 26 267 26 196 l 26 803 l 333 803 l 333 215 q 372 176 333 176 l 517 176 l 883 842 m 1029 176 l 883 474 l 738 176 l 1029 176 z "},"ㅩ":{"ha":1311,"x_min":29,"x_max":1282,"o":"m 456 157 l 456 93 l 136 93 q 58 128 88 93 q 29 208 29 163 q 58 289 29 254 q 136 324 88 324 l 297 324 l 297 426 l 136 426 q 58 460 88 426 q 29 540 29 494 q 58 621 29 586 q 136 656 88 656 l 297 656 l 297 758 l 51 758 l 51 822 l 349 822 q 394 812 374 822 q 429 783 414 801 l 429 815 l 785 815 q 807 805 799 815 q 815 778 815 794 l 815 167 q 928 302 893 183 q 963 638 963 421 l 963 815 l 1142 815 l 1142 638 q 1138 524 1142 576 q 1128 425 1135 471 q 1140 427 1135 426 q 1153 428 1146 428 q 1247 383 1211 428 q 1282 267 1282 339 q 1247 147 1282 192 q 1153 101 1211 101 q 1078 125 1110 101 q 1032 192 1047 149 q 938 125 992 147 q 815 100 885 103 l 608 100 l 608 751 l 447 751 q 456 707 456 731 q 426 626 456 661 q 349 592 397 592 l 188 592 l 188 490 l 349 490 q 426 456 397 490 q 456 375 456 421 q 426 294 456 329 q 349 260 397 260 l 188 260 l 188 157 l 456 157 z "},"ㅪ":{"ha":1311,"x_min":93,"x_max":1250,"o":"m 904 93 q 793 135 835 93 q 751 247 751 176 l 751 824 l 1238 824 l 1238 760 l 988 760 l 988 196 q 1026 157 988 157 l 1250 157 l 1250 93 l 904 93 m 707 157 l 707 93 l 228 93 q 130 128 167 93 q 93 208 93 163 q 130 289 93 254 q 228 324 167 324 l 476 324 l 476 426 l 228 426 q 130 460 167 426 q 93 540 93 494 q 130 621 93 586 q 228 656 167 656 l 476 656 l 476 758 l 121 758 l 121 822 l 572 822 q 670 788 633 822 q 707 707 707 753 q 670 626 707 661 q 572 592 633 592 l 324 592 l 324 490 l 572 490 q 670 456 633 490 q 707 375 707 421 q 670 294 707 329 q 572 260 633 260 l 324 260 l 324 157 l 707 157 z "},"ㅫ":{"ha":1311,"x_min":29,"x_max":1282,"o":"m 418 157 l 418 93 l 136 93 q 58 128 88 93 q 29 208 29 163 q 58 289 29 254 q 136 324 88 324 l 260 324 l 260 426 l 136 426 q 58 460 88 426 q 29 540 29 494 q 58 621 29 586 q 136 656 88 656 l 260 656 l 260 758 l 51 758 l 51 822 l 311 822 q 389 788 360 822 q 418 707 418 753 q 389 626 418 661 q 311 592 360 592 l 188 592 l 188 490 l 311 490 q 389 456 360 490 q 418 375 418 421 q 389 294 418 329 q 311 260 360 260 l 188 260 l 188 157 l 418 157 m 449 815 l 617 815 l 617 633 l 696 633 l 696 815 l 865 815 l 865 203 q 939 352 915 244 q 963 638 963 460 l 963 815 l 1142 815 l 1142 638 q 1138 522 1142 575 q 1126 425 1133 469 q 1140 427 1133 426 q 1153 428 1146 428 q 1247 383 1211 428 q 1282 267 1282 339 q 1247 147 1282 192 q 1153 101 1211 101 q 1077 127 1108 101 q 1031 197 1046 153 q 865 118 968 133 l 865 113 l 449 113 l 449 815 m 696 403 l 696 571 l 617 571 l 617 403 l 696 403 m 696 174 l 696 342 l 617 342 l 617 174 l 696 174 z "},"ㅬ":{"ha":1311,"x_min":22,"x_max":1289,"o":"m 619 157 l 939 842 l 1289 93 l 156 93 q 58 128 94 93 q 22 208 22 163 q 58 289 22 254 q 156 324 94 324 l 418 324 l 418 426 l 156 426 q 58 460 94 426 q 22 540 22 494 q 58 621 22 586 q 156 656 94 656 l 418 656 l 418 758 l 49 758 l 49 822 l 514 822 q 611 791 575 822 q 647 707 647 760 q 611 626 647 661 q 514 592 575 592 l 251 592 l 251 490 l 514 490 q 611 456 575 490 q 647 375 647 421 q 611 294 647 329 q 514 260 575 260 l 251 260 l 251 157 l 619 157 m 1085 157 l 939 500 l 793 157 l 1085 157 z "},"ㅭ":{"ha":1311,"x_min":56,"x_max":1269,"o":"m 643 157 l 643 93 l 189 93 q 92 128 128 93 q 56 208 56 163 q 92 289 56 254 q 189 324 128 324 l 413 324 l 413 426 l 189 426 q 92 460 128 426 q 56 540 56 494 q 92 621 56 586 q 189 656 128 656 l 413 656 l 413 758 l 82 758 l 82 822 l 508 822 q 606 788 569 822 q 643 707 643 753 q 606 626 643 661 q 508 592 569 592 l 285 592 l 285 490 l 508 490 q 606 456 569 490 q 643 375 643 421 q 606 294 643 329 q 508 260 569 260 l 285 260 l 285 157 l 643 157 m 668 803 l 1269 803 l 1269 739 l 668 739 l 668 803 m 968 92 q 758 163 835 92 q 681 388 681 235 q 758 614 681 546 q 968 682 835 682 q 1179 614 1103 682 q 1256 388 1256 546 q 1179 160 1256 229 q 968 92 1103 92 m 968 156 q 993 167 982 156 q 1012 206 1004 179 q 1023 278 1019 233 q 1026 388 1026 322 q 1023 497 1026 453 q 1012 569 1019 542 q 993 607 1004 596 q 968 618 982 618 q 944 607 954 618 q 926 569 933 596 q 915 497 918 542 q 911 388 911 453 q 915 278 911 322 q 926 206 918 233 q 944 167 933 179 q 968 156 954 156 z "},"ㅮ":{"ha":1311,"x_min":100,"x_max":1211,"o":"m 253 111 q 142 153 183 111 q 100 265 100 194 l 100 801 l 624 801 l 624 111 l 253 111 m 688 801 l 899 801 l 899 632 l 1000 632 l 1000 801 l 1211 801 l 1211 111 l 688 111 l 688 801 m 419 738 l 317 738 l 317 214 q 356 175 317 175 l 419 175 l 419 738 m 1000 401 l 1000 569 l 899 569 l 899 401 l 1000 401 m 1000 172 l 1000 340 l 899 340 l 899 172 l 1000 172 z "},"ㅯ":{"ha":1311,"x_min":100,"x_max":1256,"o":"m 624 801 l 624 178 q 765 306 721 193 q 808 636 808 418 l 808 801 l 1113 801 l 1113 636 q 1106 523 1113 575 q 1086 426 1099 471 l 1094 426 q 1211 382 1167 426 q 1256 265 1256 338 q 1211 145 1256 190 q 1094 100 1167 100 q 996 128 1036 100 q 940 206 956 157 q 797 136 878 158 q 624 111 717 114 l 253 111 q 142 153 183 111 q 100 265 100 194 l 100 801 l 624 801 m 419 738 l 317 738 l 317 214 q 356 175 317 175 l 419 175 l 419 738 z "},"ㅰ":{"ha":1311,"x_min":61,"x_max":1251,"o":"m 901 842 l 1251 113 l 215 113 q 103 154 144 113 q 61 267 61 196 l 61 803 l 585 803 l 585 182 l 901 842 m 381 739 l 279 739 l 279 215 q 290 187 279 197 q 317 176 300 176 l 381 176 l 381 739 m 1047 176 l 901 500 l 756 176 l 1047 176 z "},"ㅱ":{"ha":1311,"x_min":119,"x_max":1192,"o":"m 1192 1028 l 1192 492 l 272 492 q 161 533 203 492 q 119 644 119 575 l 119 1028 l 1192 1028 m 425 594 q 464 556 425 556 l 886 556 l 886 964 l 425 964 l 425 594 m 172 138 q 289 329 172 268 q 656 390 406 390 q 1022 329 906 390 q 1139 138 1139 268 q 1022 -55 1139 7 q 656 -117 906 -117 q 289 -55 406 -117 q 172 138 172 7 m 656 -65 q 792 -15 742 -65 q 842 138 842 36 q 792 290 842 240 q 656 339 742 339 q 519 290 569 339 q 469 138 469 240 q 519 -15 469 36 q 656 -65 569 -65 z "},"ㅲ":{"ha":1311,"x_min":106,"x_max":1206,"o":"m 106 801 l 317 801 l 317 632 l 432 632 l 432 801 l 643 801 l 643 111 l 106 111 l 106 801 m 899 738 l 689 738 l 689 801 l 1167 801 q 1206 763 1206 801 l 1206 99 l 899 99 l 899 738 m 432 401 l 432 569 l 317 569 l 317 401 l 432 401 m 432 172 l 432 340 l 317 340 l 317 172 l 432 172 z "},"ㅳ":{"ha":1311,"x_min":106,"x_max":1211,"o":"m 106 814 l 317 814 l 317 632 l 432 632 l 432 814 l 643 814 l 643 111 l 106 111 l 106 814 m 867 111 q 755 153 797 111 q 713 265 713 194 l 713 814 l 1211 814 l 1211 750 l 968 750 l 968 214 q 1007 175 968 175 l 1211 175 l 1211 111 l 867 111 m 432 401 l 432 569 l 317 569 l 317 401 l 432 401 m 432 172 l 432 340 l 317 340 l 317 172 l 432 172 z "},"ㅴ":{"ha":1311,"x_min":44,"x_max":1267,"o":"m 44 814 l 214 814 l 214 632 l 306 632 l 306 814 l 474 814 l 474 193 q 558 338 532 229 q 583 636 583 447 l 583 814 l 801 814 l 801 636 q 782 424 801 517 q 797 426 789 426 q 813 426 804 426 q 906 382 871 426 q 942 265 942 338 q 906 145 942 190 q 813 100 871 100 q 731 131 764 100 q 686 214 697 161 q 592 145 646 169 q 474 114 539 121 l 474 111 l 44 111 l 44 814 m 1060 750 l 881 750 l 881 814 l 1236 814 q 1258 803 1250 814 q 1267 776 1267 793 l 1267 99 l 1060 99 l 1060 750 m 306 401 l 306 569 l 214 569 l 214 401 l 306 401 m 306 172 l 306 340 l 214 340 l 214 172 l 306 172 z "},"ㅵ":{"ha":1311,"x_min":28,"x_max":1285,"o":"m 28 814 l 197 814 l 197 632 l 289 632 l 289 814 l 457 814 l 457 192 q 542 338 515 228 q 568 636 568 447 l 568 814 l 785 814 l 785 636 q 765 424 785 517 q 780 426 772 426 q 796 426 788 426 q 868 402 838 426 q 914 336 899 378 l 914 814 l 1285 814 l 1285 750 l 1118 750 l 1118 214 q 1157 175 1118 175 l 1285 175 l 1285 111 l 1067 111 q 972 140 1010 111 q 921 217 935 168 q 876 132 910 164 q 796 100 843 100 q 714 131 747 100 q 669 214 681 161 q 576 145 629 169 q 457 114 522 121 l 457 111 l 28 111 l 28 814 m 289 401 l 289 569 l 197 569 l 197 401 l 289 401 m 289 172 l 289 340 l 197 340 l 197 172 l 289 172 z "},"ㅶ":{"ha":1311,"x_min":106,"x_max":1256,"o":"m 106 814 l 317 814 l 317 632 l 432 632 l 432 814 l 643 814 l 643 175 q 721 204 688 178 q 777 286 754 231 q 811 428 800 342 q 822 636 822 514 l 822 750 l 681 750 l 681 814 l 1231 814 l 1231 750 l 1100 750 l 1100 636 q 1076 425 1100 517 q 1085 426 1081 425 q 1094 426 1090 426 q 1211 382 1167 426 q 1256 265 1256 338 q 1211 145 1256 190 q 1094 100 1167 100 q 997 127 1038 100 q 940 201 957 154 q 806 133 881 154 q 643 111 731 113 l 106 111 l 106 814 m 432 401 l 432 569 l 317 569 l 317 401 l 432 401 m 432 172 l 432 340 l 317 340 l 317 172 l 432 172 z "},"ㅷ":{"ha":1311,"x_min":106,"x_max":1211,"o":"m 106 814 l 317 814 l 317 632 l 432 632 l 432 814 l 643 814 l 643 111 l 106 111 l 106 814 m 968 214 q 1007 175 968 175 l 1211 175 l 1211 111 l 867 111 q 755 153 797 111 q 713 265 713 194 l 713 814 l 1211 814 l 1211 750 l 968 750 l 968 490 l 1199 490 l 1199 429 l 968 429 l 968 214 m 432 401 l 432 569 l 317 569 l 317 401 l 432 401 m 432 172 l 432 340 l 317 340 l 317 172 l 432 172 z "},"ㅸ":{"ha":1311,"x_min":93,"x_max":1218,"o":"m 93 1028 l 400 1028 l 400 883 l 656 715 l 911 883 l 911 1028 l 1218 1028 l 1218 467 l 911 467 l 656 635 l 400 467 l 93 467 l 93 1028 m 593 675 l 400 801 l 400 549 l 593 675 m 911 549 l 911 801 l 718 675 l 911 549 m 172 138 q 289 329 172 268 q 656 390 406 390 q 1022 329 906 390 q 1139 138 1139 268 q 1022 -55 1139 7 q 656 -117 906 -117 q 289 -55 406 -117 q 172 138 172 7 m 656 -65 q 792 -15 742 -65 q 842 138 842 36 q 792 290 842 240 q 656 339 742 339 q 519 290 569 339 q 469 138 469 240 q 519 -15 469 36 q 656 -65 569 -65 z "},"ㅹ":{"ha":1311,"x_min":93,"x_max":1218,"o":"m 93 1014 l 375 1014 l 375 810 l 521 810 l 521 1014 l 790 1014 l 790 810 l 936 810 l 936 1014 l 1218 1014 l 1218 478 l 93 478 l 93 1014 m 521 542 l 521 746 l 375 746 l 375 542 l 521 542 m 936 542 l 936 746 l 790 746 l 790 542 l 936 542 m 172 136 q 289 328 172 267 q 656 389 406 389 q 1022 328 906 389 q 1139 136 1139 267 q 1022 -56 1139 6 q 656 -118 906 -118 q 289 -56 406 -118 q 172 136 172 6 m 656 -67 q 792 -16 742 -67 q 842 136 842 35 q 792 288 842 239 q 656 338 742 338 q 519 288 569 338 q 469 136 469 239 q 519 -16 469 35 q 656 -67 569 -67 z "},"ㅺ":{"ha":1311,"x_min":93,"x_max":1211,"o":"m 93 175 q 260 288 208 175 q 311 636 311 401 l 311 801 l 615 801 l 615 636 q 608 523 615 575 q 589 426 601 471 l 597 426 q 714 382 669 426 q 758 265 758 338 q 714 145 758 190 q 597 100 669 100 q 498 128 539 100 q 442 206 457 157 q 284 133 372 156 q 93 111 196 111 l 93 175 m 904 738 l 681 738 l 681 801 l 1174 801 q 1201 791 1190 801 q 1211 763 1211 781 l 1211 99 l 904 99 l 904 738 z "},"ㅻ":{"ha":1311,"x_min":93,"x_max":1294,"o":"m 93 175 q 260 288 208 175 q 311 636 311 401 l 311 801 l 615 801 l 615 636 q 608 523 615 575 q 589 426 601 471 q 702 380 660 424 q 744 265 744 336 q 700 145 744 190 q 583 100 656 100 q 488 126 528 100 q 431 197 449 153 q 277 131 363 150 q 93 111 192 111 l 93 175 m 925 111 q 814 153 856 111 q 772 265 772 194 l 772 801 l 1079 801 l 1079 214 q 1090 185 1079 196 q 1117 175 1100 175 l 1294 175 l 1294 111 l 925 111 z "},"ㅼ":{"ha":1311,"x_min":93,"x_max":1271,"o":"m 93 175 q 260 288 208 175 q 311 636 311 401 l 311 801 l 615 801 l 615 636 q 608 523 615 575 q 589 426 601 471 q 702 380 660 424 q 744 265 744 336 q 700 145 744 190 q 583 100 656 100 q 488 126 528 100 q 431 197 449 153 q 277 131 363 150 q 93 111 192 111 l 93 175 m 925 111 q 814 153 856 111 q 772 265 772 194 l 772 801 l 1271 801 l 1271 738 l 1028 738 l 1028 214 q 1038 185 1028 196 q 1065 175 1049 175 l 1271 175 l 1271 111 l 925 111 z "},"ㅽ":{"ha":1311,"x_min":42,"x_max":1269,"o":"m 42 175 q 208 288 157 175 q 260 636 260 401 l 260 801 l 538 801 l 538 636 q 514 426 538 518 q 626 380 583 424 q 668 265 668 336 q 624 145 668 190 q 507 100 579 100 q 416 124 454 100 q 358 190 378 149 q 216 129 296 147 q 42 111 136 111 l 42 175 m 707 801 l 931 801 l 931 632 l 1046 632 l 1046 801 l 1269 801 l 1269 111 l 707 111 l 707 801 m 1046 401 l 1046 569 l 931 569 l 931 401 l 1046 401 m 1046 172 l 1046 340 l 931 340 l 931 172 l 1046 172 z "},"ㅾ":{"ha":1311,"x_min":42,"x_max":1269,"o":"m 42 175 q 208 288 157 175 q 260 636 260 401 l 260 801 l 538 801 l 538 636 q 514 425 538 517 q 617 375 578 418 q 656 265 656 332 q 611 145 656 190 q 494 100 567 100 q 405 122 443 100 q 347 183 367 144 q 208 128 285 144 q 42 111 132 111 l 42 175 m 656 175 q 735 199 703 175 q 786 278 767 224 q 814 422 806 333 q 822 636 822 510 l 822 738 l 656 738 l 656 801 l 1256 801 l 1256 738 l 1100 738 l 1100 636 q 1079 425 1100 514 q 1094 426 1086 426 q 1108 426 1101 426 q 1225 382 1181 426 q 1269 265 1269 338 q 1225 145 1269 190 q 1108 100 1181 100 q 1010 126 1050 100 q 954 200 971 153 q 822 131 897 151 q 656 111 747 111 l 656 175 z "},"ㅿ":{"ha":1311,"x_min":129,"x_max":1131,"o":"m 631 842 l 1131 113 l 129 113 l 631 842 m 813 176 l 631 474 l 447 176 l 813 176 z "},"ㆀ":{"ha":1311,"x_min":26,"x_max":1285,"o":"m 329 92 q 185 122 243 92 q 92 203 128 153 q 42 320 57 254 q 26 458 26 386 q 42 597 26 531 q 92 713 57 663 q 185 794 128 764 q 329 824 243 824 q 473 794 415 824 q 566 713 531 764 q 617 597 601 663 q 632 458 632 531 q 617 320 632 386 q 566 203 601 254 q 473 122 531 153 q 329 92 415 92 m 982 92 q 838 122 896 92 q 745 203 781 153 q 694 320 710 254 q 679 458 679 386 q 694 597 679 531 q 745 713 710 663 q 838 794 781 764 q 982 824 896 824 q 1125 794 1067 824 q 1219 713 1183 764 q 1269 597 1254 663 q 1285 458 1285 531 q 1269 320 1285 386 q 1219 203 1254 254 q 1125 122 1183 153 q 982 92 1067 92 m 329 156 q 357 169 344 156 q 378 218 369 183 q 392 311 388 253 q 397 458 397 369 q 392 604 397 546 q 378 697 388 663 q 357 746 369 732 q 329 760 344 760 q 302 746 314 760 q 281 697 290 732 q 267 604 272 663 q 263 458 263 546 q 267 311 263 369 q 281 218 272 253 q 302 169 290 183 q 329 156 314 156 m 982 156 q 1008 169 996 156 q 1030 218 1021 183 q 1044 311 1039 253 q 1049 458 1049 369 q 1044 604 1049 546 q 1030 697 1039 663 q 1008 746 1021 732 q 982 760 996 760 q 954 746 967 760 q 933 697 942 732 q 919 604 924 663 q 914 458 914 546 q 919 311 914 369 q 933 218 924 253 q 954 169 942 183 q 982 156 967 156 z "},"ㆁ":{"ha":1311,"x_min":100,"x_max":1211,"o":"m 507 856 l 801 856 l 801 715 q 988 676 910 704 q 1115 606 1065 647 q 1188 515 1165 565 q 1211 408 1211 464 q 1180 286 1211 343 q 1082 186 1149 229 q 910 118 1015 143 q 656 93 804 93 q 401 118 507 93 q 229 186 296 143 q 131 286 163 229 q 100 408 100 343 q 123 515 100 464 q 195 606 146 565 q 322 674 244 646 q 507 715 399 703 l 507 856 m 656 157 q 765 177 718 157 q 842 231 811 197 q 889 311 874 265 q 904 408 904 357 q 889 505 904 460 q 842 584 874 550 q 765 638 811 618 q 656 658 718 658 q 547 638 593 658 q 469 584 500 618 q 422 505 438 550 q 407 408 407 460 q 422 311 407 357 q 469 231 438 265 q 547 177 500 197 q 656 157 593 157 z "},"ㆂ":{"ha":1311,"x_min":39,"x_max":1274,"o":"m 253 828 l 429 828 l 429 711 q 530 664 489 696 q 597 590 571 632 q 633 500 622 547 q 644 407 644 453 q 629 299 644 354 q 578 197 614 243 q 485 122 543 151 q 342 92 426 92 q 198 122 256 92 q 105 197 140 151 q 54 299 69 243 q 39 407 39 354 q 50 500 39 453 q 86 590 61 547 q 152 664 111 632 q 253 711 193 696 l 253 828 m 610 176 q 775 290 724 176 q 826 638 826 403 l 826 815 l 1131 815 l 1131 638 q 1124 524 1131 576 q 1104 428 1117 472 l 1113 428 q 1229 383 1185 428 q 1274 267 1274 339 q 1229 147 1274 192 q 1113 101 1185 101 q 1013 130 1054 101 q 957 207 972 158 q 800 134 888 156 q 610 113 713 113 l 610 176 m 342 156 q 390 212 371 156 q 408 407 408 268 q 390 601 408 544 q 342 657 371 657 q 292 601 311 657 q 274 407 274 544 q 292 212 274 268 q 342 156 311 156 z "},"ㆃ":{"ha":1311,"x_min":24,"x_max":1286,"o":"m 936 842 l 1286 113 l 586 113 l 936 842 m 238 828 l 414 828 l 414 711 q 515 664 474 696 q 581 590 556 632 q 618 500 607 547 q 629 407 629 453 q 614 299 629 354 q 563 197 599 243 q 469 122 528 151 q 326 92 411 92 q 183 122 240 92 q 90 197 125 151 q 39 299 54 243 q 24 407 24 354 q 35 500 24 453 q 71 590 46 547 q 137 664 96 632 q 238 711 178 696 l 238 828 m 326 156 q 374 212 356 156 q 393 407 393 268 q 374 601 393 544 q 326 657 356 657 q 277 601 296 657 q 258 407 258 544 q 277 212 258 268 q 326 156 296 156 m 1082 176 l 936 500 l 792 176 l 1082 176 z "},"ㆄ":{"ha":1311,"x_min":106,"x_max":1206,"o":"m 106 543 l 251 543 l 233 964 l 113 964 l 113 1028 l 1199 1028 l 1199 964 l 1082 964 l 1071 543 l 1206 543 l 1206 479 l 106 479 l 106 543 m 781 543 l 792 964 l 524 964 l 543 543 l 781 543 m 172 138 q 289 329 172 268 q 656 390 406 390 q 1022 329 906 390 q 1139 138 1139 268 q 1022 -55 1139 7 q 656 -117 906 -117 q 289 -55 406 -117 q 172 138 172 7 m 656 -65 q 792 -15 742 -65 q 842 138 842 36 q 792 290 842 240 q 656 339 742 339 q 519 290 569 339 q 469 138 469 240 q 519 -15 469 36 q 656 -65 569 -65 z "},"ㆅ":{"ha":1311,"x_min":49,"x_max":1263,"o":"m 675 750 l 803 750 l 803 856 l 1096 856 l 1096 750 l 1263 750 l 1263 686 l 675 686 l 675 750 m 49 750 l 189 750 l 189 856 l 483 856 l 483 750 l 636 750 l 636 686 l 49 686 l 49 750 m 663 364 q 739 568 663 503 q 950 633 815 633 q 1161 568 1085 633 q 1238 364 1238 503 q 1161 158 1238 224 q 950 93 1085 93 q 739 161 815 93 q 663 364 663 229 m 49 364 q 125 568 49 503 q 336 633 201 633 q 547 568 471 633 q 624 364 624 503 q 547 158 624 224 q 336 93 471 93 q 125 161 201 93 q 49 364 49 229 m 950 157 q 992 204 978 157 q 1007 364 1007 251 q 992 523 1007 476 q 950 569 978 569 q 906 523 921 569 q 892 364 892 476 q 906 204 892 251 q 950 157 921 157 m 336 157 q 379 204 365 157 q 393 364 393 251 q 379 523 393 476 q 336 569 365 569 q 293 523 307 569 q 279 364 279 476 q 293 204 279 251 q 336 157 307 157 z "},"ㆆ":{"ha":1311,"x_min":100,"x_max":1211,"o":"m 107 806 l 1206 806 l 1206 742 l 107 742 l 107 806 m 100 371 q 131 481 100 431 q 229 569 163 532 q 401 626 296 606 q 656 647 507 647 q 910 626 804 647 q 1082 569 1015 606 q 1180 481 1149 532 q 1211 371 1211 431 q 1180 260 1211 311 q 1082 172 1149 210 q 910 114 1015 135 q 656 93 804 93 q 401 114 507 93 q 229 172 296 135 q 131 260 163 210 q 100 371 100 311 m 407 371 q 469 217 407 276 q 656 157 531 157 q 842 217 781 157 q 904 371 904 276 q 889 457 904 418 q 842 524 874 496 q 765 567 811 551 q 656 583 718 583 q 547 567 593 583 q 469 524 500 551 q 422 457 438 496 q 407 371 407 418 z "},"ㆇ":{"ha":1311,"x_min":56,"x_max":1301,"o":"m 56 29 l 164 29 l 164 514 l 407 514 l 407 29 l 483 29 l 483 514 l 726 514 l 726 54 q 751 29 726 29 l 763 29 q 815 36 789 29 q 872 63 842 43 l 872 1042 l 1179 1042 l 1179 769 l 1301 769 l 1301 692 l 1179 692 l 1179 347 l 1301 347 l 1301 269 l 1179 269 l 1179 -125 l 872 -125 l 872 -3 q 813 -28 843 -21 q 754 -35 782 -35 l 56 -35 l 56 29 z "},"ㆈ":{"ha":1311,"x_min":17,"x_max":1294,"o":"m 17 29 l 88 29 l 88 514 l 317 514 l 317 29 l 393 29 l 393 514 l 624 514 l 624 54 q 631 35 624 42 q 647 29 638 29 q 682 31 667 29 q 719 54 697 33 l 719 1042 l 963 1042 l 963 729 l 1051 729 l 1051 1042 l 1294 1042 l 1294 -125 l 1051 -125 l 1051 231 l 963 231 l 963 -125 l 719 -125 l 719 -12 q 680 -33 700 -32 q 639 -35 660 -35 l 17 -35 l 17 29 m 1051 294 l 1051 665 l 963 665 l 963 294 l 1051 294 z "},"ㆉ":{"ha":1311,"x_min":68,"x_max":1231,"o":"m 68 29 l 176 29 l 176 514 l 419 514 l 419 29 l 508 29 l 508 514 l 751 514 l 751 54 q 776 29 751 29 l 789 29 q 852 40 819 29 q 924 81 885 51 l 924 1042 l 1231 1042 l 1231 -125 l 924 -125 l 924 17 q 852 -24 892 -12 q 779 -35 813 -35 l 68 -35 l 68 29 z "},"ㆊ":{"ha":1311,"x_min":56,"x_max":1243,"o":"m 790 69 l 936 69 l 936 160 l 790 160 l 790 224 l 936 224 l 936 1042 l 1243 1042 l 1243 -125 l 936 -125 l 936 6 l 790 6 l 790 69 m 169 307 l 56 307 l 56 371 l 840 371 l 840 307 l 719 307 l 719 -125 l 489 -125 l 489 307 l 400 307 l 400 -125 l 169 -125 l 169 307 z "},"ㆋ":{"ha":1311,"x_min":17,"x_max":1294,"o":"m 771 6 l 663 6 l 663 69 l 771 69 l 771 160 l 663 160 l 663 224 l 771 224 l 771 1042 l 1000 1042 l 1000 -125 l 771 -125 l 771 6 m 1064 1042 l 1294 1042 l 1294 -125 l 1064 -125 l 1064 1042 m 81 307 l 17 307 l 17 371 l 688 371 l 688 307 l 604 307 l 604 -125 l 375 -125 l 375 307 l 311 307 l 311 -125 l 81 -125 l 81 307 z "},"ㆌ":{"ha":1311,"x_min":56,"x_max":1243,"o":"m 936 1042 l 1243 1042 l 1243 -125 l 936 -125 l 936 1042 m 169 307 l 56 307 l 56 371 l 854 371 l 854 307 l 758 307 l 758 -125 l 515 -125 l 515 307 l 413 307 l 413 -125 l 169 -125 l 169 307 z "},"ㆍ":{"ha":1311,"x_min":511,"x_max":800,"o":"m 511 442 q 550 548 511 508 q 656 588 589 588 q 761 548 722 588 q 800 442 800 508 q 761 336 800 375 q 656 297 722 297 q 550 336 589 297 q 511 442 511 375 z "},"ㆎ":{"ha":1311,"x_min":183,"x_max":911,"o":"m 604 1042 l 911 1042 l 911 -125 l 604 -125 l 604 1042 m 183 460 q 222 566 183 526 q 328 606 261 606 q 433 566 393 606 q 472 460 472 526 q 433 354 472 393 q 328 315 393 315 q 222 354 261 315 q 183 460 183 393 z "},"ⅰ":{"ha":1389,"x_min":535,"x_max":854,"o":"m 535 928 q 578 1038 535 997 q 694 1079 622 1079 q 810 1038 765 1079 q 854 928 854 997 q 810 818 854 860 q 694 776 765 776 q 578 818 622 776 q 535 928 535 860 m 547 667 l 842 667 l 842 -100 l 547 -100 l 547 667 z "},"ⅱ":{"ha":1389,"x_min":318,"x_max":1071,"o":"m 318 928 q 362 1038 318 997 q 478 1079 406 1079 q 593 1038 549 1079 q 638 928 638 997 q 593 818 638 860 q 478 776 549 776 q 362 818 406 776 q 318 928 318 860 m 751 928 q 795 1038 751 997 q 911 1079 839 1079 q 1026 1038 982 1079 q 1071 928 1071 997 q 1026 818 1071 860 q 911 776 982 776 q 795 818 839 776 q 751 928 751 860 m 331 667 l 625 667 l 625 -100 l 331 -100 l 331 667 m 764 667 l 1058 667 l 1058 -100 l 764 -100 l 764 667 z "},"ⅲ":{"ha":1389,"x_min":101,"x_max":1288,"o":"m 101 928 q 145 1038 101 997 q 261 1079 189 1079 q 376 1038 332 1079 q 421 928 421 997 q 376 818 421 860 q 261 776 332 776 q 145 818 189 776 q 101 928 101 860 m 535 928 q 578 1038 535 997 q 694 1079 622 1079 q 810 1038 765 1079 q 854 928 854 997 q 810 818 854 860 q 694 776 765 776 q 578 818 622 776 q 535 928 535 860 m 968 928 q 1012 1038 968 997 q 1128 1079 1056 1079 q 1243 1038 1199 1079 q 1288 928 1288 997 q 1243 818 1288 860 q 1128 776 1199 776 q 1012 818 1056 776 q 968 928 968 860 m 114 667 l 408 667 l 408 -100 l 114 -100 l 114 667 m 547 667 l 842 667 l 842 -100 l 547 -100 l 547 667 m 981 667 l 1275 667 l 1275 -100 l 981 -100 l 981 667 z "},"ⅳ":{"ha":1389,"x_min":124,"x_max":1265,"o":"m 124 928 q 167 1038 124 997 q 283 1079 211 1079 q 399 1038 354 1079 q 443 928 443 997 q 399 818 443 860 q 283 776 354 776 q 167 818 211 776 q 124 928 124 860 m 136 667 l 431 667 l 431 -100 l 136 -100 l 136 667 m 540 667 l 765 667 l 971 69 l 1182 667 l 1265 667 l 1001 -100 l 813 -100 l 540 667 z "},"ⅴ":{"ha":1389,"x_min":240,"x_max":1147,"o":"m 240 667 l 522 667 l 779 69 l 1043 667 l 1147 667 l 817 -100 l 581 -100 l 240 667 z "},"ⅵ":{"ha":1389,"x_min":124,"x_max":1265,"o":"m 946 928 q 990 1038 946 997 q 1106 1079 1033 1079 q 1221 1038 1176 1079 q 1265 928 1265 997 q 1221 818 1265 860 q 1106 776 1176 776 q 990 818 1033 776 q 946 928 946 860 m 958 667 l 1253 667 l 1253 -100 l 958 -100 l 958 667 m 124 667 l 349 667 l 554 69 l 765 667 l 849 667 l 585 -100 l 396 -100 l 124 667 z "},"ⅶ":{"ha":1389,"x_min":69,"x_max":1319,"o":"m 1188 776 q 1138 788 1161 776 q 1096 818 1114 799 q 1067 866 1078 838 q 1056 928 1056 894 q 1095 1038 1056 997 q 1188 1079 1135 1079 q 1280 1038 1240 1079 q 1319 928 1319 997 q 1308 866 1319 894 q 1279 818 1297 838 q 1238 788 1261 799 q 1188 776 1214 776 m 838 776 q 788 788 811 776 q 746 818 764 799 q 717 866 728 838 q 706 928 706 894 q 745 1038 706 997 q 838 1079 785 1079 q 930 1038 890 1079 q 969 928 969 997 q 958 866 969 894 q 929 818 947 838 q 888 788 911 799 q 838 776 864 776 m 1068 667 l 1307 667 l 1307 -100 l 1068 -100 l 1068 667 m 718 667 l 957 667 l 957 -100 l 718 -100 l 718 667 m 69 667 l 250 667 l 414 69 l 583 667 l 650 667 l 439 -100 l 288 -100 l 69 667 z "}}}
